0
SECTION
2
HEADER
9
$INSUNITS
70
4
9
$ACADVER
1
AC1014
9
$HANDSEED
5
FFFF
0
ENDSEC
0
SECTION
2
TABLES
0
TABLE
2
VPORT
5
8
100
AcDbSymbolTable
0
ENDTAB
0
TABLE
2
LTYPE
5
5
100
AcDbSymbolTable
0
LTYPE
5
14
100
AcDbSymbolTableRecord
100
AcDbLinetypeTableRecord
2
BYBLOCK
70
0
0
LTYPE
5
15
100
AcDbSymbolTableRecord
100
AcDbLinetypeTableRecord
2
BYLAYER
70
0
0
ENDTAB
0
TABLE
2
LAYER
5
2
100
AcDbSymbolTable
70
2
0
LAYER
5
50
100
AcDbSymbolTableRecord
100
AcDbLayerTableRecord
2
0
70
0
6
CONTINUOUS
0
ENDTAB
0
TABLE
2
STYLE
5
3
100
AcDbSymbolTable
70
1
0
STYLE
5
11
100
AcDbSymbolTableRecord
100
AcDbTextStyleTableRecord
2
STANDARD
70
0
0
ENDTAB
0
TABLE
2
VIEW
5
6
100
AcDbSymbolTable
70
0
0
ENDTAB
0
TABLE
2
UCS
5
7
100
AcDbSymbolTable
70
0
0
ENDTAB
0
TABLE
2
APPID
5
9
100
AcDbSymbolTable
70
2
0
APPID
5
12
100
AcDbSymbolTableRecord
100
AcDbRegAppTableRecord
2
ACAD
70
0
0
ENDTAB
0
TABLE
2
DIMSTYLE
5
A
100
AcDbSymbolTable
70
1
0
ENDTAB
0
TABLE
2
BLOCK_RECORD
5
1
100
AcDbSymbolTable
70
1
0
BLOCK_RECORD
5
1F
100
AcDbSymbolTableRecord
100
AcDbBlockTableRecord
2
*MODEL_SPACE
0
BLOCK_RECORD
5
1B
100
AcDbSymbolTableRecord
100
AcDbBlockTableRecord
2
*PAPER_SPACE
0
ENDTAB
0
ENDSEC
0
SECTION
2
BLOCKS
0
BLOCK
5
20
100
AcDbEntity
100
AcDbBlockBegin
2
*MODEL_SPACE
0
ENDBLK
5
21
100
AcDbEntity
100
AcDbBlockEnd
0
BLOCK
5
1C
100
AcDbEntity
100
AcDbBlockBegin
2
*PAPER_SPACE
0
ENDBLK
5
1D
100
AcDbEntity
100
AcDbBlockEnd
0
ENDSEC
0
SECTION
2
ENTITIES
0
LINE
5
100
100
AcDbEntity
8
0
100
AcDbLine
10
-69.93259909999999
20
31.340721799999997
30
0
11
-69.432599099999976
21
31.340721799999997
31
0
0
LWPOLYLINE
5
101
100
AcDbEntity
8
0
100
AcDbPolyline
90
4
70
1
43
0.0
10
-69.432599099999976
20
31.340721799999997
10
-69.432599099999976
20
17.340721799999994
10
-83.43259909999999
20
17.340721800000015
10
-83.43259909999999
20
31.340721800000011
0
LWPOLYLINE
5
102
100
AcDbEntity
8
0
100
AcDbPolyline
90
4
70
1
43
0.0
10
-59.62009909999999
20
55.153221799999997
10
-45.62009909999999
20
55.153221799999997
10
-45.62009909999999
20
41.153221799999997
10
-59.62009909999999
20
41.153221799999997
0
LWPOLYLINE
5
103
100
AcDbEntity
8
0
100
AcDbPolyline
90
4
70
1
43
0.0
10
-45.62009909999999
20
60.203221800000001
10
-45.62009909999999
20
74.203221800000009
10
-59.62009909999999
20
74.203221800000009
10
-59.62009909999999
20
60.203221800000001
0
LWPOLYLINE
5
104
100
AcDbEntity
8
0
100
AcDbPolyline
90
4
70
1
43
0.0
10
-45.62009909999999
20
79.253221800000006
10
-45.62009909999999
20
93.253221800000006
10
-59.62009909999999
20
93.253221800000006
10
-59.62009909999999
20
79.253221800000006
0
LWPOLYLINE
5
105
100
AcDbEntity
8
0
100
AcDbPolyline
90
4
70
1
43
0.0
10
-64.670099099999987
20
41.153221799999997
10
-64.670099099999987
20
55.153221799999997
10
-78.670099099999987
20
55.153221799999997
10
-78.670099099999987
20
41.153221799999997
0
LWPOLYLINE
5
106
100
AcDbEntity
8
0
100
AcDbPolyline
90
4
70
1
43
0.0
10
-64.670099099999987
20
60.203221800000001
10
-64.670099099999987
20
74.203221800000009
10
-78.670099099999987
20
74.203221800000009
10
-78.670099099999987
20
60.203221800000001
0
LWPOLYLINE
5
107
100
AcDbEntity
8
0
100
AcDbPolyline
90
4
70
1
43
0.0
10
-64.670099099999987
20
79.253221800000006
10
-64.670099099999987
20
93.253221800000006
10
-78.670099099999987
20
93.253221800000006
10
-78.670099099999987
20
79.253221800000006
0
LWPOLYLINE
5
108
100
AcDbEntity
8
0
100
AcDbPolyline
90
4
70
1
43
0.0
10
-64.670099099999987
20
79.253221800000006
10
-64.670099099999987
20
93.253221800000006
10
-78.670099099999987
20
93.253221800000006
10
-78.670099099999987
20
79.253221800000006
0
LWPOLYLINE
5
109
100
AcDbEntity
8
0
100
AcDbPolyline
90
4
70
1
43
0.0
10
-64.670099099999987
20
60.203221800000001
10
-64.670099099999987
20
74.203221800000009
10
-78.670099099999987
20
74.203221800000009
10
-78.670099099999987
20
60.203221800000001
0
LWPOLYLINE
5
110
100
AcDbEntity
8
0
100
AcDbPolyline
90
4
70
1
43
0.0
10
-64.670099099999987
20
41.153221799999997
10
-64.670099099999987
20
55.153221799999997
10
-78.670099099999987
20
55.153221799999997
10
-78.670099099999987
20
41.153221799999997
0
LINE
5
111
100
AcDbEntity
8
0
100
AcDbLine
10
-83.720099099999999
20
102.77822180000001
30
0
11
-83.720099099999999
21
88.778221800000011
31
0
0
LINE
5
112
100
AcDbEntity
8
0
100
AcDbLine
10
-102.77009909999998
20
98.015721800000009
30
0
11
-102.77009909999998
21
84.015721800000009
31
0
0
LWPOLYLINE
5
113
100
AcDbEntity
8
0
100
AcDbPolyline
90
4
70
1
43
0.0
10
-116.77009909999998
20
98.015721800000009
10
-102.77009909999998
20
98.015721800000009
10
-102.77009909999998
20
84.015721800000023
10
-116.77009909999998
20
84.015721800000023
0
LWPOLYLINE
5
114
100
AcDbEntity
8
0
100
AcDbPolyline
90
4
70
1
43
0.0
10
-102.77009909999998
20
64.965721799999997
10
-102.77009909999998
20
78.965721800000011
10
-116.77009909999998
20
78.965721800000011
10
-116.77009909999998
20
64.965721799999997
0
LWPOLYLINE
5
115
100
AcDbEntity
8
0
100
AcDbPolyline
90
4
70
1
43
0.0
10
-102.77009909999998
20
45.9157218
10
-102.77009909999998
20
59.9157218
10
-116.77009909999998
20
59.9157218
10
-116.77009909999998
20
45.9157218
0
LWPOLYLINE
5
116
100
AcDbEntity
8
0
100
AcDbPolyline
90
4
70
1
43
0.0
10
-83.720099099999999
20
88.778221800000026
10
-83.720099099999999
20
102.77822180000001
10
-97.720099099999999
20
102.77822180000001
10
-97.720099099999999
20
88.778221800000026
0
LWPOLYLINE
5
117
100
AcDbEntity
8
0
100
AcDbPolyline
90
4
70
1
43
0.0
10
-83.720099099999999
20
69.7282218
10
-83.720099099999999
20
83.7282218
10
-97.720099099999999
20
83.7282218
10
-97.720099099999999
20
69.7282218
0
LWPOLYLINE
5
118
100
AcDbEntity
8
0
100
AcDbPolyline
90
4
70
1
43
0.0
10
-83.720099099999999
20
50.678221800000003
10
-83.720099099999999
20
64.678221800000003
10
-97.720099099999999
20
64.678221800000003
10
-97.720099099999999
20
50.678221800000003
0
LINE
5
119
100
AcDbEntity
8
0
100
AcDbLine
10
-141.68648529999999
20
81.707939200000013
30
0
11
-142.18161933444168
21
81.638352650024416
31
0
0
LWPOLYLINE
5
120
100
AcDbEntity
8
0
100
AcDbPolyline
90
4
70
1
43
0.0
10
-142.18161933444168
20
81.638352650024416
10
-140.23319593512522
20
67.774599685657378
10
-126.36944297767899
20
69.723023134218053
10
-128.31786642623968
20
83.586776091664277
0
LINE
5
121
100
AcDbEntity
8
0
100
AcDbLine
10
-139.03523769999998
20
62.843332500000002
30
0
11
-139.53037173444167
21
62.77374595002442
31
0
0
LWPOLYLINE
5
122
100
AcDbEntity
8
0
100
AcDbPolyline
90
4
70
1
43
0.0
10
-139.53037173444167
20
62.77374595002442
10
-137.5819483351253
20
48.909992985657354
10
-123.71819537075825
20
50.858416384973715
10
-125.66661877007462
20
64.722169349340788
0
LINE
5
123
100
AcDbEntity
8
0
100
AcDbLine
10
-136.38399009999998
20
43.978725800000007
30
0
11
-136.87912413444167
21
43.909139250024424
31
0
0
LWPOLYLINE
5
124
100
AcDbEntity
8
0
100
AcDbPolyline
90
4
70
1
43
0.0
10
-136.87912413444167
20
43.909139250024424
10
-123.01537117007462
20
45.857562649340863
10
-121.06694777075818
20
31.993809684973797
10
-134.93070073512524
20
30.045386285657365
0
LWPOLYLINE
5
125
100
AcDbEntity
8
0
100
AcDbPolyline
90
4
70
1
43
0.0
10
-140.26744764094528
20
46.462424156820973
10
-137.48398564192178
20
26.657062779153762
10
-117.67862426425458
20
29.440524778177235
10
-120.46208626327805
20
49.245886155844467
0
LWPOLYLINE
5
126
100
AcDbEntity
8
0
100
AcDbPolyline
90
16
70
1
43
0.0
10
-66.43259909999999
20
34.34072179999999
10
-66.43259909999999
20
14.34072179999999
10
-64.689484320074115
20
34.26461576839894
10
-44.765590351675172
20
32.521500988473079
10
-46.508705131601033
20
12.597607020074125
10
-38.056339881561385
20
30.723762753707284
10
-19.930184147928227
20
22.271397503667636
10
-28.382549397967871
20
4.1452417700344739
10
-14.240413774236906
20
18.287377393765411
10
-0.09827815050596822
20
4.1452417700344473
10
-14.240413774236933
20
-9.9968938536964913
10
-28.382549397967871
20
4.1452417700344739
10
-46.508705131601033
20
12.597607020074125
10
-86.43259909999999
20
12.597607020074125
10
-86.43259909999999
20
14.340721800000019
10
-86.43259909999999
20
34.340721800000019
0
LINE
5
127
100
AcDbEntity
8
0
100
AcDbLine
10
-66.43259909999999
20
14.34072179999999
30
0
11
-86.43259909999999
21
14.340721800000019
31
0
0
LINE
5
128
100
AcDbEntity
8
0
100
AcDbLine
10
-42.62009909999999
20
38.153221799999997
30
0
11
-37.62009909999999
21
38.153221799999997
31
0
0
LINE
5
129
100
AcDbEntity
8
0
100
AcDbLine
10
-37.62009909999999
20
55.153221799999997
30
0
11
2.3799009000000115
21
55.153221799999997
31
0
0
LWPOLYLINE
5
130
100
AcDbEntity
8
0
100
AcDbPolyline
90
4
70
1
43
0.0
10
-80.720099099999985
20
47.678221800000003
10
-80.720099099999985
20
67.678221800000003
10
-100.7200991
20
67.678221800000003
10
-100.7200991
20
47.678221800000003
0
LWPOLYLINE
5
131
100
AcDbEntity
8
0
100
AcDbPolyline
90
4
70
1
43
0.0
10
-99.770099099999982
20
42.9157218
10
-99.770099099999982
20
62.9157218
10
-119.7700991
20
62.9157218
10
-119.7700991
20
42.9157218
0
LWPOLYLINE
5
132
100
AcDbEntity
8
0
100
AcDbPolyline
90
4
70
1
43
0.0
10
-61.670099099999987
20
38.153221799999997
10
-61.670099099999987
20
58.153221799999997
10
-81.670099099999987
20
58.153221799999997
10
-81.670099099999987
20
38.153221799999997
0
LINE
5
133
100
AcDbEntity
8
0
100
AcDbLine
10
-121.06694777075818
20
31.993809684973797
30
0
11
-120.92777467080701
21
31.003541616090438
31
0
0
LINE
5
134
100
AcDbEntity
8
0
100
AcDbLine
10
-120.1155991
20
32.340721800000011
30
0
11
-121.06694777075818
21
31.993809684973797
31
0
0
LINE
5
135
100
AcDbEntity
8
0
100
AcDbLine
10
-134.93070073512524
20
30.045386285657365
30
0
11
-135.9209688040086
21
29.906213185706193
31
0
0
LINE
5
136
100
AcDbEntity
8
0
100
AcDbLine
10
-135.9209688040086
20
29.906213185706193
30
0
11
-143.17188749313246
21
81.49917953745161
31
0
0
LINE
5
137
100
AcDbEntity
8
0
100
AcDbLine
10
-143.17188749313246
20
81.49917953745161
30
0
11
-143.31106059660107
21
82.489447605840638
31
0
0
LINE
5
138
100
AcDbEntity
8
0
100
AcDbLine
10
-143.31106059660107
20
82.489447605840638
30
0
11
-117.76016389602771
21
86.080392021537989
31
0
0
LINE
5
139
100
AcDbEntity
8
0
100
AcDbLine
10
-117.76016389602771
20
86.080392021537989
30
0
11
-117.76016389602771
21
99.015392021537991
31
0
0
LINE
5
140
100
AcDbEntity
8
0
100
AcDbLine
10
-117.76016389602771
20
99.015392021537991
30
0
11
-98.720163896027699
21
99.015392021537991
31
0
0
LINE
5
141
100
AcDbEntity
8
0
100
AcDbLine
10
-98.720163896027699
20
99.015392021537991
30
0
11
-98.720163896027699
21
103.778392021538
31
0
0
LINE
5
142
100
AcDbEntity
8
0
100
AcDbLine
10
-98.720163896027699
20
103.778392021538
30
0
11
-82.720163896027699
21
103.778392021538
31
0
0
LINE
5
143
100
AcDbEntity
8
0
100
AcDbLine
10
-82.720163896027699
20
103.778392021538
30
0
11
-82.720163896027699
21
94.253392021537991
31
0
0
LINE
5
144
100
AcDbEntity
8
0
100
AcDbLine
10
-82.720163896027699
20
94.253392021537991
30
0
11
2.3799009000000115
21
94.253392021537991
31
0
0
LINE
5
145
100
AcDbEntity
8
0
100
AcDbLine
10
-37.62009909999999
20
94.253392021537991
30
0
11
-35.62009909999999
21
94.253392021537991
31
0
0
LINE
5
146
100
AcDbEntity
8
0
100
AcDbLine
10
-35.62009909999999
20
94.253392021537991
30
0
11
-35.62009909999999
21
74.253392021537991
31
0
0
LINE
5
147
100
AcDbEntity
8
0
100
AcDbLine
10
-35.62009909999999
20
74.253392021537991
30
0
11
-18.120099099999987
21
74.253392021537991
31
0
0
LINE
5
148
100
AcDbEntity
8
0
100
AcDbLine
10
-18.120099099999987
20
74.253392021537991
30
0
11
-18.120099099999987
21
94.253392021537991
31
0
0
LINE
5
149
100
AcDbEntity
8
0
100
AcDbLine
10
-18.120099099999987
20
94.253392021537991
30
0
11
-16.120099099999987
21
94.253392021537991
31
0
0
LINE
5
150
100
AcDbEntity
8
0
100
AcDbLine
10
-16.120099099999987
20
94.253392021537991
30
0
11
-16.120099099999987
21
82.053392021537974
31
0
0
LINE
5
151
100
AcDbEntity
8
0
100
AcDbLine
10
-16.120099099999987
20
82.053392021537974
30
0
11
-9.9200990999999856
21
82.053392021537974
31
0
0
LINE
5
152
100
AcDbEntity
8
0
100
AcDbLine
10
-9.9200990999999856
20
82.053392021537974
30
0
11
-9.9200990999999856
21
94.253392021537991
31
0
0
LINE
5
153
100
AcDbEntity
8
0
100
AcDbLine
10
-18.120099099999987
20
74.253392021537991
30
0
11
-18.120099099999987
21
71.753392021537991
31
0
0
LINE
5
154
100
AcDbEntity
8
0
100
AcDbLine
10
2.3800894388140259
20
71.753392021537991
30
0
11
-37.62009909999999
21
71.753392021537991
31
0
0
LINE
5
155
100
AcDbEntity
8
0
100
AcDbLine
10
-37.62009909999999
20
71.753392021537991
30
0
11
2.3799009000000115
21
31.753392021537987
31
0
0
CIRCLE
5
156
100
AcDbEntity
8
0
100
AcDbCircle
10
-17.62009909999999
20
51.753392021537991
30
0
40
17.5
210
0
220
0
230
1
0
LINE
5
157
100
AcDbEntity
8
0
100
AcDbLine
10
-17.530077593258465
20
34.253623562260472
30
0
11
-17.530077593258465
21
31.753623562260476
31
0
0
LINE
5
158
100
AcDbEntity
8
0
100
AcDbLine
10
2.3799009000000115
20
31.753392021537987
30
0
11
-37.62009909999999
21
31.753392021537987
31
0
0
LINE
5
159
100
AcDbEntity
8
0
100
AcDbLine
10
-37.62009909999999
20
31.753392021537987
30
0
11
-37.62009909999999
21
94.253392021537991
31
0
0
LINE
5
160
100
AcDbEntity
8
0
100
AcDbLine
10
2.3799009000000115
20
31.753392021537987
30
0
11
2.3799009000000115
21
94.253392021537991
31
0
0
LINE
5
161
100
AcDbEntity
8
0
100
AcDbLine
10
-33.620099099999983
20
67.753392021537991
30
0
11
-33.620099099999983
21
71.753392021537991
31
0
0
CIRCLE
5
162
100
AcDbEntity
8
0
100
AcDbCircle
10
-33.620099099999983
20
67.753392021537991
30
0
40
1.4999999999999967
210
0
220
0
230
1
0
LINE
5
163
100
AcDbEntity
8
0
100
AcDbLine
10
2.3800894388140259
20
71.753392021537991
30
0
11
-1.6199105611859743
21
71.753392021537991
31
0
0
LINE
5
164
100
AcDbEntity
8
0
100
AcDbLine
10
-1.6199105611859743
20
71.753392021537991
30
0
11
-1.6199105611859743
21
67.753392021537991
31
0
0
LINE
5
165
100
AcDbEntity
8
0
100
AcDbLine
10
-1.6199105611859743
20
67.753392021537991
30
0
11
-33.620099099999983
21
67.753392021537991
31
0
0
CIRCLE
5
166
100
AcDbEntity
8
0
100
AcDbCircle
10
-1.6199105611859743
20
67.753392021537991
30
0
40
1.5000000000000004
210
0
220
0
230
1
0
LINE
5
167
100
AcDbEntity
8
0
100
AcDbLine
10
2.3799009000000115
20
31.753392021537987
30
0
11
2.3799009000000115
21
35.753392021537984
31
0
0
LINE
5
168
100
AcDbEntity
8
0
100
AcDbLine
10
2.3799009000000115
20
35.753392021537984
30
0
11
-1.6200990999999887
21
35.753392021537991
31
0
0
LINE
5
169
100
AcDbEntity
8
0
100
AcDbLine
10
-1.6200990999999887
20
35.753392021537991
30
0
11
-1.6199105611859743
21
67.753392021537991
31
0
0
CIRCLE
5
170
100
AcDbEntity
8
0
100
AcDbCircle
10
-1.6200990999999887
20
35.753392021537991
30
0
40
1.5000000000000016
210
0
220
0
230
1
0
LINE
5
171
100
AcDbEntity
8
0
100
AcDbLine
10
-1.6200990999999887
20
35.753392021537991
30
0
11
-33.620099099999983
21
35.753580560352006
31
0
0
CIRCLE
5
172
100
AcDbEntity
8
0
100
AcDbCircle
10
-33.620099099999983
20
35.753580560352006
30
0
40
1.5
210
0
220
0
230
1
0
LINE
5
173
100
AcDbEntity
8
0
100
AcDbLine
10
-33.620099099999983
20
35.753580560352006
30
0
11
-33.620099099999983
21
67.753392021537991
31
0
0
LINE
5
174
100
AcDbEntity
8
0
100
AcDbLine
10
-17.62009909999999
20
35.753486290944998
30
0
11
-17.620087316324113
21
37.753486290910288
31
0
0
LINE
5
175
100
AcDbEntity
8
0
100
AcDbLine
10
-33.620099099999983
20
35.753580560352006
30
0
11
-40.12009909999999
21
35.753580560352006
31
0
0
LINE
5
176
100
AcDbEntity
8
0
100
AcDbLine
10
-40.12009909999999
20
35.753580560352006
30
0
11
-40.12009909999999
21
38.153221799999997
31
0
0
CIRCLE
5
177
100
AcDbEntity
8
0
100
AcDbCircle
10
-40.12009909999999
20
35.753580560352006
30
0
40
1.5000000000000016
210
0
220
0
230
1
0
LINE
5
178
100
AcDbEntity
8
0
100
AcDbLine
10
-40.170131498013845
20
94.253392021537991
30
0
11
-40.170131498013845
21
90.253392021537991
31
0
0
CIRCLE
5
179
100
AcDbEntity
8
0
100
AcDbCircle
10
-40.170131498013845
20
90.253392021537991
30
0
40
1.5000000000000078
210
0
220
0
230
1
0
LINE
5
180
100
AcDbEntity
8
0
100
AcDbLine
10
-40.170131498013845
20
90.253392021537991
30
0
11
2.3799009000000115
21
90.253392021537991
31
0
0
CIRCLE
5
181
100
AcDbEntity
8
0
100
AcDbCircle
10
-1.6199105611859743
20
90.253392021537991
30
0
40
1.4999999999999938
210
0
220
0
230
1
0
LINE
5
182
100
AcDbEntity
8
0
100
AcDbLine
10
-46.508705131601033
20
12.597607020074125
30
0
11
-66.43259909999999
21
14.34072179999999
31
0
0
LWPOLYLINE
5
183
100
AcDbEntity
8
0
100
AcDbPolyline
90
4
70
1
43
0.0
10
-63.182547787751261
20
17.067838678270952
10
-61.962367441803153
20
31.014564456150218
10
-48.015641663923887
20
29.794384110202113
10
-49.235822009871988
20
15.847658332322849
0
LWPOLYLINE
5
184
100
AcDbEntity
8
0
100
AcDbPolyline
90
4
70
1
43
0.0
10
-24.139908710848587
20
4.1452417700344713
10
-14.240413774236911
20
14.044736706646127
10
-4.3409188376252512
20
4.145241770034449
10
-14.240413774236931
20
-5.7542531665772074
0
LWPOLYLINE
5
185
100
AcDbEntity
8
0
100
AcDbPolyline
90
4
70
1
43
0.0
10
-42.521926984050111
20
14.048675592613151
10
-36.605271309022356
20
26.736984606156362
10
-23.916962295479145
20
20.820328931128607
10
-29.833617970506904
20
8.132019917585394
0
LINE
5
186
100
AcDbEntity
8
0
100
AcDbLine
10
2.3799009000000115
20
31.753392021537987
30
0
11
2.3799009000000129
21
6.6234208205404235
31
0
0
LINE
5
187
100
AcDbEntity
8
0
100
AcDbLine
10
2.3799009000000129
20
6.6234208205404235
30
0
11
-0.09827815050596822
21
4.1452417700344473
31
0
0
LINE
5
188
100
AcDbEntity
8
0
100
AcDbLine
10
-117.67862426425458
20
29.440524778177235
30
0
11
-86.43259909999999
21
29.440524778177235
31
0
0
LWPOLYLINE
5
189
100
AcDbEntity
8
0
100
AcDbPolyline
90
4
70
1
43
0.0
10
-100.7200991
20
47.678221800000003
10
-80.720099099999985
20
47.678221800000003
10
-80.720099099999985
20
67.678221800000003
10
-100.7200991
20
67.678221800000003
0
LWPOLYLINE
5
190
100
AcDbEntity
8
0
100
AcDbPolyline
90
4
70
1
43
0.0
10
-78.670099099999987
20
55.153221799999997
10
-78.670099099999987
20
41.153221799999997
10
-64.670099099999987
20
41.153221799999997
10
-64.670099099999987
20
55.153221799999997
0
LWPOLYLINE
5
191
100
AcDbEntity
8
0
100
AcDbPolyline
90
4
70
1
43
0.0
10
-78.670099099999987
20
55.153221799999997
10
-78.670099099999987
20
41.153221799999997
10
-64.670099099999987
20
41.153221799999997
10
-64.670099099999987
20
55.153221799999997
0
LWPOLYLINE
5
192
100
AcDbEntity
8
0
100
AcDbPolyline
90
4
70
1
43
0.0
10
-83.43259909999999
20
17.340721800000015
10
-83.43259909999999
20
31.340721800000011
10
-69.432599099999976
20
31.340721799999997
10
-69.432599099999976
20
17.340721799999994
0
LWPOLYLINE
5
193
100
AcDbEntity
8
0
100
AcDbPolyline
90
4
70
1
43
0.0
10
-81.670099099999987
20
58.153221799999997
10
-61.670099099999987
20
58.153221799999997
10
-61.670099099999987
20
38.153221799999997
10
-81.670099099999987
20
38.153221799999997
0
LWPOLYLINE
5
194
100
AcDbEntity
8
0
100
AcDbPolyline
90
4
70
1
43
0.0
10
-78.670099099999987
20
60.203221800000001
10
-64.670099099999987
20
60.203221800000001
10
-64.670099099999987
20
74.203221800000009
10
-78.670099099999987
20
74.203221800000009
0
LWPOLYLINE
5
195
100
AcDbEntity
8
0
100
AcDbPolyline
90
4
70
1
43
0.0
10
-119.7700991
20
42.9157218
10
-99.770099099999982
20
42.9157218
10
-99.770099099999982
20
62.9157218
10
-119.7700991
20
62.9157218
0
LWPOLYLINE
5
196
100
AcDbEntity
8
0
100
AcDbPolyline
90
4
70
1
43
0.0
10
-116.77009909999998
20
59.9157218
10
-102.77009909999998
20
59.9157218
10
-102.77009909999998
20
45.9157218
10
-116.77009909999998
20
45.9157218
0
LINE
5
197
100
AcDbEntity
8
0
100
AcDbLine
10
-35.62009909999999
20
74.253392021537991
30
0
11
-18.120099099999987
21
74.253392021537991
31
0
0
LWPOLYLINE
5
198
100
AcDbEntity
8
0
100
AcDbPolyline
90
12
70
1
43
0.0
10
-14.240413774236933
20
-9.9968938536964913
10
-28.382549397967871
20
4.1452417700344739
10
-19.930184147928227
20
22.271397503667636
10
-38.056339881561385
20
30.723762753707284
10
-46.508705131601033
20
12.597607020074125
10
-44.765590351675172
20
32.521500988473079
10
-64.689484320074115
20
34.26461576839894
10
-66.43259909999999
20
14.34072179999999
10
-46.508705131601033
20
12.597607020074125
10
-28.382549397967871
20
4.1452417700344739
10
-14.240413774236906
20
18.287377393765411
10
-0.09827815050596822
20
4.1452417700344473
0
CIRCLE
5
199
100
AcDbEntity
8
0
100
AcDbCircle
10
-33.620099099999983
20
35.753580560352006
30
0
40
1.5
210
0
220
0
230
1
0
CIRCLE
5
200
100
AcDbEntity
8
0
100
AcDbCircle
10
-33.620099099999983
20
67.753392021537991
30
0
40
1.4999999999999967
210
0
220
0
230
1
0
LINE
5
201
100
AcDbEntity
8
0
100
AcDbLine
10
2.3799009000000129
20
6.6234208205404235
30
0
11
-0.09827815050596822
21
4.1452417700344473
31
0
0
LWPOLYLINE
5
202
100
AcDbEntity
8
0
100
AcDbPolyline
90
4
70
1
43
0.0
10
-45.62009909999999
20
60.203221800000001
10
-45.62009909999999
20
74.203221800000009
10
-59.62009909999999
20
74.203221800000009
10
-59.62009909999999
20
60.203221800000001
0
LWPOLYLINE
5
203
100
AcDbEntity
8
0
100
AcDbPolyline
90
4
70
1
43
0.0
10
-4.3409188376252512
20
4.145241770034449
10
-14.240413774236931
20
-5.7542531665772074
10
-24.139908710848587
20
4.1452417700344713
10
-14.240413774236911
20
14.044736706646127
0
LINE
5
204
100
AcDbEntity
8
0
100
AcDbLine
10
-33.620099099999983
20
67.753392021537991
30
0
11
-33.620099099999983
21
71.753392021537991
31
0
0
LINE
5
205
100
AcDbEntity
8
0
100
AcDbLine
10
-35.62009909999999
20
94.253392021537991
30
0
11
-35.62009909999999
21
74.253392021537991
31
0
0
LINE
5
206
100
AcDbEntity
8
0
100
AcDbLine
10
2.3800894388140259
20
71.753392021537991
30
0
11
-1.6199105611859743
21
71.753392021537991
31
0
0
LINE
5
207
100
AcDbEntity
8
0
100
AcDbLine
10
2.3799009000000115
20
31.753392021537987
30
0
11
2.3799009000000115
21
35.753392021537984
31
0
0
CIRCLE
5
208
100
AcDbEntity
8
0
100
AcDbCircle
10
-40.170131498013845
20
90.253392021537991
30
0
40
1.5000000000000078
210
0
220
0
230
1
0
CIRCLE
5
209
100
AcDbEntity
8
0
100
AcDbCircle
10
-1.6199105611859743
20
67.753392021537991
30
0
40
1.5000000000000004
210
0
220
0
230
1
0
LINE
5
210
100
AcDbEntity
8
0
100
AcDbLine
10
-9.9200990999999856
20
82.053392021537974
30
0
11
-9.9200990999999856
21
94.253392021537991
31
0
0
LINE
5
211
100
AcDbEntity
8
0
100
AcDbLine
10
-18.120099099999987
20
94.253392021537991
30
0
11
-16.120099099999987
21
94.253392021537991
31
0
0
LINE
5
212
100
AcDbEntity
8
0
100
AcDbLine
10
-16.120099099999987
20
82.053392021537974
30
0
11
-9.9200990999999856
21
82.053392021537974
31
0
0
LINE
5
213
100
AcDbEntity
8
0
100
AcDbLine
10
-37.62009909999999
20
94.253392021537991
30
0
11
-35.62009909999999
21
94.253392021537991
31
0
0
LINE
5
214
100
AcDbEntity
8
0
100
AcDbLine
10
-16.120099099999987
20
94.253392021537991
30
0
11
-16.120099099999987
21
82.053392021537974
31
0
0
LINE
5
215
100
AcDbEntity
8
0
100
AcDbLine
10
-1.6199105611859743
20
67.753392021537991
30
0
11
-33.620099099999983
21
67.753392021537991
31
0
0
LWPOLYLINE
5
216
100
AcDbEntity
8
0
100
AcDbPolyline
90
4
70
1
43
0.0
10
-64.670099099999987
20
60.203221800000001
10
-64.670099099999987
20
74.203221800000009
10
-78.670099099999987
20
74.203221800000009
10
-78.670099099999987
20
60.203221800000001
0
LWPOLYLINE
5
217
100
AcDbEntity
8
0
100
AcDbPolyline
90
4
70
1
43
0.0
10
-64.670099099999987
20
79.253221800000006
10
-64.670099099999987
20
93.253221800000006
10
-78.670099099999987
20
93.253221800000006
10
-78.670099099999987
20
79.253221800000006
0
LWPOLYLINE
5
218
100
AcDbEntity
8
0
100
AcDbPolyline
90
4
70
1
43
0.0
10
-23.916962295479145
20
20.820328931128607
10
-29.833617970506904
20
8.132019917585394
10
-42.521926984050111
20
14.048675592613151
10
-36.605271309022356
20
26.736984606156362
0
LINE
5
219
100
AcDbEntity
8
0
100
AcDbLine
10
-40.170131498013845
20
90.253392021537991
30
0
11
2.3799009000000115
21
90.253392021537991
31
0
0
LINE
5
220
100
AcDbEntity
8
0
100
AcDbLine
10
-17.62009909999999
20
35.753486290944998
30
0
11
-17.620087316324113
21
37.753486290910288
31
0
0
LWPOLYLINE
5
221
100
AcDbEntity
8
0
100
AcDbPolyline
90
4
70
1
43
0.0
10
-64.670099099999987
20
79.253221800000006
10
-64.670099099999987
20
93.253221800000006
10
-78.670099099999987
20
93.253221800000006
10
-78.670099099999987
20
79.253221800000006
0
LINE
5
222
100
AcDbEntity
8
0
100
AcDbLine
10
-1.6200990999999887
20
35.753392021537991
30
0
11
-33.620099099999983
21
35.753580560352006
31
0
0
LWPOLYLINE
5
223
100
AcDbEntity
8
0
100
AcDbPolyline
90
4
70
1
43
0.0
10
-61.962367441803153
20
31.014564456150218
10
-48.015641663923887
20
29.794384110202113
10
-49.235822009871988
20
15.847658332322849
10
-63.182547787751261
20
17.067838678270952
0
LWPOLYLINE
5
224
100
AcDbEntity
8
0
100
AcDbPolyline
90
4
70
1
43
0.0
10
-66.43259909999999
20
34.34072179999999
10
-66.43259909999999
20
14.34072179999999
10
-86.43259909999999
20
14.340721800000019
10
-86.43259909999999
20
34.340721800000019
0
LINE
5
225
100
AcDbEntity
8
0
100
AcDbLine
10
2.3799009000000115
20
31.753392021537987
30
0
11
-37.62009909999999
21
31.753392021537987
31
0
0
LWPOLYLINE
5
226
100
AcDbEntity
8
0
100
AcDbPolyline
90
4
70
1
43
0.0
10
-102.77009909999998
20
84.015721800000023
10
-102.77009909999998
20
98.015721800000009
10
-116.77009909999998
20
98.015721800000009
10
-116.77009909999998
20
84.015721800000023
0
LWPOLYLINE
5
227
100
AcDbEntity
8
0
100
AcDbPolyline
90
4
70
1
43
0.0
10
-142.18161933444168
20
81.638352650024416
10
-140.23319593512522
20
67.774599685657378
10
-126.36944297767899
20
69.723023134218053
10
-128.31786642623968
20
83.586776091664277
0
LINE
5
228
100
AcDbEntity
8
0
100
AcDbLine
10
-40.170131498013845
20
94.253392021537991
30
0
11
-40.170131498013845
21
90.253392021537991
31
0
0
LINE
5
229
100
AcDbEntity
8
0
100
AcDbLine
10
2.3800894388140259
20
71.753392021537991
30
0
11
-37.62009909999999
21
71.753392021537991
31
0
0
LWPOLYLINE
5
230
100
AcDbEntity
8
0
100
AcDbPolyline
90
4
70
1
43
0.0
10
-45.62009909999999
20
79.253221800000006
10
-45.62009909999999
20
93.253221800000006
10
-59.62009909999999
20
93.253221800000006
10
-59.62009909999999
20
79.253221800000006
0
LINE
5
231
100
AcDbEntity
8
0
100
AcDbLine
10
2.3799009000000115
20
35.753392021537984
30
0
11
-1.6200990999999887
21
35.753392021537991
31
0
0
CIRCLE
5
232
100
AcDbEntity
8
0
100
AcDbCircle
10
-1.6199105611859743
20
90.253392021537991
30
0
40
1.4999999999999938
210
0
220
0
230
1
0
LINE
5
233
100
AcDbEntity
8
0
100
AcDbLine
10
-33.620099099999983
20
35.753580560352006
30
0
11
-33.620099099999983
21
67.753392021537991
31
0
0
LWPOLYLINE
5
234
100
AcDbEntity
8
0
100
AcDbPolyline
90
4
70
1
43
0.0
10
-125.66661877007462
20
64.722169349340788
10
-139.53037173444167
20
62.77374595002442
10
-137.5819483351253
20
48.909992985657354
10
-123.71819537075825
20
50.858416384973715
0
LWPOLYLINE
5
235
100
AcDbEntity
8
0
100
AcDbPolyline
90
4
70
1
43
0.0
10
-116.77009909999998
20
78.965721800000011
10
-116.77009909999998
20
64.965721799999997
10
-102.77009909999998
20
64.965721799999997
10
-102.77009909999998
20
78.965721800000011
0
LWPOLYLINE
5
236
100
AcDbEntity
8
0
100
AcDbPolyline
90
4
70
1
43
0.0
10
-97.720099099999999
20
83.7282218
10
-83.720099099999999
20
83.7282218
10
-83.720099099999999
20
69.7282218
10
-97.720099099999999
20
69.7282218
0
CIRCLE
5
237
100
AcDbEntity
8
0
100
AcDbCircle
10
-17.62009909999999
20
51.753392021537991
30
0
40
17.5
210
0
220
0
230
1
0
LINE
5
238
100
AcDbEntity
8
0
100
AcDbLine
10
2.3799009000000115
20
31.753392021537987
30
0
11
2.3799009000000115
21
94.253392021537991
31
0
0
LINE
5
239
100
AcDbEntity
8
0
100
AcDbLine
10
-37.62009909999999
20
71.753392021537991
30
0
11
2.3799009000000115
21
31.753392021537987
31
0
0
LWPOLYLINE
5
240
100
AcDbEntity
8
0
100
AcDbPolyline
90
4
70
1
43
0.0
10
-97.720099099999999
20
102.77822180000001
10
-97.720099099999999
20
88.778221800000026
10
-83.720099099999999
20
88.778221800000026
10
-83.720099099999999
20
102.77822180000001
0
LWPOLYLINE
5
241
100
AcDbEntity
8
0
100
AcDbPolyline
90
4
70
1
43
0.0
10
-97.720099099999999
20
64.678221800000003
10
-83.720099099999999
20
64.678221800000003
10
-83.720099099999999
20
50.678221800000003
10
-97.720099099999999
20
50.678221800000003
0
LINE
5
242
100
AcDbEntity
8
0
100
AcDbLine
10
-98.720163896027699
20
103.778392021538
30
0
11
-82.720163896027699
21
103.778392021538
31
0
0
LINE
5
243
100
AcDbEntity
8
0
100
AcDbLine
10
-102.77009909999998
20
98.015721800000009
30
0
11
-102.77009909999998
21
84.015721800000009
31
0
0
LINE
5
244
100
AcDbEntity
8
0
100
AcDbLine
10
-33.620099099999983
20
35.753580560352006
30
0
11
-40.12009909999999
21
35.753580560352006
31
0
0
LINE
5
245
100
AcDbEntity
8
0
100
AcDbLine
10
-143.31106059660107
20
82.489447605840638
30
0
11
-117.76016389602771
21
86.080392021537989
31
0
0
LWPOLYLINE
5
246
100
AcDbEntity
8
0
100
AcDbPolyline
90
4
70
1
43
0.0
10
-59.62009909999999
20
55.153221799999997
10
-59.62009909999999
20
41.153221799999997
10
-45.62009909999999
20
41.153221799999997
10
-45.62009909999999
20
55.153221799999997
0
LINE
5
247
100
AcDbEntity
8
0
100
AcDbLine
10
-1.6200990999999887
20
35.753392021537991
30
0
11
-1.6199105611859743
21
67.753392021537991
31
0
0
LINE
5
248
100
AcDbEntity
8
0
100
AcDbLine
10
-139.03523769999998
20
62.843332500000002
30
0
11
-139.53037173444167
21
62.77374595002442
31
0
0
LINE
5
249
100
AcDbEntity
8
0
100
AcDbLine
10
-117.76016389602771
20
99.015392021537991
30
0
11
-98.720163896027699
21
99.015392021537991
31
0
0
LINE
5
250
100
AcDbEntity
8
0
100
AcDbLine
10
-37.62009909999999
20
31.753392021537987
30
0
11
-37.62009909999999
21
94.253392021537991
31
0
0
LINE
5
251
100
AcDbEntity
8
0
100
AcDbLine
10
-37.62009909999999
20
55.153221799999997
30
0
11
2.3799009000000115
21
55.153221799999997
31
0
0
LINE
5
252
100
AcDbEntity
8
0
100
AcDbLine
10
-18.120099099999987
20
74.253392021537991
30
0
11
-18.120099099999987
21
71.753392021537991
31
0
0
LINE
5
253
100
AcDbEntity
8
0
100
AcDbLine
10
-17.530077593258465
20
34.253623562260472
30
0
11
-17.530077593258465
21
31.753623562260476
31
0
0
LINE
5
254
100
AcDbEntity
8
0
100
AcDbLine
10
-1.6199105611859743
20
71.753392021537991
30
0
11
-1.6199105611859743
21
67.753392021537991
31
0
0
LINE
5
255
100
AcDbEntity
8
0
100
AcDbLine
10
-42.62009909999999
20
38.153221799999997
30
0
11
-37.62009909999999
21
38.153221799999997
31
0
0
LINE
5
256
100
AcDbEntity
8
0
100
AcDbLine
10
-141.68648529999999
20
81.707939200000013
30
0
11
-142.18161933444168
21
81.638352650024416
31
0
0
CIRCLE
5
257
100
AcDbEntity
8
0
100
AcDbCircle
10
-40.12009909999999
20
35.753580560352006
30
0
40
1.5000000000000016
210
0
220
0
230
1
0
LINE
5
258
100
AcDbEntity
8
0
100
AcDbLine
10
-40.12009909999999
20
35.753580560352006
30
0
11
-40.12009909999999
21
38.153221799999997
31
0
0
LINE
5
259
100
AcDbEntity
8
0
100
AcDbLine
10
-18.120099099999987
20
74.253392021537991
30
0
11
-18.120099099999987
21
94.253392021537991
31
0
0
LINE
5
260
100
AcDbEntity
8
0
100
AcDbLine
10
-83.720099099999999
20
102.77822180000001
30
0
11
-83.720099099999999
21
88.778221800000011
31
0
0
LINE
5
261
100
AcDbEntity
8
0
100
AcDbLine
10
-69.93259909999999
20
31.340721799999997
30
0
11
-69.432599099999976
21
31.340721799999997
31
0
0
LINE
5
262
100
AcDbEntity
8
0
100
AcDbLine
10
-143.17188749313246
20
81.49917953745161
30
0
11
-143.31106059660107
21
82.489447605840638
31
0
0
LINE
5
263
100
AcDbEntity
8
0
100
AcDbLine
10
2.3799009000000115
20
31.753392021537987
30
0
11
2.3799009000000129
21
6.6234208205404235
31
0
0
LINE
5
264
100
AcDbEntity
8
0
100
AcDbLine
10
-117.76016389602771
20
86.080392021537989
30
0
11
-117.76016389602771
21
99.015392021537991
31
0
0
CIRCLE
5
265
100
AcDbEntity
8
0
100
AcDbCircle
10
-1.6200990999999887
20
35.753392021537991
30
0
40
1.5000000000000016
210
0
220
0
230
1
0
LINE
5
266
100
AcDbEntity
8
0
100
AcDbLine
10
-117.67862426425458
20
29.440524778177235
30
0
11
-86.43259909999999
21
29.440524778177235
31
0
0
LWPOLYLINE
5
267
100
AcDbEntity
8
0
100
AcDbPolyline
90
4
70
1
43
0.0
10
-137.48398564192178
20
26.657062779153762
10
-117.67862426425458
20
29.440524778177235
10
-120.46208626327805
20
49.245886155844467
10
-140.26744764094528
20
46.462424156820973
0
LINE
5
268
100
AcDbEntity
8
0
100
AcDbLine
10
-120.1155991
20
32.340721800000011
30
0
11
-121.06694777075818
21
31.993809684973797
31
0
0
LINE
5
269
100
AcDbEntity
8
0
100
AcDbLine
10
-134.93070073512524
20
30.045386285657365
30
0
11
-135.9209688040086
21
29.906213185706193
31
0
0
LWPOLYLINE
5
270
100
AcDbEntity
8
0
100
AcDbPolyline
90
4
70
1
43
0.0
10
-136.87912413444167
20
43.909139250024424
10
-134.93070073512524
20
30.045386285657365
10
-121.06694777075818
20
31.993809684973797
10
-123.01537117007462
20
45.857562649340863
0
LINE
5
271
100
AcDbEntity
8
0
100
AcDbLine
10
-121.06694777075818
20
31.993809684973797
30
0
11
-120.92777467080701
21
31.003541616090438
31
0
0
LINE
5
272
100
AcDbEntity
8
0
100
AcDbLine
10
-136.38399009999998
20
43.978725800000007
30
0
11
-136.87912413444167
21
43.909139250024424
31
0
0
LINE
5
273
100
AcDbEntity
8
0
100
AcDbLine
10
-86.43259909999999
20
12.597607020074125
30
0
11
-86.43259909999999
21
14.340721800000019
31
0
0
LINE
5
274
100
AcDbEntity
8
0
100
AcDbLine
10
-82.720163896027699
20
103.778392021538
30
0
11
-82.720163896027699
21
94.253392021537991
31
0
0
LINE
5
275
100
AcDbEntity
8
0
100
AcDbLine
10
-98.720163896027699
20
99.015392021537991
30
0
11
-98.720163896027699
21
103.778392021538
31
0
0
LINE
5
276
100
AcDbEntity
8
0
100
AcDbLine
10
-46.508705131601033
20
12.597607020074125
30
0
11
-86.43259909999999
21
12.597607020074125
31
0
0
LINE
5
277
100
AcDbEntity
8
0
100
AcDbLine
10
-135.9209688040086
20
29.906213185706193
30
0
11
-143.17188749313246
21
81.49917953745161
31
0
0
LINE
5
278
100
AcDbEntity
8
0
100
AcDbLine
10
-82.720163896027699
20
94.253392021537991
30
0
11
2.3799009000000115
21
94.253392021537991
31
0
0
LINE
5
279
100
AcDbEntity
8
0
100
AcDbLine
10
4.3799009000000115
20
94.253392021537991
30
0
11
4.3799009000000115
21
78.000001162290573
31
0
0
LWPOLYLINE
5
280
100
AcDbEntity
8
0
100
AcDbPolyline
90
4
70
1
43
0.0
10
-42.62009909999999
20
38.153221799999997
10
-42.62009909999999
20
57.203221800000001
10
-62.62009909999999
20
57.203221800000001
10
-62.62009909999999
20
38.153221799999997
0
LINE
5
281
100
AcDbEntity
8
0
100
AcDbLine
10
-42.62009909999999
20
57.203221800000001
30
0
11
-42.62009909999999
21
58.153221799999997
31
0
0
LWPOLYLINE
5
282
100
AcDbEntity
8
0
100
AcDbPolyline
90
4
70
1
43
0.0
10
-42.62009909999999
20
58.153221799999997
10
-42.62009909999999
20
76.253221800000006
10
-62.62009909999999
20
76.253221800000006
10
-62.62009909999999
20
58.153221799999997
0
LINE
5
283
100
AcDbEntity
8
0
100
AcDbLine
10
-42.62009909999999
20
76.253221800000006
30
0
11
-42.62009909999999
21
77.203221799999994
31
0
0
LWPOLYLINE
5
284
100
AcDbEntity
8
0
100
AcDbPolyline
90
4
70
1
43
0.0
10
-42.62009909999999
20
77.203221799999994
10
-42.62009909999999
20
96.253221800000006
10
-62.62009909999999
20
96.253221800000006
10
-62.62009909999999
20
77.203221799999994
0
LINE
5
285
100
AcDbEntity
8
0
100
AcDbLine
10
-62.62009909999999
20
77.203221799999994
30
0
11
-62.62009909999999
21
76.253221800000006
31
0
0
LINE
5
286
100
AcDbEntity
8
0
100
AcDbLine
10
-62.62009909999999
20
58.153221799999997
30
0
11
-62.62009909999999
21
57.203221800000001
31
0
0
LWPOLYLINE
5
287
100
AcDbEntity
8
0
100
AcDbPolyline
90
4
70
1
43
0.0
10
-145.56994283946224
20
84.191637546268652
10
-142.91869524094525
20
65.327030856820997
10
-123.11333386327804
20
68.11049285584437
10
-125.76458153147848
20
86.975099607237198
0
LINE
5
288
100
AcDbEntity
8
0
100
AcDbLine
10
-142.91869524094525
20
65.327030856820997
30
0
11
-142.78648084043874
21
64.386276168601427
31
0
0
LWPOLYLINE
5
289
100
AcDbEntity
8
0
100
AcDbPolyline
90
4
70
1
43
0.0
10
-142.78648084043874
20
64.386276168601427
10
-140.1352332419219
20
45.521669479153758
10
-120.32987186425467
20
48.305131478177131
10
-122.98111946210608
20
67.169738239456876
0
LINE
5
290
100
AcDbEntity
8
0
100
AcDbLine
10
-122.98111946210608
20
67.169738239456876
30
0
11
-123.11333386327804
21
68.11049285584437
31
0
0
LWPOLYLINE
5
291
100
AcDbEntity
8
0
100
AcDbPolyline
90
20
70
1
43
0.0
10
-81.670099099999987
20
96.253221800000006
10
-80.720099099999985
20
96.253221800000006
10
-80.720099099999985
20
85.778221800000011
10
-81.670099099999987
20
85.778221800000011
10
-99.770099099999982
20
85.778221800000011
10
-99.770099099999982
20
101.01572180000002
10
-100.7200991
20
101.01572180000002
10
-100.7200991
20
85.778221800000011
10
-99.770099099999982
20
85.778221800000011
10
-99.770099099999982
20
81.015721800000023
10
-119.7700991
20
81.015721800000023
10
-119.7700991
20
101.01572180000002
10
-100.7200991
20
101.01572180000002
10
-100.7200991
20
105.77822180000001
10
-80.720099099999985
20
105.77822180000001
10
-80.720099099999985
20
96.253221800000006
10
-61.670099099999987
20
96.253221800000006
10
-61.670099099999987
20
76.253221800000006
10
-81.670099099999987
20
76.253221800000006
10
-81.670099099999987
20
85.778221800000011
0
LWPOLYLINE
5
292
100
AcDbEntity
8
0
100
AcDbPolyline
90
20
70
1
43
0.0
10
-81.670099099999987
20
96.253221800000006
10
-80.720099099999985
20
96.253221800000006
10
-80.720099099999985
20
85.778221800000011
10
-81.670099099999987
20
85.778221800000011
10
-99.770099099999982
20
85.778221800000011
10
-99.770099099999982
20
101.01572180000002
10
-100.7200991
20
101.01572180000002
10
-100.7200991
20
85.778221800000011
10
-99.770099099999982
20
85.778221800000011
10
-99.770099099999982
20
81.015721800000023
10
-119.7700991
20
81.015721800000023
10
-119.7700991
20
101.01572180000002
10
-100.7200991
20
101.01572180000002
10
-100.7200991
20
105.77822180000001
10
-80.720099099999985
20
105.77822180000001
10
-80.720099099999985
20
96.253221800000006
10
-61.670099099999987
20
96.253221800000006
10
-61.670099099999987
20
76.253221800000006
10
-81.670099099999987
20
76.253221800000006
10
-81.670099099999987
20
85.778221800000011
0
LWPOLYLINE
5
293
100
AcDbEntity
8
0
100
AcDbPolyline
90
4
70
1
43
0.0
10
-145.56994283946224
20
84.191637546268652
10
-142.91869524094525
20
65.327030856820997
10
-123.11333386327804
20
68.11049285584437
10
-125.76458153147848
20
86.975099607237198
0
LINE
5
294
100
AcDbEntity
8
0
100
AcDbLine
10
-142.91869524094525
20
65.327030856820997
30
0
11
-142.78648084043874
21
64.386276168601427
31
0
0
LWPOLYLINE
5
295
100
AcDbEntity
8
0
100
AcDbPolyline
90
4
70
1
43
0.0
10
-142.78648084043874
20
64.386276168601427
10
-140.1352332419219
20
45.521669479153758
10
-120.32987186425467
20
48.305131478177131
10
-122.98111946210608
20
67.169738239456876
0
LINE
5
296
100
AcDbEntity
8
0
100
AcDbLine
10
-122.98111946210608
20
67.169738239456876
30
0
11
-123.11333386327804
21
68.11049285584437
31
0
0
LWPOLYLINE
5
297
100
AcDbEntity
8
0
100
AcDbPolyline
90
4
70
1
43
0.0
10
-42.62009909999999
20
38.153221799999997
10
-42.62009909999999
20
57.203221800000001
10
-62.62009909999999
20
57.203221800000001
10
-62.62009909999999
20
38.153221799999997
0
LINE
5
298
100
AcDbEntity
8
0
100
AcDbLine
10
-42.62009909999999
20
57.203221800000001
30
0
11
-42.62009909999999
21
58.153221799999997
31
0
0
LWPOLYLINE
5
299
100
AcDbEntity
8
0
100
AcDbPolyline
90
4
70
1
43
0.0
10
-42.62009909999999
20
58.153221799999997
10
-42.62009909999999
20
76.253221800000006
10
-62.62009909999999
20
76.253221800000006
10
-62.62009909999999
20
58.153221799999997
0
LINE
5
300
100
AcDbEntity
8
0
100
AcDbLine
10
-42.62009909999999
20
76.253221800000006
30
0
11
-42.62009909999999
21
77.203221799999994
31
0
0
LWPOLYLINE
5
301
100
AcDbEntity
8
0
100
AcDbPolyline
90
4
70
1
43
0.0
10
-42.62009909999999
20
77.203221799999994
10
-42.62009909999999
20
96.253221800000006
10
-62.62009909999999
20
96.253221800000006
10
-62.62009909999999
20
77.203221799999994
0
LINE
5
302
100
AcDbEntity
8
0
100
AcDbLine
10
-62.62009909999999
20
77.203221799999994
30
0
11
-62.62009909999999
21
76.253221800000006
31
0
0
LINE
5
303
100
AcDbEntity
8
0
100
AcDbLine
10
-62.62009909999999
20
58.153221799999997
30
0
11
-62.62009909999999
21
57.203221800000001
31
0
0
LWPOLYLINE
5
304
100
AcDbEntity
8
0
100
AcDbPolyline
90
4
70
1
43
0.0
10
90.429900900000021
20
38.153221799999997
10
70.429900900000021
20
38.153221799999997
10
70.429900900000021
20
58.153221799999997
10
90.429900900000021
20
58.153221799999997
0
LWPOLYLINE
5
305
100
AcDbEntity
8
0
100
AcDbPolyline
90
4
70
1
43
0.0
10
87.429900900000007
20
60.203221800000001
10
73.429900900000021
20
60.203221800000001
10
73.429900900000021
20
74.203221800000009
10
87.429900900000007
20
74.203221800000009
0
LWPOLYLINE
5
306
100
AcDbEntity
8
0
100
AcDbPolyline
90
4
70
1
43
0.0
10
90.429900900000021
20
38.153221799999997
10
70.429900900000021
20
38.153221799999997
10
70.429900900000021
20
58.153221799999997
10
90.429900900000021
20
58.153221799999997
0
LWPOLYLINE
5
307
100
AcDbEntity
8
0
100
AcDbPolyline
90
4
70
1
43
0.0
10
87.429900900000007
20
93.253221800000006
10
73.429900900000021
20
93.253221800000006
10
73.429900900000021
20
79.253221800000006
10
87.429900900000007
20
79.253221800000006
0
LINE
5
308
100
AcDbEntity
8
0
100
AcDbLine
10
44.37990090000001
20
74.253392021537991
30
0
11
26.879900900000013
21
74.253392021537991
31
0
0
LWPOLYLINE
5
309
100
AcDbEntity
8
0
100
AcDbPolyline
90
4
70
1
43
0.0
10
87.429900900000007
20
41.153221799999997
10
73.429900900000021
20
41.153221799999997
10
73.429900900000021
20
55.153221799999997
10
87.429900900000007
20
55.153221799999997
0
LINE
5
310
100
AcDbEntity
8
0
100
AcDbLine
10
46.379900900000017
20
55.153221799999997
30
0
11
6.3799009000000115
21
55.153221799999997
31
0
0
LWPOLYLINE
5
311
100
AcDbEntity
8
0
100
AcDbPolyline
90
4
70
1
43
0.0
10
87.429900900000007
20
55.153221799999997
10
73.429900900000021
20
55.153221799999997
10
73.429900900000021
20
41.153221799999997
10
87.429900900000007
20
41.153221799999997
0
LINE
5
312
100
AcDbEntity
8
0
100
AcDbLine
10
26.879900900000013
20
74.253392021537991
30
0
11
26.879900900000013
21
94.253392021537991
31
0
0
LINE
5
313
100
AcDbEntity
8
0
100
AcDbLine
10
46.379900900000017
20
55.153221799999997
30
0
11
6.3799009000000115
21
55.153221799999997
31
0
0
LINE
5
314
100
AcDbEntity
8
0
100
AcDbLine
10
26.879900900000013
20
74.253392021537991
30
0
11
26.879900900000013
21
94.253392021537991
31
0
0
LINE
5
315
100
AcDbEntity
8
0
100
AcDbLine
10
26.879900900000013
20
74.253392021537991
30
0
11
26.879900900000013
21
71.753392021537991
31
0
0
LINE
5
316
100
AcDbEntity
8
0
100
AcDbLine
10
26.879900900000013
20
94.253392021537991
30
0
11
24.87990090000001
21
94.253392021537991
31
0
0
LINE
5
317
100
AcDbEntity
8
0
100
AcDbLine
10
48.929933298013864
20
90.253392021537991
30
0
11
6.3799009000000115
21
90.253392021537991
31
0
0
LINE
5
318
100
AcDbEntity
8
0
100
AcDbLine
10
6.3797123611859972
20
71.753392021537991
30
0
11
46.379900900000017
21
71.753392021537991
31
0
0
LINE
5
319
100
AcDbEntity
8
0
100
AcDbLine
10
10.379712361185998
20
67.753392021537991
30
0
11
42.37990090000001
21
67.753392021537991
31
0
0
LWPOLYLINE
5
320
100
AcDbEntity
8
0
100
AcDbPolyline
90
14
70
1
43
0.0
10
75.19240090000001
20
14.340721799999994
10
95.192400900000024
20
14.34072180000002
10
95.192400900000024
20
12.597607020074122
10
55.26850693160106
20
12.597607020074122
10
37.142351197967898
20
4.1452417700344668
10
23.000215574236957
20
-9.9968938536964913
10
8.8580799505059904
20
4.145241770034449
10
23.000215574236933
20
18.287377393765407
10
37.142351197967898
20
4.1452417700344668
10
28.68998594792825
20
22.271397503667636
10
46.816141681561412
20
30.723762753707284
10
55.26850693160106
20
12.597607020074122
10
53.525392151675192
20
32.521500988473079
10
73.449286120074149
20
34.26461576839894
0
LINE
5
321
100
AcDbEntity
8
0
100
AcDbLine
10
10.379712361185998
20
67.753392021537991
30
0
11
42.37990090000001
21
67.753392021537991
31
0
0
LWPOLYLINE
5
322
100
AcDbEntity
8
0
100
AcDbPolyline
90
4
70
1
43
0.0
10
87.429900900000007
20
79.253221800000006
10
73.429900900000021
20
79.253221800000006
10
73.429900900000021
20
93.253221800000006
10
87.429900900000007
20
93.253221800000006
0
LWPOLYLINE
5
323
100
AcDbEntity
8
0
100
AcDbPolyline
90
4
70
1
43
0.0
10
87.429900900000007
20
41.153221799999997
10
73.429900900000021
20
41.153221799999997
10
73.429900900000021
20
55.153221799999997
10
87.429900900000007
20
55.153221799999997
0
LINE
5
324
100
AcDbEntity
8
0
100
AcDbLine
10
91.479965696027733
20
94.253392021537991
30
0
11
6.3799009000000115
21
94.253392021537991
31
0
0
LINE
5
325
100
AcDbEntity
8
0
100
AcDbLine
10
44.37990090000001
20
74.253392021537991
30
0
11
26.879900900000013
21
74.253392021537991
31
0
0
LWPOLYLINE
5
326
100
AcDbEntity
8
0
100
AcDbPolyline
90
6
70
1
43
0.0
10
90.429900900000021
20
76.253221800000006
10
70.429900900000021
20
76.253221800000006
10
70.429900900000021
20
96.253221800000006
10
89.479900900000018
20
96.253221800000006
10
89.479900900000018
20
85.778221800000011
10
90.429900900000021
20
85.778221800000011
0
LWPOLYLINE
5
327
100
AcDbEntity
8
0
100
AcDbPolyline
90
4
70
1
43
0.0
10
92.19240090000001
20
31.340721800000011
10
78.19240090000001
20
31.340721799999997
10
78.19240090000001
20
17.34072179999999
10
92.19240090000001
20
17.340721800000019
0
LINE
5
328
100
AcDbEntity
8
0
100
AcDbLine
10
10.379900900000012
20
35.753392021537991
30
0
11
10.379712361185998
21
67.753392021537991
31
0
0
LWPOLYLINE
5
329
100
AcDbEntity
8
0
100
AcDbPolyline
90
4
70
1
43
0.0
10
132.47799717075827
20
50.858416384973715
10
134.42642057007464
20
64.722169349340788
10
148.29017353444169
20
62.77374595002442
10
146.34175013512535
20
48.909992985657354
0
LWPOLYLINE
5
330
100
AcDbEntity
8
0
100
AcDbPolyline
90
4
70
1
43
0.0
10
128.52990090000003
20
62.9157218
10
128.52990090000003
20
42.9157218
10
108.5299009
20
42.9157218
10
108.5299009
20
62.9157218
0
LINE
5
331
100
AcDbEntity
8
0
100
AcDbLine
10
46.379900900000017
20
71.753392021537991
30
0
11
6.3799009000000115
21
31.753392021537987
31
0
0
LWPOLYLINE
5
332
100
AcDbEntity
8
0
100
AcDbPolyline
90
4
70
1
43
0.0
10
71.37990090000001
20
76.253221800000006
10
71.37990090000001
20
58.153221799999997
10
51.379900900000017
20
58.153221799999997
10
51.379900900000017
20
76.253221800000006
0
LWPOLYLINE
5
333
100
AcDbEntity
8
0
100
AcDbPolyline
90
4
70
1
43
0.0
10
87.429900900000007
20
74.203221800000009
10
73.429900900000021
20
74.203221800000009
10
73.429900900000021
20
60.203221800000001
10
87.429900900000007
20
60.203221800000001
0
LWPOLYLINE
5
334
100
AcDbEntity
8
0
100
AcDbPolyline
90
6
70
1
43
0.0
10
90.429900900000021
20
76.253221800000006
10
70.429900900000021
20
76.253221800000006
10
70.429900900000021
20
96.253221800000006
10
89.479900900000018
20
96.253221800000006
10
90.429900900000021
20
96.253221800000006
10
90.429900900000021
20
85.778221800000011
0
LINE
5
335
100
AcDbEntity
8
0
100
AcDbLine
10
46.379900900000017
20
31.753392021537987
30
0
11
46.379900900000017
21
94.253392021537991
31
0
0
LWPOLYLINE
5
336
100
AcDbEntity
8
0
100
AcDbPolyline
90
4
70
1
43
0.0
10
87.429900900000007
20
74.203221800000009
10
73.429900900000021
20
74.203221800000009
10
73.429900900000021
20
60.203221800000001
10
87.429900900000007
20
60.203221800000001
0
LINE
5
337
100
AcDbEntity
8
0
100
AcDbLine
10
151.54628264043876
20
64.386276168601427
30
0
11
148.89503504192191
21
45.521669479153758
31
0
0
LWPOLYLINE
5
338
100
AcDbEntity
8
0
100
AcDbPolyline
90
12
70
1
43
0.0
10
51.379900900000017
20
38.153221799999997
10
51.379900900000017
20
57.203221800000001
10
51.379900900000017
20
58.153221799999997
10
51.379900900000017
20
76.253221800000006
10
51.379900900000017
20
77.203221799999994
10
51.379900900000017
20
96.253221800000006
10
71.37990090000001
20
96.253221800000006
10
71.37990090000001
20
77.203221799999994
10
71.37990090000001
20
76.253221800000006
10
71.37990090000001
20
58.153221799999997
10
71.37990090000001
20
57.203221800000001
10
71.37990090000001
20
38.153221799999997
0
LINE
5
339
100
AcDbEntity
8
0
100
AcDbLine
10
91.479965696027733
20
94.253392021537991
30
0
11
6.3799009000000115
21
94.253392021537991
31
0
0
LINE
5
340
100
AcDbEntity
8
0
100
AcDbLine
10
95.192400900000024
20
34.340721800000011
30
0
11
75.19240090000001
21
34.340721799999997
31
0
0
LWPOLYLINE
5
341
100
AcDbEntity
8
0
100
AcDbPolyline
90
4
70
1
43
0.0
10
73.429900900000021
20
41.153221799999997
10
73.429900900000021
20
55.153221799999997
10
87.429900900000007
20
55.153221799999997
10
87.429900900000007
20
41.153221799999997
0
LWPOLYLINE
5
342
100
AcDbEntity
8
0
100
AcDbPolyline
90
4
70
1
43
0.0
10
87.429900900000007
20
60.203221800000001
10
73.429900900000021
20
60.203221800000001
10
73.429900900000021
20
74.203221800000009
10
87.429900900000007
20
74.203221800000009
0
LWPOLYLINE
5
343
100
AcDbEntity
8
0
100
AcDbPolyline
90
4
70
1
43
0.0
10
92.19240090000001
20
31.340721800000011
10
78.19240090000001
20
31.340721799999997
10
78.19240090000001
20
17.34072179999999
10
92.19240090000001
20
17.340721800000019
0
LWPOLYLINE
5
344
100
AcDbEntity
8
0
100
AcDbPolyline
90
16
70
1
43
0.0
10
95.192400900000024
20
34.340721800000011
10
75.19240090000001
20
34.340721799999997
10
75.19240090000001
20
14.340721799999994
10
73.449286120074149
20
34.26461576839894
10
53.525392151675192
20
32.521500988473079
10
55.26850693160106
20
12.597607020074122
10
37.142351197967898
20
4.1452417700344668
10
23.000215574236933
20
18.287377393765407
10
8.8580799505059922
20
4.145241770034449
10
23.000215574236957
20
-9.9968938536964913
10
37.142351197967898
20
4.1452417700344668
10
28.68998594792825
20
22.271397503667636
10
46.816141681561412
20
30.723762753707284
10
55.26850693160106
20
12.597607020074122
10
75.19240090000001
20
14.340721799999994
10
95.192400900000024
20
14.34072180000002
0
LINE
5
345
100
AcDbEntity
8
0
100
AcDbLine
10
71.37990090000001
20
58.153221799999997
30
0
11
71.37990090000001
21
57.203221800000001
31
0
0
LWPOLYLINE
5
346
100
AcDbEntity
8
0
100
AcDbPolyline
90
4
70
1
43
0.0
10
87.429900900000007
20
79.253221800000006
10
73.429900900000021
20
79.253221800000006
10
73.429900900000021
20
93.253221800000006
10
87.429900900000007
20
93.253221800000006
0
LWPOLYLINE
5
347
100
AcDbEntity
8
0
100
AcDbPolyline
90
4
70
1
43
0.0
10
51.379900900000017
20
38.153221799999997
10
51.379900900000017
20
57.203221800000001
10
71.37990090000001
20
57.203221800000001
10
71.37990090000001
20
38.153221799999997
0
CIRCLE
5
348
100
AcDbEntity
8
0
100
AcDbCircle
10
26.379900900000017
20
51.753392021537991
30
0
40
17.5
210
0
220
0
230
1
0
LINE
5
349
100
AcDbEntity
8
0
100
AcDbLine
10
71.37990090000001
20
58.153221799999997
30
0
11
51.379900900000017
21
58.153221799999997
31
0
0
LWPOLYLINE
5
350
100
AcDbEntity
8
0
100
AcDbPolyline
90
4
70
1
43
0.0
10
68.379900900000024
20
93.253221800000006
10
68.379900900000024
20
79.253221800000006
10
54.37990090000001
20
79.253221800000006
10
54.37990090000001
20
93.253221800000006
0
LWPOLYLINE
5
351
100
AcDbEntity
8
0
100
AcDbPolyline
90
4
70
1
43
0.0
10
68.379900900000024
20
55.153221799999997
10
68.379900900000024
20
41.153221799999997
10
54.37990090000001
20
41.153221799999997
10
54.37990090000001
20
55.153221799999997
0
LWPOLYLINE
5
352
100
AcDbEntity
8
0
100
AcDbPolyline
90
6
70
1
43
0.0
10
129.08967366425469
20
48.305131478177131
10
131.7409212621061
20
67.169738239456876
10
131.87313566327808
20
68.11049285584437
10
151.67849704094527
20
65.327030856820997
10
151.54628264043876
20
64.386276168601427
10
148.89503504192191
20
45.521669479153758
0
LWPOLYLINE
5
353
100
AcDbEntity
8
0
100
AcDbPolyline
90
4
70
1
43
0.0
10
68.379900900000024
20
79.253221800000006
10
54.37990090000001
20
79.253221800000006
10
54.37990090000001
20
93.253221800000006
10
68.379900900000024
20
93.253221800000006
0
LINE
5
354
100
AcDbEntity
8
0
100
AcDbLine
10
6.3799009000000115
20
31.753392021537987
30
0
11
6.3799009000000115
21
94.253392021537991
31
0
0
LWPOLYLINE
5
355
100
AcDbEntity
8
0
100
AcDbPolyline
90
4
70
1
43
0.0
10
51.281728784050138
20
14.048675592613158
10
45.365073109022383
20
26.736984606156362
10
32.676764095479172
20
20.820328931128607
10
38.593419770506927
20
8.1320199175853958
0
LWPOLYLINE
5
356
100
AcDbEntity
8
0
100
AcDbPolyline
90
4
70
1
43
0.0
10
132.47799717075827
20
50.858416384973715
10
134.42642057007464
20
64.722169349340788
10
148.29017353444169
20
62.77374595002442
10
146.34175013512535
20
48.909992985657354
0
LWPOLYLINE
5
357
100
AcDbEntity
8
0
100
AcDbPolyline
90
4
70
1
43
0.0
10
92.479900900000018
20
50.678221800000003
10
92.479900900000018
20
64.678221800000003
10
106.47990090000002
20
64.678221800000003
10
106.47990090000002
20
50.678221800000003
0
LINE
5
358
100
AcDbEntity
8
0
100
AcDbLine
10
42.37990090000001
20
35.753580560352006
30
0
11
42.37990090000001
21
67.753392021537991
31
0
0
LINE
5
359
100
AcDbEntity
8
0
100
AcDbLine
10
46.379900900000017
20
71.753392021537991
30
0
11
6.3799009000000115
21
31.753392021537987
31
0
0
LINE
5
360
100
AcDbEntity
8
0
100
AcDbLine
10
42.37990090000001
20
35.753580560352006
30
0
11
42.37990090000001
21
67.753392021537991
31
0
0
CIRCLE
5
361
100
AcDbEntity
8
0
100
AcDbCircle
10
26.379900900000017
20
51.753392021537991
30
0
40
17.5
210
0
220
0
230
1
0
LWPOLYLINE
5
362
100
AcDbEntity
8
0
100
AcDbPolyline
90
4
70
1
43
0.0
10
92.479900900000018
20
50.678221800000003
10
92.479900900000018
20
64.678221800000003
10
106.47990090000002
20
64.678221800000003
10
106.47990090000002
20
50.678221800000003
0
LWPOLYLINE
5
363
100
AcDbEntity
8
0
100
AcDbPolyline
90
4
70
1
43
0.0
10
109.47990090000003
20
67.678221800000003
10
109.47990090000003
20
47.678221800000003
10
89.479900900000018
20
47.678221800000003
10
89.479900900000018
20
67.678221800000003
0
LINE
5
364
100
AcDbEntity
8
0
100
AcDbLine
10
129.08967366425469
20
48.305131478177131
30
0
11
131.7409212621061
21
67.169738239456876
31
0
0
LWPOLYLINE
5
365
100
AcDbEntity
8
0
100
AcDbPolyline
90
4
70
1
43
0.0
10
68.379900900000024
20
55.153221799999997
10
68.379900900000024
20
41.153221799999997
10
54.37990090000001
20
41.153221799999997
10
54.37990090000001
20
55.153221799999997
0
LINE
5
366
100
AcDbEntity
8
0
100
AcDbLine
10
6.3799009000000115
20
31.753392021537987
30
0
11
6.3799009000000115
21
94.253392021537991
31
0
0
LWPOLYLINE
5
367
100
AcDbEntity
8
0
100
AcDbPolyline
90
4
70
1
43
0.0
10
68.379900900000024
20
74.203221800000009
10
68.379900900000024
20
60.203221800000001
10
54.37990090000001
20
60.203221800000001
10
54.37990090000001
20
74.203221800000009
0
LINE
5
368
100
AcDbEntity
8
0
100
AcDbLine
10
10.379900900000012
20
35.753392021537991
30
0
11
10.379712361185998
21
67.753392021537991
31
0
0
LINE
5
369
100
AcDbEntity
8
0
100
AcDbLine
10
46.379900900000017
20
31.753392021537987
30
0
11
46.379900900000017
21
94.253392021537991
31
0
0
LWPOLYLINE
5
370
100
AcDbEntity
8
0
100
AcDbPolyline
90
4
70
1
43
0.0
10
109.47990090000003
20
67.678221800000003
10
109.47990090000003
20
47.678221800000003
10
89.479900900000018
20
47.678221800000003
10
89.479900900000018
20
67.678221800000003
0
LWPOLYLINE
5
371
100
AcDbEntity
8
0
100
AcDbPolyline
90
4
70
1
43
0.0
10
128.52990090000003
20
62.9157218
10
128.52990090000003
20
42.9157218
10
108.5299009
20
42.9157218
10
108.5299009
20
62.9157218
0
LINE
5
372
100
AcDbEntity
8
0
100
AcDbLine
10
144.68077060400861
20
29.906213185706196
30
0
11
151.93168929313248
21
81.49917953745161
31
0
0
LWPOLYLINE
5
373
100
AcDbEntity
8
0
100
AcDbPolyline
90
4
70
1
43
0.0
10
71.37990090000001
20
77.203221799999994
10
51.379900900000017
20
77.203221799999994
10
51.379900900000017
20
96.253221800000006
10
71.37990090000001
20
96.253221800000006
0
LINE
5
374
100
AcDbEntity
8
0
100
AcDbLine
10
51.379900900000017
20
38.153221799999997
30
0
11
46.379900900000017
21
38.153221799999997
31
0
0
LINE
5
375
100
AcDbEntity
8
0
100
AcDbLine
10
71.37990090000001
20
76.253221800000006
30
0
11
51.379900900000017
21
76.253221800000006
31
0
0
LWPOLYLINE
5
376
100
AcDbEntity
8
0
100
AcDbPolyline
90
4
70
1
43
0.0
10
68.379900900000024
20
60.203221800000001
10
54.37990090000001
20
60.203221800000001
10
54.37990090000001
20
74.203221800000009
10
68.379900900000024
20
74.203221800000009
0
LINE
5
377
100
AcDbEntity
8
0
100
AcDbLine
10
144.68077060400861
20
29.906213185706196
30
0
11
151.93168929313248
21
81.49917953745161
31
0
0
LINE
5
378
100
AcDbEntity
8
0
100
AcDbLine
10
71.37990090000001
20
77.203221799999994
30
0
11
71.37990090000001
21
76.253221800000006
31
0
0
LINE
5
379
100
AcDbEntity
8
0
100
AcDbLine
10
51.379900900000017
20
38.153221799999997
30
0
11
46.379900900000017
21
38.153221799999997
31
0
0
LWPOLYLINE
5
380
100
AcDbEntity
8
0
100
AcDbPolyline
90
4
70
1
43
0.0
10
38.593419770506927
20
8.1320199175853958
10
51.281728784050138
20
14.048675592613158
10
45.365073109022383
20
26.736984606156362
10
32.676764095479172
20
20.820328931128607
0
LINE
5
381
100
AcDbEntity
8
0
100
AcDbLine
10
6.3799009000000115
20
31.753392021537987
30
0
11
6.3799009000000106
21
6.6234208205404244
31
0
0
LINE
5
382
100
AcDbEntity
8
0
100
AcDbLine
10
71.37990090000001
20
57.203221800000001
30
0
11
51.379900900000017
21
57.203221800000001
31
0
0
LINE
5
383
100
AcDbEntity
8
0
100
AcDbLine
10
71.37990090000001
20
77.203221799999994
30
0
11
51.379900900000017
21
77.203221799999994
31
0
0
LINE
5
384
100
AcDbEntity
8
0
100
AcDbLine
10
42.37990090000001
20
35.753580560352006
30
0
11
48.879900900000017
21
35.753580560352006
31
0
0
LINE
5
385
100
AcDbEntity
8
0
100
AcDbLine
10
42.37990090000001
20
35.753580560352006
30
0
11
48.879900900000017
21
35.753580560352006
31
0
0
LINE
5
386
100
AcDbEntity
8
0
100
AcDbLine
10
46.379900900000017
20
94.253392021537991
30
0
11
44.37990090000001
21
94.253392021537991
31
0
0
LINE
5
387
100
AcDbEntity
8
0
100
AcDbLine
10
48.929933298013864
20
90.253392021537991
30
0
11
6.3799009000000115
21
90.253392021537991
31
0
0
LINE
5
388
100
AcDbEntity
8
0
100
AcDbLine
10
26.879900900000013
20
94.253392021537991
30
0
11
24.87990090000001
21
94.253392021537991
31
0
0
LINE
5
389
100
AcDbEntity
8
0
100
AcDbLine
10
26.879900900000013
20
74.253392021537991
30
0
11
26.879900900000013
21
71.753392021537991
31
0
0
LINE
5
390
100
AcDbEntity
8
0
100
AcDbLine
10
6.3797123611859972
20
71.753392021537991
30
0
11
46.379900900000017
21
71.753392021537991
31
0
0
LINE
5
391
100
AcDbEntity
8
0
100
AcDbLine
10
44.37990090000001
20
94.253392021537991
30
0
11
44.37990090000001
21
74.253392021537991
31
0
0
CIRCLE
5
392
100
AcDbEntity
8
0
100
AcDbCircle
10
48.929933298013864
20
90.253392021537991
30
0
40
1.5000000000000078
210
0
220
0
230
1
0
LINE
5
393
100
AcDbEntity
8
0
100
AcDbLine
10
55.26850693160106
20
12.597607020074122
30
0
11
95.192400900000024
21
12.597607020074122
31
0
0
LINE
5
394
100
AcDbEntity
8
0
100
AcDbLine
10
42.37990090000001
20
67.753392021537991
30
0
11
42.37990090000001
21
71.753392021537991
31
0
0
LINE
5
395
100
AcDbEntity
8
0
100
AcDbLine
10
48.929933298013864
20
94.253392021537991
30
0
11
48.929933298013864
21
90.253392021537991
31
0
0
LWPOLYLINE
5
396
100
AcDbEntity
8
0
100
AcDbPolyline
90
4
70
1
43
0.0
10
87.429900900000007
20
79.253221800000006
10
73.429900900000021
20
79.253221800000006
10
73.429900900000021
20
93.253221800000006
10
87.429900900000007
20
93.253221800000006
0
LINE
5
397
100
AcDbEntity
8
0
100
AcDbLine
10
51.379900900000017
20
57.203221800000001
30
0
11
51.379900900000017
21
58.153221799999997
31
0
0
LINE
5
398
100
AcDbEntity
8
0
100
AcDbLine
10
44.37990090000001
20
94.253392021537991
30
0
11
44.37990090000001
21
74.253392021537991
31
0
0
LINE
5
399
100
AcDbEntity
8
0
100
AcDbLine
10
46.379900900000017
20
94.253392021537991
30
0
11
44.37990090000001
21
94.253392021537991
31
0
0
LINE
5
400
100
AcDbEntity
8
0
100
AcDbLine
10
48.929933298013864
20
94.253392021537991
30
0
11
48.929933298013864
21
90.253392021537991
31
0
0
LINE
5
401
100
AcDbEntity
8
0
100
AcDbLine
10
42.37990090000001
20
67.753392021537991
30
0
11
42.37990090000001
21
71.753392021537991
31
0
0
CIRCLE
5
402
100
AcDbEntity
8
0
100
AcDbCircle
10
48.929933298013864
20
90.253392021537991
30
0
40
1.5000000000000078
210
0
220
0
230
1
0
LINE
5
403
100
AcDbEntity
8
0
100
AcDbLine
10
24.87990090000001
20
82.053392021537974
30
0
11
18.679900900000007
21
82.053392021537974
31
0
0
LINE
5
404
100
AcDbEntity
8
0
100
AcDbLine
10
24.87990090000001
20
94.253392021537991
30
0
11
24.87990090000001
21
82.053392021537974
31
0
0
LINE
5
405
100
AcDbEntity
8
0
100
AcDbLine
10
6.3797123611859972
20
71.753392021537991
30
0
11
10.379712361185998
21
71.753392021537991
31
0
0
CIRCLE
5
406
100
AcDbEntity
8
0
100
AcDbCircle
10
10.379712361185998
20
67.753392021537991
30
0
40
1.5000000000000004
210
0
220
0
230
1
0
LINE
5
407
100
AcDbEntity
8
0
100
AcDbLine
10
24.87990090000001
20
82.053392021537974
30
0
11
18.679900900000007
21
82.053392021537974
31
0
0
LINE
5
408
100
AcDbEntity
8
0
100
AcDbLine
10
18.679900900000007
20
82.053392021537974
30
0
11
18.679900900000007
21
94.253392021537991
31
0
0
LINE
5
409
100
AcDbEntity
8
0
100
AcDbLine
10
18.679900900000007
20
82.053392021537974
30
0
11
18.679900900000007
21
94.253392021537991
31
0
0
LINE
5
410
100
AcDbEntity
8
0
100
AcDbLine
10
6.3797123611859972
20
71.753392021537991
30
0
11
10.379712361185998
21
71.753392021537991
31
0
0
CIRCLE
5
411
100
AcDbEntity
8
0
100
AcDbCircle
10
10.379712361185998
20
90.253392021537991
30
0
40
1.4999999999999938
210
0
220
0
230
1
0
CIRCLE
5
412
100
AcDbEntity
8
0
100
AcDbCircle
10
10.379712361185998
20
67.753392021537991
30
0
40
1.5000000000000004
210
0
220
0
230
1
0
CIRCLE
5
413
100
AcDbEntity
8
0
100
AcDbCircle
10
10.379712361185998
20
90.253392021537991
30
0
40
1.4999999999999938
210
0
220
0
230
1
0
LINE
5
414
100
AcDbEntity
8
0
100
AcDbLine
10
10.379712361185998
20
71.753392021537991
30
0
11
10.379712361185998
21
67.753392021537991
31
0
0
LINE
5
415
100
AcDbEntity
8
0
100
AcDbLine
10
10.379712361185998
20
71.753392021537991
30
0
11
10.379712361185998
21
67.753392021537991
31
0
0
LINE
5
416
100
AcDbEntity
8
0
100
AcDbLine
10
24.87990090000001
20
94.253392021537991
30
0
11
24.87990090000001
21
82.053392021537974
31
0
0
LWPOLYLINE
5
417
100
AcDbEntity
8
0
100
AcDbPolyline
90
6
70
1
43
0.0
10
154.32974463946226
20
84.191637546268652
10
151.67849704094527
20
65.327030856820997
10
151.54628264043876
20
64.386276168601427
10
131.7409212621061
20
67.169738239456876
10
131.87313566327808
20
68.11049285584437
10
134.5243833314785
20
86.975099607237198
0
LINE
5
418
100
AcDbEntity
8
0
100
AcDbLine
10
154.32974463946226
20
84.191637546268652
30
0
11
151.67849704094527
21
65.327030856820997
31
0
0
LWPOLYLINE
5
419
100
AcDbEntity
8
0
100
AcDbPolyline
90
14
70
1
43
0.0
10
108.5299009
20
81.015721800000023
10
108.5299009
20
85.778221800000011
10
108.5299009
20
101.01572180000002
10
109.47990090000003
20
101.01572180000002
10
109.47990090000003
20
105.77822180000001
10
89.479900900000018
20
105.77822180000001
10
89.479900900000018
20
96.253221800000006
10
90.429900900000021
20
96.253221800000006
10
90.429900900000021
20
85.778221800000011
10
108.5299009
20
85.778221800000011
10
109.47990090000003
20
85.778221800000011
10
109.47990090000003
20
101.01572180000002
10
128.52990090000003
20
101.01572180000002
10
128.52990090000003
20
81.015721800000023
0
LWPOLYLINE
5
420
100
AcDbEntity
8
0
100
AcDbPolyline
90
4
70
1
43
0.0
10
23.000215574236954
20
-5.7542531665772145
10
32.899710510848614
20
4.1452417700344668
10
23.000215574236936
20
14.04473670664613
10
13.100720637625274
20
4.145241770034449
0
LWPOLYLINE
5
421
100
AcDbEntity
8
0
100
AcDbPolyline
90
4
70
1
43
0.0
10
71.942349587751281
20
17.067838678270952
10
70.722169241803186
20
31.014564456150218
10
56.775443463923914
20
29.794384110202117
10
57.995623809872015
20
15.847658332322849
0
LWPOLYLINE
5
422
100
AcDbEntity
8
0
100
AcDbPolyline
90
4
70
1
43
0.0
10
23.000215574236936
20
14.04473670664613
10
13.100720637625274
20
4.145241770034449
10
23.000215574236954
20
-5.7542531665772145
10
32.899710510848614
20
4.1452417700344668
0
LINE
5
423
100
AcDbEntity
8
0
100
AcDbLine
10
6.3799009000000115
20
35.753392021537991
30
0
11
10.379900900000012
21
35.753392021537991
31
0
0
LINE
5
424
100
AcDbEntity
8
0
100
AcDbLine
10
6.3799009000000106
20
6.6234208205404244
30
0
11
8.8580799505059922
21
4.145241770034449
31
0
0
LWPOLYLINE
5
425
100
AcDbEntity
8
0
100
AcDbPolyline
90
14
70
1
43
0.0
10
108.5299009
20
81.015721800000023
10
108.5299009
20
85.778221800000011
10
109.47990090000003
20
85.778221800000011
10
109.47990090000003
20
101.01572180000002
10
109.47990090000003
20
105.77822180000001
10
89.479900900000018
20
105.77822180000001
10
89.479900900000018
20
96.253221800000006
10
89.479900900000018
20
85.778221800000011
10
90.429900900000021
20
85.778221800000011
10
108.5299009
20
85.778221800000011
10
108.5299009
20
101.01572180000002
10
109.47990090000003
20
101.01572180000002
10
128.52990090000003
20
101.01572180000002
10
128.52990090000003
20
81.015721800000023
0
LWPOLYLINE
5
426
100
AcDbEntity
8
0
100
AcDbPolyline
90
4
70
1
43
0.0
10
150.9414211344417
20
81.638352650024416
10
148.99299773512524
20
67.774599685657378
10
135.12924477767902
20
69.723023134218053
10
137.07766822623969
20
83.586776091664277
0
LWPOLYLINE
5
427
100
AcDbEntity
8
0
100
AcDbPolyline
90
4
70
1
43
0.0
10
143.69050253512526
20
30.045386285657365
10
129.82674957075821
20
31.993809684973797
10
131.77517297007464
20
45.857562649340863
10
145.63892593444169
20
43.909139250024424
0
LINE
5
428
100
AcDbEntity
8
0
100
AcDbLine
10
131.87313566327808
20
68.11049285584437
30
0
11
134.5243833314785
21
86.975099607237198
31
0
0
CIRCLE
5
429
100
AcDbEntity
8
0
100
AcDbCircle
10
10.379900900000012
20
35.753392021537991
30
0
40
1.5000000000000016
210
0
220
0
230
1
0
LINE
5
430
100
AcDbEntity
8
0
100
AcDbLine
10
129.82674957075821
20
31.993809684973797
30
0
11
129.68757647080704
21
31.003541616090438
31
0
0
LWPOLYLINE
5
431
100
AcDbEntity
8
0
100
AcDbPolyline
90
4
70
1
43
0.0
10
106.47990090000002
20
83.7282218
10
106.47990090000002
20
69.7282218
10
92.479900900000018
20
69.7282218
10
92.479900900000018
20
83.7282218
0
LWPOLYLINE
5
432
100
AcDbEntity
8
0
100
AcDbPolyline
90
4
70
1
43
0.0
10
149.0272494409453
20
46.462424156820973
10
146.24378744192182
20
26.657062779153762
10
126.4384260642546
20
29.440524778177235
10
129.22188806327807
20
49.245886155844467
0
LINE
5
433
100
AcDbEntity
8
0
100
AcDbLine
10
26.379900900000017
20
35.753486290944998
30
0
11
26.37988911632414
21
37.753486290910288
31
0
0
LINE
5
434
100
AcDbEntity
8
0
100
AcDbLine
10
10.379900900000012
20
35.753392021537991
30
0
11
42.37990090000001
21
35.753580560352006
31
0
0
LWPOLYLINE
5
435
100
AcDbEntity
8
0
100
AcDbPolyline
90
4
70
1
43
0.0
10
149.0272494409453
20
46.462424156820973
10
146.24378744192182
20
26.657062779153762
10
126.4384260642546
20
29.440524778177235
10
129.22188806327807
20
49.245886155844467
0
LWPOLYLINE
5
436
100
AcDbEntity
8
0
100
AcDbPolyline
90
4
70
1
43
0.0
10
57.995623809872015
20
15.847658332322849
10
71.942349587751281
20
17.067838678270952
10
70.722169241803186
20
31.014564456150218
10
56.775443463923914
20
29.794384110202117
0
LWPOLYLINE
5
437
100
AcDbEntity
8
0
100
AcDbPolyline
90
4
70
1
43
0.0
10
150.9414211344417
20
81.638352650024416
10
148.99299773512524
20
67.774599685657378
10
135.12924477767902
20
69.723023134218053
10
137.07766822623969
20
83.586776091664277
0
LWPOLYLINE
5
438
100
AcDbEntity
8
0
100
AcDbPolyline
90
4
70
1
43
0.0
10
125.52990090000002
20
59.9157218
10
125.52990090000002
20
45.9157218
10
111.52990090000002
20
45.9157218
10
111.52990090000002
20
59.9157218
0
CIRCLE
5
439
100
AcDbEntity
8
0
100
AcDbCircle
10
48.879900900000017
20
35.753580560352006
30
0
40
1.5000000000000016
210
0
220
0
230
1
0
LINE
5
440
100
AcDbEntity
8
0
100
AcDbLine
10
129.82674957075821
20
31.993809684973797
30
0
11
131.77517297007464
21
45.857562649340863
31
0
0
LINE
5
441
100
AcDbEntity
8
0
100
AcDbLine
10
148.89503504192191
20
45.521669479153758
30
0
11
129.08967366425469
21
48.305131478177131
31
0
0
LINE
5
442
100
AcDbEntity
8
0
100
AcDbLine
10
152.07086239660111
20
82.489447605840638
30
0
11
126.51996569602773
21
86.080392021537989
31
0
0
LINE
5
443
100
AcDbEntity
8
0
100
AcDbLine
10
147.79503950000003
20
62.843332500000002
30
0
11
148.29017353444169
21
62.77374595002442
31
0
0
LWPOLYLINE
5
444
100
AcDbEntity
8
0
100
AcDbPolyline
90
4
70
1
43
0.0
10
125.52990090000002
20
98.015721800000009
10
125.52990090000002
20
84.015721800000023
10
111.52990090000002
20
84.015721800000023
10
111.52990090000002
20
98.015721800000009
0
LINE
5
445
100
AcDbEntity
8
0
100
AcDbLine
10
92.479900900000018
20
102.77822180000001
30
0
11
92.479900900000018
21
88.778221800000011
31
0
0
LINE
5
446
100
AcDbEntity
8
0
100
AcDbLine
10
128.87540090000002
20
32.340721800000019
30
0
11
129.82674957075821
21
31.993809684973797
31
0
0
LINE
5
447
100
AcDbEntity
8
0
100
AcDbLine
10
151.54628264043876
20
64.386276168601427
30
0
11
131.7409212621061
21
67.169738239456876
31
0
0
LWPOLYLINE
5
448
100
AcDbEntity
8
0
100
AcDbPolyline
90
4
70
1
43
0.0
10
106.47990090000002
20
102.77822180000001
10
106.47990090000002
20
88.778221800000026
10
92.479900900000018
20
88.778221800000026
10
92.479900900000018
20
102.77822180000001
0
LWPOLYLINE
5
449
100
AcDbEntity
8
0
100
AcDbPolyline
90
4
70
1
43
0.0
10
125.52990090000002
20
59.9157218
10
125.52990090000002
20
45.9157218
10
111.52990090000002
20
45.9157218
10
111.52990090000002
20
59.9157218
0
LINE
5
450
100
AcDbEntity
8
0
100
AcDbLine
10
126.51996569602773
20
86.080392021537989
30
0
11
126.51996569602773
21
99.015392021537991
31
0
0
LWPOLYLINE
5
451
100
AcDbEntity
8
0
100
AcDbPolyline
90
4
70
1
43
0.0
10
92.479900900000018
20
88.778221800000026
10
92.479900900000018
20
102.77822180000001
10
106.47990090000002
20
102.77822180000001
10
106.47990090000002
20
88.778221800000026
0
LINE
5
452
100
AcDbEntity
8
0
100
AcDbLine
10
145.63892593444169
20
43.909139250024424
30
0
11
131.77517297007464
21
45.857562649340863
31
0
0
LINE
5
453
100
AcDbEntity
8
0
100
AcDbLine
10
143.69050253512526
20
30.045386285657365
30
0
11
144.68077060400861
21
29.906213185706196
31
0
0
LINE
5
454
100
AcDbEntity
8
0
100
AcDbLine
10
6.3799009000000106
20
6.6234208205404244
30
0
11
8.8580799505059922
21
4.145241770034449
31
0
0
LINE
5
455
100
AcDbEntity
8
0
100
AcDbLine
10
129.82674957075821
20
31.993809684973797
30
0
11
129.68757647080704
21
31.003541616090438
31
0
0
LINE
5
456
100
AcDbEntity
8
0
100
AcDbLine
10
145.14379190000002
20
43.978725800000007
30
0
11
145.63892593444169
21
43.909139250024424
31
0
0
LWPOLYLINE
5
457
100
AcDbEntity
8
0
100
AcDbPolyline
90
4
70
1
43
0.0
10
125.52990090000002
20
78.965721800000011
10
125.52990090000002
20
64.965721799999997
10
111.52990090000002
20
64.965721799999997
10
111.52990090000002
20
78.965721800000011
0
LINE
5
458
100
AcDbEntity
8
0
100
AcDbLine
10
131.87313566327808
20
68.11049285584437
30
0
11
151.67849704094527
21
65.327030856820997
31
0
0
LINE
5
459
100
AcDbEntity
8
0
100
AcDbLine
10
134.5243833314785
20
86.975099607237198
30
0
11
154.32974463946226
21
84.191637546268652
31
0
0
LINE
5
460
100
AcDbEntity
8
0
100
AcDbLine
10
151.93168929313248
20
81.49917953745161
30
0
11
152.07086239660111
21
82.489447605840638
31
0
0
LINE
5
461
100
AcDbEntity
8
0
100
AcDbLine
10
151.93168929313248
20
81.49917953745161
30
0
11
152.07086239660111
21
82.489447605840638
31
0
0
LWPOLYLINE
5
462
100
AcDbEntity
8
0
100
AcDbPolyline
90
4
70
1
43
0.0
10
125.52990090000002
20
98.015721800000009
10
125.52990090000002
20
84.015721800000023
10
111.52990090000002
20
84.015721800000023
10
111.52990090000002
20
98.015721800000009
0
LINE
5
463
100
AcDbEntity
8
0
100
AcDbLine
10
107.47996569602773
20
103.778392021538
30
0
11
91.479965696027733
21
103.778392021538
31
0
0
LINE
5
464
100
AcDbEntity
8
0
100
AcDbLine
10
91.479965696027733
20
103.778392021538
30
0
11
91.479965696027733
21
94.253392021537991
31
0
0
LINE
5
465
100
AcDbEntity
8
0
100
AcDbLine
10
92.479900900000018
20
102.77822180000001
30
0
11
92.479900900000018
21
88.778221800000011
31
0
0
LINE
5
466
100
AcDbEntity
8
0
100
AcDbLine
10
152.07086239660111
20
82.489447605840638
30
0
11
126.51996569602773
21
86.080392021537989
31
0
0
LINE
5
467
100
AcDbEntity
8
0
100
AcDbLine
10
147.79503950000003
20
62.843332500000002
30
0
11
148.29017353444169
21
62.77374595002442
31
0
0
LINE
5
468
100
AcDbEntity
8
0
100
AcDbLine
10
126.51996569602773
20
86.080392021537989
30
0
11
126.51996569602773
21
99.015392021537991
31
0
0
LINE
5
469
100
AcDbEntity
8
0
100
AcDbLine
10
91.479965696027733
20
103.778392021538
30
0
11
91.479965696027733
21
94.253392021537991
31
0
0
LINE
5
470
100
AcDbEntity
8
0
100
AcDbLine
10
107.47996569602773
20
103.778392021538
30
0
11
91.479965696027733
21
103.778392021538
31
0
0
LINE
5
471
100
AcDbEntity
8
0
100
AcDbLine
10
150.44628710000001
20
81.707939200000013
30
0
11
150.9414211344417
21
81.638352650024416
31
0
0
LWPOLYLINE
5
472
100
AcDbEntity
8
0
100
AcDbPolyline
90
4
70
1
43
0.0
10
125.52990090000002
20
78.965721800000011
10
125.52990090000002
20
64.965721799999997
10
111.52990090000002
20
64.965721799999997
10
111.52990090000002
20
78.965721800000011
0
LINE
5
473
100
AcDbEntity
8
0
100
AcDbLine
10
150.44628710000001
20
81.707939200000013
30
0
11
150.9414211344417
21
81.638352650024416
31
0
0
LINE
5
474
100
AcDbEntity
8
0
100
AcDbLine
10
107.47996569602773
20
99.015392021537991
30
0
11
107.47996569602773
21
103.778392021538
31
0
0
LINE
5
475
100
AcDbEntity
8
0
100
AcDbLine
10
111.52990090000002
20
98.015721800000009
30
0
11
111.52990090000002
21
84.015721800000009
31
0
0
LINE
5
476
100
AcDbEntity
8
0
100
AcDbLine
10
107.47996569602773
20
99.015392021537991
30
0
11
107.47996569602773
21
103.778392021538
31
0
0
LINE
5
477
100
AcDbEntity
8
0
100
AcDbLine
10
111.52990090000002
20
98.015721800000009
30
0
11
111.52990090000002
21
84.015721800000009
31
0
0
LINE
5
478
100
AcDbEntity
8
0
100
AcDbLine
10
126.4384260642546
20
29.440524778177235
30
0
11
95.192400900000024
21
29.440524778177235
31
0
0
LWPOLYLINE
5
479
100
AcDbEntity
8
0
100
AcDbPolyline
90
4
70
1
43
0.0
10
106.47990090000002
20
83.7282218
10
106.47990090000002
20
69.7282218
10
92.479900900000018
20
69.7282218
10
92.479900900000018
20
83.7282218
0
LINE
5
480
100
AcDbEntity
8
0
100
AcDbLine
10
55.26850693160106
20
12.597607020074122
30
0
11
75.19240090000001
21
14.340721799999994
31
0
0
LINE
5
481
100
AcDbEntity
8
0
100
AcDbLine
10
126.51996569602773
20
99.015392021537991
30
0
11
107.47996569602773
21
99.015392021537991
31
0
0
LINE
5
482
100
AcDbEntity
8
0
100
AcDbLine
10
78.692400900000024
20
31.340721799999997
30
0
11
78.19240090000001
21
31.340721799999997
31
0
0
LINE
5
483
100
AcDbEntity
8
0
100
AcDbLine
10
75.19240090000001
20
34.340721799999997
30
0
11
75.19240090000001
21
14.340721799999994
31
0
0
LINE
5
484
100
AcDbEntity
8
0
100
AcDbLine
10
6.3799009000000115
20
31.753392021537987
30
0
11
6.3799009000000115
21
35.753392021537991
31
0
0
CIRCLE
5
485
100
AcDbEntity
8
0
100
AcDbCircle
10
42.37990090000001
20
35.753580560352006
30
0
40
1.5
210
0
220
0
230
1
0
CIRCLE
5
486
100
AcDbEntity
8
0
100
AcDbCircle
10
42.37990090000001
20
35.753580560352006
30
0
40
1.5
210
0
220
0
230
1
0
LINE
5
487
100
AcDbEntity
8
0
100
AcDbLine
10
6.3799009000000115
20
31.753392021537987
30
0
11
6.3799009000000106
21
6.6234208205404244
31
0
0
CIRCLE
5
488
100
AcDbEntity
8
0
100
AcDbCircle
10
10.379900900000012
20
35.753392021537991
30
0
40
1.5000000000000016
210
0
220
0
230
1
0
LINE
5
489
100
AcDbEntity
8
0
100
AcDbLine
10
126.4384260642546
20
29.440524778177235
30
0
11
95.192400900000024
21
29.440524778177235
31
0
0
LINE
5
490
100
AcDbEntity
8
0
100
AcDbLine
10
48.879900900000017
20
35.753580560352006
30
0
11
48.879900900000017
21
38.153221799999997
31
0
0
LINE
5
491
100
AcDbEntity
8
0
100
AcDbLine
10
78.692400900000024
20
31.340721799999997
30
0
11
78.19240090000001
21
31.340721799999997
31
0
0
LINE
5
492
100
AcDbEntity
8
0
100
AcDbLine
10
26.289879393258492
20
34.253623562260472
30
0
11
26.289879393258492
21
31.753623562260476
31
0
0
LINE
5
493
100
AcDbEntity
8
0
100
AcDbLine
10
95.192400900000024
20
12.597607020074122
30
0
11
95.192400900000024
21
14.34072180000002
31
0
0
LINE
5
494
100
AcDbEntity
8
0
100
AcDbLine
10
10.379900900000012
20
35.753392021537991
30
0
11
42.37990090000001
21
35.753580560352006
31
0
0
LINE
5
495
100
AcDbEntity
8
0
100
AcDbLine
10
128.87540090000002
20
32.340721800000019
30
0
11
129.82674957075821
21
31.993809684973797
31
0
0
LINE
5
496
100
AcDbEntity
8
0
100
AcDbLine
10
6.3799009000000115
20
35.753392021537991
30
0
11
10.379900900000012
21
35.753392021537991
31
0
0
LINE
5
497
100
AcDbEntity
8
0
100
AcDbLine
10
26.289879393258492
20
34.253623562260472
30
0
11
26.289879393258492
21
31.753623562260476
31
0
0
LINE
5
498
100
AcDbEntity
8
0
100
AcDbLine
10
143.69050253512526
20
30.045386285657365
30
0
11
144.68077060400861
21
29.906213185706196
31
0
0
LINE
5
499
100
AcDbEntity
8
0
100
AcDbLine
10
145.14379190000002
20
43.978725800000007
30
0
11
145.63892593444169
21
43.909139250024424
31
0
0
LINE
5
500
100
AcDbEntity
8
0
100
AcDbLine
10
95.192400900000024
20
14.34072180000002
30
0
11
95.192400900000024
21
34.340721800000011
31
0
0
CIRCLE
5
501
100
AcDbEntity
8
0
100
AcDbCircle
10
48.879900900000017
20
35.753580560352006
30
0
40
1.5000000000000016
210
0
220
0
230
1
0
LINE
5
502
100
AcDbEntity
8
0
100
AcDbLine
10
6.3799009000000115
20
31.753392021537987
30
0
11
6.3799009000000115
21
35.753392021537991
31
0
0
LINE
5
503
100
AcDbEntity
8
0
100
AcDbLine
10
145.63892593444169
20
43.909139250024424
30
0
11
143.69050253512526
21
30.045386285657365
31
0
0
LINE
5
504
100
AcDbEntity
8
0
100
AcDbLine
10
143.69050253512526
20
30.045386285657365
30
0
11
129.82674957075821
21
31.993809684973797
31
0
0
LINE
5
505
100
AcDbEntity
8
0
100
AcDbLine
10
6.3799009000000115
20
31.753392021537987
30
0
11
46.379900900000017
21
31.753392021537987
31
0
0
LINE
5
506
100
AcDbEntity
8
0
100
AcDbLine
10
26.379900900000017
20
35.753486290944998
30
0
11
26.37988911632414
21
37.753486290910288
31
0
0
LINE
5
507
100
AcDbEntity
8
0
100
AcDbLine
10
6.3799009000000115
20
31.753392021537987
30
0
11
46.379900900000017
21
31.753392021537987
31
0
0
LINE
5
508
100
AcDbEntity
8
0
100
AcDbLine
10
126.51996569602773
20
99.015392021537991
30
0
11
107.47996569602773
21
99.015392021537991
31
0
0
LINE
5
509
100
AcDbEntity
8
0
100
AcDbLine
10
48.879900900000017
20
35.753580560352006
30
0
11
48.879900900000017
21
38.153221799999997
31
0
0
CIRCLE
5
510
100
AcDbEntity
8
0
100
AcDbCircle
10
42.37990090000001
20
67.753392021537991
30
0
40
1.4999999999999967
210
0
220
0
230
1
0
LINE
5
511
100
AcDbEntity
8
0
100
AcDbLine
10
51.379900900000017
20
76.253221800000006
30
0
11
51.379900900000017
21
77.203221799999994
31
0
0
CIRCLE
5
512
100
AcDbEntity
8
0
100
AcDbCircle
10
42.37990090000001
20
67.753392021537991
30
0
40
1.4999999999999967
210
0
220
0
230
1
0
ENDSEC
0
SECTION
2
OBJECTS
0
DICTIONARY
5
C
100
AcDbDictionary
3
ACAD_GROUP
350
D
3
ACAD_MLINESTYLE
350
17
0
DICTIONARY
5
D
100
AcDbDictionary
0
DICTIONARY
5
1A
330
C
100
AcDbDictionary
0
DICTIONARY
5
17
100
AcDbDictionary
0
ENDSEC
0
EOF
