0
SECTION
2
HEADER
9
$INSUNITS
70
4
9
$ACADVER
1
AC1014
9
$HANDSEED
5
FFFF
0
ENDSEC
0
SECTION
2
TABLES
0
TABLE
2
VPORT
5
8
100
AcDbSymbolTable
0
ENDTAB
0
TABLE
2
LTYPE
5
5
100
AcDbSymbolTable
0
LTYPE
5
14
100
AcDbSymbolTableRecord
100
AcDbLinetypeTableRecord
2
BYBLOCK
70
0
0
LTYPE
5
15
100
AcDbSymbolTableRecord
100
AcDbLinetypeTableRecord
2
BYLAYER
70
0
0
ENDTAB
0
TABLE
2
LAYER
5
2
100
AcDbSymbolTable
70
2
0
LAYER
5
50
100
AcDbSymbolTableRecord
100
AcDbLayerTableRecord
2
0
70
0
6
CONTINUOUS
0
ENDTAB
0
TABLE
2
STYLE
5
3
100
AcDbSymbolTable
70
1
0
STYLE
5
11
100
AcDbSymbolTableRecord
100
AcDbTextStyleTableRecord
2
STANDARD
70
0
0
ENDTAB
0
TABLE
2
VIEW
5
6
100
AcDbSymbolTable
70
0
0
ENDTAB
0
TABLE
2
UCS
5
7
100
AcDbSymbolTable
70
0
0
ENDTAB
0
TABLE
2
APPID
5
9
100
AcDbSymbolTable
70
2
0
APPID
5
12
100
AcDbSymbolTableRecord
100
AcDbRegAppTableRecord
2
ACAD
70
0
0
ENDTAB
0
TABLE
2
DIMSTYLE
5
A
100
AcDbSymbolTable
70
1
0
ENDTAB
0
TABLE
2
BLOCK_RECORD
5
1
100
AcDbSymbolTable
70
1
0
BLOCK_RECORD
5
1F
100
AcDbSymbolTableRecord
100
AcDbBlockTableRecord
2
*MODEL_SPACE
0
BLOCK_RECORD
5
1B
100
AcDbSymbolTableRecord
100
AcDbBlockTableRecord
2
*PAPER_SPACE
0
ENDTAB
0
ENDSEC
0
SECTION
2
BLOCKS
0
BLOCK
5
20
100
AcDbEntity
100
AcDbBlockBegin
2
*MODEL_SPACE
0
ENDBLK
5
21
100
AcDbEntity
100
AcDbBlockEnd
0
BLOCK
5
1C
100
AcDbEntity
100
AcDbBlockBegin
2
*PAPER_SPACE
0
ENDBLK
5
1D
100
AcDbEntity
100
AcDbBlockEnd
0
ENDSEC
0
SECTION
2
ENTITIES
0
LWPOLYLINE
5
100
100
AcDbEntity
8
0
100
AcDbPolyline
90
2
70
1
43
0.0
10
-97.720099099999999
20
102.77822180000001
10
-83.720099099999999
20
102.77822180000001
0
LINE
5
101
100
AcDbEntity
8
0
100
AcDbLine
10
-29.833617970506904
20
8.132019917585394
30
0
11
-42.521926984050111
21
14.048675592613151
31
0
0
LINE
5
102
100
AcDbEntity
8
0
100
AcDbLine
10
-4.3409188376252512
20
4.145241770034449
30
0
11
-14.240413774236931
21
-5.7542531665772074
31
0
0
LINE
5
103
100
AcDbEntity
8
0
100
AcDbLine
10
-14.240413774236931
20
-5.7542531665772074
30
0
11
-24.139908710848587
21
4.1452417700344713
31
0
0
LINE
5
104
100
AcDbEntity
8
0
100
AcDbLine
10
-4.3409188376252512
20
4.145241770034449
30
0
11
2.3799009000000124
21
10.866061507659699
31
0
0
LINE
5
105
100
AcDbEntity
8
0
100
AcDbLine
10
-24.139908710848587
20
4.1452417700344713
30
0
11
-29.833617970506904
21
8.132019917585394
31
0
0
LINE
5
106
100
AcDbEntity
8
0
100
AcDbLine
10
-42.521926984050111
20
14.048675592613151
30
0
11
-83.43259909999999
21
14.048675592613151
31
0
0
LINE
5
107
100
AcDbEntity
8
0
100
AcDbLine
10
-83.43259909999999
20
14.048675592613151
30
0
11
-83.43259909999999
21
31.340721800000011
31
0
0
LINE
5
108
100
AcDbEntity
8
0
100
AcDbLine
10
-83.43259909999999
20
31.340721800000011
30
0
11
-125.71390956790864
21
31.340721800000011
31
0
0
LINE
5
109
100
AcDbEntity
8
0
100
AcDbLine
10
-134.93070073512524
20
30.045386285657365
30
0
11
-142.18161933444168
21
81.638352650024416
31
0
0
LINE
5
110
100
AcDbEntity
8
0
100
AcDbLine
10
-125.71390956790864
20
31.340721800000011
30
0
11
-134.93070073512524
21
30.045386285657365
31
0
0
LINE
5
111
100
AcDbEntity
8
0
100
AcDbLine
10
-142.18161933444168
20
81.638352650024416
30
0
11
-116.77009909999998
21
85.209708935366393
31
0
0
LINE
5
112
100
AcDbEntity
8
0
100
AcDbLine
10
-116.77009909999998
20
85.209708935366393
30
0
11
-116.77009909999998
21
98.015721800000009
31
0
0
LINE
5
113
100
AcDbEntity
8
0
100
AcDbLine
10
-116.77009909999998
20
98.015721800000009
30
0
11
-97.720099099999999
21
98.015721800000009
31
0
0
LINE
5
114
100
AcDbEntity
8
0
100
AcDbLine
10
-97.720099099999999
20
98.015721800000009
30
0
11
-97.720099099999999
21
102.77822180000001
31
0
0
LINE
5
115
100
AcDbEntity
8
0
100
AcDbLine
10
-83.720099099999999
20
93.253221800000006
30
0
11
-83.720099099999999
21
102.77822180000001
31
0
0
LINE
5
116
100
AcDbEntity
8
0
100
AcDbLine
10
-83.720099099999999
20
93.253221800000006
30
0
11
2.3799009000000115
21
93.253221800000006
31
0
0
LWPOLYLINE
5
117
100
AcDbEntity
8
0
100
AcDbPolyline
90
22
70
1
43
0.0
10
2.3799009000000115
20
93.253221800000006
10
2.3799009000000124
20
10.866061507659699
10
6.3799009000000204
20
10.866061507659701
10
13.100720637625285
20
4.145241770034449
10
23.000215574236968
20
-5.7542531665772145
10
32.899710510848621
20
4.1452417700344668
10
38.593419770506934
20
8.1320199175853958
10
51.281728784050159
20
14.048675592613158
10
92.19240090000001
20
14.048675592613158
10
92.19240090000001
20
31.340721800000022
10
134.47371136790866
20
31.340721800000033
10
143.69050253512526
20
30.045386285657383
10
150.9414211344417
20
81.638352650024444
10
125.52990090000002
20
85.209708935366407
10
125.52990090000002
20
98.015721800000023
10
106.47990090000002
20
98.015721800000023
10
106.47990090000002
20
102.77822180000003
10
92.479900900000018
20
102.77822180000003
10
92.479900900000018
20
93.25322180000002
10
6.3799009000000106
20
93.253221800000006
10
6.3799009000000115
20
90.253221800000006
10
2.3799009000000115
20
90.253221800000006
0
LINE
5
118
100
AcDbEntity
8
0
100
AcDbLine
10
-128.31786637360383
20
83.586776074452587
30
0
11
-126.36944294917568
21
69.723023113614758
31
0
0
LINE
5
119
100
AcDbEntity
8
0
100
AcDbLine
10
-126.36944294917568
20
69.723023113614758
30
0
11
-140.23319591001351
21
67.774599689186601
31
0
0
LINE
5
120
100
AcDbEntity
8
0
100
AcDbLine
10
6.3799009000000106
20
93.253221800000006
30
0
11
6.3799009000000204
21
10.866061507659701
31
0
0
LINE
5
121
100
AcDbEntity
8
0
100
AcDbLine
10
135.12924474917571
20
69.723023113614772
30
0
11
148.99299771001353
21
67.774599689186616
31
0
0
LINE
5
122
100
AcDbEntity
8
0
100
AcDbLine
10
106.47990090000002
20
102.77822180000003
30
0
11
92.479900900000018
21
102.77822180000003
31
0
0
LINE
5
123
100
AcDbEntity
8
0
100
AcDbLine
10
137.07766817360385
20
83.586776074452601
30
0
11
135.12924474917571
21
69.723023113614772
31
0
0
LINE
5
124
100
AcDbEntity
8
0
100
AcDbLine
10
2.3799009000000115
20
90.253221800000006
30
0
11
2.3799009000000115
21
89.253221800000006
31
0
0
LINE
5
125
100
AcDbEntity
8
0
100
AcDbLine
10
2.3799009000000115
20
89.253221800000006
30
0
11
6.3799009000000106
21
89.253221800000006
31
0
0
LINE
5
126
100
AcDbEntity
8
0
100
AcDbLine
10
3.8241488498879246
20
11.866061507659701
30
0
11
2.3799009000000124
21
11.866061507659701
31
0
0
LINE
5
127
100
AcDbEntity
8
0
100
AcDbLine
10
3.8241488498879246
20
11.866061507659701
30
0
11
6.3799009000000204
21
11.866061507659705
31
0
0
ENDSEC
0
SECTION
2
OBJECTS
0
DICTIONARY
5
C
100
AcDbDictionary
3
ACAD_GROUP
350
D
3
ACAD_MLINESTYLE
350
17
0
DICTIONARY
5
D
100
AcDbDictionary
0
DICTIONARY
5
1A
330
C
100
AcDbDictionary
0
DICTIONARY
5
17
100
AcDbDictionary
0
ENDSEC
0
EOF
