<?xml version="1.0" standalone="no"?>
 <!DOCTYPE svg PUBLIC "-//W3C//DTD SVG 1.1//EN" 
 "http://www.w3.org/Graphics/SVG/1.1/DTD/svg11.dtd"> 
<svg
  xmlns:svg="http://www.w3.org/2000/svg"
  xmlns="http://www.w3.org/2000/svg"
  xmlns:xlink="http://www.w3.org/1999/xlink"
  version="1.1"
  width="33.507680cm" height="14.790420cm" viewBox="0 0 335076800 147904200">
<title>SVG Picture created as xiao_split-F_Silkscreen.svg date 2022/09/27 17:56:22 </title>
  <desc>Picture generated by PCBNEW </desc>
<g style="fill:#000000; fill-opacity:1.000000;stroke:#000000; stroke-opacity:1.000000;
stroke-linecap:round; stroke-linejoin:round;"
 transform="translate(0 0) scale(1 1)">
</g>
<g style="fill:#000000; fill-opacity:0.0; 
stroke:#000000; stroke-width:0.000000; stroke-opacity:1; 
stroke-linecap:round; stroke-linejoin:round;">
</g>
<g style="fill:#000000; fill-opacity:0.0; 
stroke:#000000; stroke-width:150000.000000; stroke-opacity:1; 
stroke-linecap:round; stroke-linejoin:round;">
<text x="48266800.000000" y="83040000.000000"
textLength="1238096.000000" font-size="1333333.000000" lengthAdjust="spacingAndGlyphs"
text-anchor="middle" opacity="0">+</text>
<g class="stroked-text"><desc>+</desc>
<path d="M48647753 82611428
L47885848 82611428
" />
<path d="M48266800 82992380
L48266800 82230476
" />
</g><g transform="rotate(-315.000000 194816800.000000 50950000.000000)">
<text x="194816800.000000" y="51450000.000000"
textLength="2147381.000000" font-size="1333333.000000" lengthAdjust="spacingAndGlyphs"
text-anchor="middle" opacity="0">R7</text>
</g>
<g class="stroked-text"><desc>R7</desc>
<path d="M195254533 51152030
L195153518 50579610
" />
<path d="M195658594 50747969
L194951488 50040862
L194682113 50310236
L194648442 50411251
L194648442 50478595
L194682113 50579610
L194783129 50680625
L194884144 50714297
L194951488 50714297
L195052503 50680625
L195321877 50411251
" />
<path d="M194311724 50680625
L193840320 51152030
L194850472 51556091
" />
</g><text x="291046800.000000" y="83030000.000000"
textLength="1433095.000000" font-size="1333333.000000" lengthAdjust="spacingAndGlyphs"
text-anchor="middle" opacity="0">-</text>
<g class="stroked-text"><desc>-</desc>
<path d="M291427753 82601428
L290665848 82601428
" />
</g><text x="139996800.000000" y="48170000.000000"
textLength="6814048.000000" font-size="1333333.000000" lengthAdjust="spacingAndGlyphs"
text-anchor="middle" opacity="0">| MCU |</text>
<g class="stroked-text"><desc>| MCU |</desc>
<path d="M142830134 48455714
L142830134 47027142
" />
<path d="M141353943 48122380
L141353943 47122380
L141020610 47836666
L140687277 47122380
L140687277 48122380
" />
<path d="M139639658 48027142
L139687277 48074761
L139830134 48122380
L139925372 48122380
L140068229 48074761
L140163467 47979523
L140211086 47884285
L140258705 47693809
L140258705 47550952
L140211086 47360476
L140163467 47265238
L140068229 47170000
L139925372 47122380
L139830134 47122380
L139687277 47170000
L139639658 47217619
" />
<path d="M139211086 47122380
L139211086 47931904
L139163467 48027142
L139115848 48074761
L139020610 48122380
L138830134 48122380
L138734896 48074761
L138687277 48027142
L138639658 47931904
L138639658 47122380
" />
<path d="M137163467 48455714
L137163467 47027142
" />
</g><text x="61406800.000000" y="83110000.000000"
textLength="1433095.000000" font-size="1333333.000000" lengthAdjust="spacingAndGlyphs"
text-anchor="middle" opacity="0">-</text>
<g class="stroked-text"><desc>-</desc>
<path d="M61787753 82681428
L61025848 82681428
" />
</g><text x="277906800.000000" y="82960000.000000"
textLength="1433095.000000" font-size="1333333.000000" lengthAdjust="spacingAndGlyphs"
text-anchor="middle" opacity="0">+</text>
<g class="stroked-text"><desc>+</desc>
<path d="M278287753 82531428
L277525848 82531428
" />
<path d="M277906800 82912380
L277906800 82150476
" />
</g><g transform="rotate(-315.000000 151266800.000000 50570000.000000)">
<text x="151266800.000000" y="51070000.000000"
textLength="3099762.000000" font-size="1333333.000000" lengthAdjust="spacingAndGlyphs"
text-anchor="middle" opacity="0">R19</text>
</g>
<g class="stroked-text"><desc>R19</desc>
<path d="M152041251 50435312
L151940236 49862893
" />
<path d="M152445312 50031251
L151738205 49324145
L151468831 49593519
L151435159 49694534
L151435159 49761877
L151468831 49862893
L151569846 49963908
L151670862 49997580
L151738205 49997580
L151839220 49963908
L152108594 49694534
" />
<path d="M151367816 51108748
L151771877 50704687
" />
<path d="M151569846 50906717
L150862739 50199610
L151031098 50233282
L151165785 50233282
L151266800 50199610
" />
<path d="M151031098 51445465
L150896411 51580152
L150795396 51613824
L150728052 51613824
L150559694 51580152
L150391335 51479137
L150121961 51209763
L150088289 51108748
L150088289 51041404
L150121961 50940389
L150256648 50805702
L150357663 50772030
L150425007 50772030
L150526022 50805702
L150694381 50974061
L150728052 51075076
L150728052 51142419
L150694381 51243435
L150559694 51378122
L150458678 51411793
L150391335 51411793
L150290320 51378122
" />
</g><text x="200736800.000000" y="48170000.000000"
textLength="6814048.000000" font-size="1333333.000000" lengthAdjust="spacingAndGlyphs"
text-anchor="middle" opacity="0">| MCU |</text>
<g class="stroked-text"><desc>| MCU |</desc>
<path d="M203570134 48455714
L203570134 47027142
" />
<path d="M202093943 48122380
L202093943 47122380
L201760610 47836666
L201427277 47122380
L201427277 48122380
" />
<path d="M200379658 48027142
L200427277 48074761
L200570134 48122380
L200665372 48122380
L200808229 48074761
L200903467 47979523
L200951086 47884285
L200998705 47693809
L200998705 47550952
L200951086 47360476
L200903467 47265238
L200808229 47170000
L200665372 47122380
L200570134 47122380
L200427277 47170000
L200379658 47217619
" />
<path d="M199951086 47122380
L199951086 47931904
L199903467 48027142
L199855848 48074761
L199760610 48122380
L199570134 48122380
L199474896 48074761
L199427277 48027142
L199379658 47931904
L199379658 47122380
" />
<path d="M197903467 48455714
L197903467 47027142
" />
</g><text x="54806800.000000" y="79770000.000000"
textLength="6099762.000000" font-size="1333333.000000" lengthAdjust="spacingAndGlyphs"
text-anchor="middle" opacity="0">Speaker</text>
<g class="stroked-text"><desc>Speaker</desc>
<path d="M57568705 79674761
L57425848 79722380
L57187753 79722380
L57092515 79674761
L57044896 79627142
L56997277 79531904
L56997277 79436666
L57044896 79341428
L57092515 79293809
L57187753 79246190
L57378229 79198571
L57473467 79150952
L57521086 79103333
L57568705 79008095
L57568705 78912857
L57521086 78817619
L57473467 78770000
L57378229 78722380
L57140134 78722380
L56997277 78770000
" />
<path d="M56568705 79055714
L56568705 80055714
" />
<path d="M56568705 79103333
L56473467 79055714
L56282991 79055714
L56187753 79103333
L56140134 79150952
L56092515 79246190
L56092515 79531904
L56140134 79627142
L56187753 79674761
L56282991 79722380
L56473467 79722380
L56568705 79674761
" />
<path d="M55282991 79674761
L55378229 79722380
L55568705 79722380
L55663943 79674761
L55711562 79579523
L55711562 79198571
L55663943 79103333
L55568705 79055714
L55378229 79055714
L55282991 79103333
L55235372 79198571
L55235372 79293809
L55711562 79389047
" />
<path d="M54378229 79722380
L54378229 79198571
L54425848 79103333
L54521086 79055714
L54711562 79055714
L54806800 79103333
" />
<path d="M54378229 79674761
L54473467 79722380
L54711562 79722380
L54806800 79674761
L54854420 79579523
L54854420 79484285
L54806800 79389047
L54711562 79341428
L54473467 79341428
L54378229 79293809
" />
<path d="M53902039 79722380
L53902039 78722380
" />
<path d="M53806800 79341428
L53521086 79722380
" />
<path d="M53521086 79055714
L53902039 79436666
" />
<path d="M52711562 79674761
L52806800 79722380
L52997277 79722380
L53092515 79674761
L53140134 79579523
L53140134 79198571
L53092515 79103333
L52997277 79055714
L52806800 79055714
L52711562 79103333
L52663943 79198571
L52663943 79293809
L53140134 79389047
" />
<path d="M52235372 79722380
L52235372 79055714
" />
<path d="M52235372 79246190
L52187753 79150952
L52140134 79103333
L52044896 79055714
L51949658 79055714
" />
</g><text x="284466800.000000" y="79770000.000000"
textLength="6099762.000000" font-size="1333333.000000" lengthAdjust="spacingAndGlyphs"
text-anchor="middle" opacity="0">Speaker</text>
<g class="stroked-text"><desc>Speaker</desc>
<path d="M287228705 79674761
L287085848 79722380
L286847753 79722380
L286752515 79674761
L286704896 79627142
L286657277 79531904
L286657277 79436666
L286704896 79341428
L286752515 79293809
L286847753 79246190
L287038229 79198571
L287133467 79150952
L287181086 79103333
L287228705 79008095
L287228705 78912857
L287181086 78817619
L287133467 78770000
L287038229 78722380
L286800134 78722380
L286657277 78770000
" />
<path d="M286228705 79055714
L286228705 80055714
" />
<path d="M286228705 79103333
L286133467 79055714
L285942991 79055714
L285847753 79103333
L285800134 79150952
L285752515 79246190
L285752515 79531904
L285800134 79627142
L285847753 79674761
L285942991 79722380
L286133467 79722380
L286228705 79674761
" />
<path d="M284942991 79674761
L285038229 79722380
L285228705 79722380
L285323943 79674761
L285371562 79579523
L285371562 79198571
L285323943 79103333
L285228705 79055714
L285038229 79055714
L284942991 79103333
L284895372 79198571
L284895372 79293809
L285371562 79389047
" />
<path d="M284038229 79722380
L284038229 79198571
L284085848 79103333
L284181086 79055714
L284371562 79055714
L284466800 79103333
" />
<path d="M284038229 79674761
L284133467 79722380
L284371562 79722380
L284466800 79674761
L284514420 79579523
L284514420 79484285
L284466800 79389047
L284371562 79341428
L284133467 79341428
L284038229 79293809
" />
<path d="M283562039 79722380
L283562039 78722380
" />
<path d="M283466800 79341428
L283181086 79722380
" />
<path d="M283181086 79055714
L283562039 79436666
" />
<path d="M282371562 79674761
L282466800 79722380
L282657277 79722380
L282752515 79674761
L282800134 79579523
L282800134 79198571
L282752515 79103333
L282657277 79055714
L282466800 79055714
L282371562 79103333
L282323943 79198571
L282323943 79293809
L282800134 79389047
" />
<path d="M281895372 79722380
L281895372 79055714
" />
<path d="M281895372 79246190
L281847753 79150952
L281800134 79103333
L281704896 79055714
L281609658 79055714
" />
</g><g transform="rotate(-90.000000 201566800.000000 64130000.000000)">
<text x="201566800.000000" y="64630000.000000"
textLength="2147381.000000" font-size="1333333.000000" lengthAdjust="spacingAndGlyphs"
text-anchor="middle" opacity="0">R8</text>
</g>
<g class="stroked-text"><desc>R8</desc>
<path d="M201114420 64296666
L201590610 64630000
" />
<path d="M201114420 64868095
L202114420 64868095
L202114420 64487142
L202066800 64391904
L202019181 64344285
L201923943 64296666
L201781086 64296666
L201685848 64344285
L201638229 64391904
L201590610 64487142
L201590610 64868095
" />
<path d="M201685848 63725238
L201733467 63820476
L201781086 63868095
L201876324 63915714
L201923943 63915714
L202019181 63868095
L202066800 63820476
L202114420 63725238
L202114420 63534761
L202066800 63439523
L202019181 63391904
L201923943 63344285
L201876324 63344285
L201781086 63391904
L201733467 63439523
L201685848 63534761
L201685848 63725238
L201638229 63820476
L201590610 63868095
L201495372 63915714
L201304896 63915714
L201209658 63868095
L201162039 63820476
L201114420 63725238
L201114420 63534761
L201162039 63439523
L201209658 63391904
L201304896 63344285
L201495372 63344285
L201590610 63391904
L201638229 63439523
L201685848 63534761
" />
</g><g transform="rotate(-90.000000 157166800.000000 63730000.000000)">
<text x="157166800.000000" y="64230000.000000"
textLength="3099762.000000" font-size="1333333.000000" lengthAdjust="spacingAndGlyphs"
text-anchor="middle" opacity="0">R16</text>
</g>
<g class="stroked-text"><desc>R16</desc>
<path d="M156714420 64372857
L157190610 64706190
" />
<path d="M156714420 64944285
L157714420 64944285
L157714420 64563333
L157666800 64468095
L157619181 64420476
L157523943 64372857
L157381086 64372857
L157285848 64420476
L157238229 64468095
L157190610 64563333
L157190610 64944285
" />
<path d="M156714420 63420476
L156714420 63991904
" />
<path d="M156714420 63706190
L157714420 63706190
L157571562 63801428
L157476324 63896666
L157428705 63991904
" />
<path d="M157714420 62563333
L157714420 62753809
L157666800 62849047
L157619181 62896666
L157476324 62991904
L157285848 63039523
L156904896 63039523
L156809658 62991904
L156762039 62944285
L156714420 62849047
L156714420 62658571
L156762039 62563333
L156809658 62515714
L156904896 62468095
L157142991 62468095
L157238229 62515714
L157285848 62563333
L157333467 62658571
L157333467 62849047
L157285848 62944285
L157238229 62991904
L157142991 63039523
" />
</g><text x="191346800.000000" y="74870000.000000"
textLength="2147381.000000" font-size="1333333.000000" lengthAdjust="spacingAndGlyphs"
text-anchor="middle" opacity="0">R2</text>
<g class="stroked-text"><desc>R2</desc>
<path d="M191513467 74822380
L191846800 74346190
" />
<path d="M192084896 74822380
L192084896 73822380
L191703943 73822380
L191608705 73870000
L191561086 73917619
L191513467 74012857
L191513467 74155714
L191561086 74250952
L191608705 74298571
L191703943 74346190
L192084896 74346190
" />
<path d="M191132515 73917619
L191084896 73870000
L190989658 73822380
L190751562 73822380
L190656324 73870000
L190608705 73917619
L190561086 74012857
L190561086 74108095
L190608705 74250952
L191180134 74822380
L190561086 74822380
" />
</g><g transform="rotate(-90.000000 183496800.000000 64310000.000000)">
<text x="183496800.000000" y="64810000.000000"
textLength="2147381.000000" font-size="1333333.000000" lengthAdjust="spacingAndGlyphs"
text-anchor="middle" opacity="0">R6</text>
</g>
<g class="stroked-text"><desc>R6</desc>
<path d="M183044420 64476666
L183520610 64810000
" />
<path d="M183044420 65048095
L184044420 65048095
L184044420 64667142
L183996800 64571904
L183949181 64524285
L183853943 64476666
L183711086 64476666
L183615848 64524285
L183568229 64571904
L183520610 64667142
L183520610 65048095
" />
<path d="M184044420 63619523
L184044420 63810000
L183996800 63905238
L183949181 63952857
L183806324 64048095
L183615848 64095714
L183234896 64095714
L183139658 64048095
L183092039 64000476
L183044420 63905238
L183044420 63714761
L183092039 63619523
L183139658 63571904
L183234896 63524285
L183472991 63524285
L183568229 63571904
L183615848 63619523
L183663467 63714761
L183663467 63905238
L183615848 64000476
L183568229 64048095
L183472991 64095714
" />
</g><g transform="rotate(-90.000000 139486800.000000 63670000.000000)">
<text x="139486800.000000" y="64170000.000000"
textLength="3099762.000000" font-size="1333333.000000" lengthAdjust="spacingAndGlyphs"
text-anchor="middle" opacity="0">R15</text>
</g>
<g class="stroked-text"><desc>R15</desc>
<path d="M139034420 64312857
L139510610 64646190
" />
<path d="M139034420 64884285
L140034420 64884285
L140034420 64503333
L139986800 64408095
L139939181 64360476
L139843943 64312857
L139701086 64312857
L139605848 64360476
L139558229 64408095
L139510610 64503333
L139510610 64884285
" />
<path d="M139034420 63360476
L139034420 63931904
" />
<path d="M139034420 63646190
L140034420 63646190
L139891562 63741428
L139796324 63836666
L139748705 63931904
" />
<path d="M140034420 62455714
L140034420 62931904
L139558229 62979523
L139605848 62931904
L139653467 62836666
L139653467 62598571
L139605848 62503333
L139558229 62455714
L139462991 62408095
L139224896 62408095
L139129658 62455714
L139082039 62503333
L139034420 62598571
L139034420 62836666
L139082039 62931904
L139129658 62979523
" />
</g><g transform="rotate(-90.000000 185556800.000000 64310000.000000)">
<text x="185556800.000000" y="64810000.000000"
textLength="2147381.000000" font-size="1333333.000000" lengthAdjust="spacingAndGlyphs"
text-anchor="middle" opacity="0">R1</text>
</g>
<g class="stroked-text"><desc>R1</desc>
<path d="M185104420 64476666
L185580610 64810000
" />
<path d="M185104420 65048095
L186104420 65048095
L186104420 64667142
L186056800 64571904
L186009181 64524285
L185913943 64476666
L185771086 64476666
L185675848 64524285
L185628229 64571904
L185580610 64667142
L185580610 65048095
" />
<path d="M185104420 63524285
L185104420 64095714
" />
<path d="M185104420 63810000
L186104420 63810000
L185961562 63905238
L185866324 64000476
L185818705 64095714
" />
</g><g transform="rotate(-90.000000 159146800.000000 63750000.000000)">
<text x="159146800.000000" y="64250000.000000"
textLength="3099762.000000" font-size="1333333.000000" lengthAdjust="spacingAndGlyphs"
text-anchor="middle" opacity="0">R18</text>
</g>
<g class="stroked-text"><desc>R18</desc>
<path d="M158694420 64392857
L159170610 64726190
" />
<path d="M158694420 64964285
L159694420 64964285
L159694420 64583333
L159646800 64488095
L159599181 64440476
L159503943 64392857
L159361086 64392857
L159265848 64440476
L159218229 64488095
L159170610 64583333
L159170610 64964285
" />
<path d="M158694420 63440476
L158694420 64011904
" />
<path d="M158694420 63726190
L159694420 63726190
L159551562 63821428
L159456324 63916666
L159408705 64011904
" />
<path d="M159265848 62869047
L159313467 62964285
L159361086 63011904
L159456324 63059523
L159503943 63059523
L159599181 63011904
L159646800 62964285
L159694420 62869047
L159694420 62678571
L159646800 62583333
L159599181 62535714
L159503943 62488095
L159456324 62488095
L159361086 62535714
L159313467 62583333
L159265848 62678571
L159265848 62869047
L159218229 62964285
L159170610 63011904
L159075372 63059523
L158884896 63059523
L158789658 63011904
L158742039 62964285
L158694420 62869047
L158694420 62678571
L158742039 62583333
L158789658 62535714
L158884896 62488095
L159075372 62488095
L159170610 62535714
L159218229 62583333
L159265848 62678571
" />
</g><g transform="rotate(-90.000000 199566800.000000 63700000.000000)">
<text x="199566800.000000" y="64200000.000000"
textLength="3099762.000000" font-size="1333333.000000" lengthAdjust="spacingAndGlyphs"
text-anchor="middle" opacity="0">R10</text>
</g>
<g class="stroked-text"><desc>R10</desc>
<path d="M199114420 64342857
L199590610 64676190
" />
<path d="M199114420 64914285
L200114420 64914285
L200114420 64533333
L200066800 64438095
L200019181 64390476
L199923943 64342857
L199781086 64342857
L199685848 64390476
L199638229 64438095
L199590610 64533333
L199590610 64914285
" />
<path d="M199114420 63390476
L199114420 63961904
" />
<path d="M199114420 63676190
L200114420 63676190
L199971562 63771428
L199876324 63866666
L199828705 63961904
" />
<path d="M200114420 62771428
L200114420 62676190
L200066800 62580952
L200019181 62533333
L199923943 62485714
L199733467 62438095
L199495372 62438095
L199304896 62485714
L199209658 62533333
L199162039 62580952
L199114420 62676190
L199114420 62771428
L199162039 62866666
L199209658 62914285
L199304896 62961904
L199495372 63009523
L199733467 63009523
L199923943 62961904
L200019181 62914285
L200066800 62866666
L200114420 62771428
" />
</g><g transform="rotate(-90.000000 155176800.000000 63760000.000000)">
<text x="155176800.000000" y="64260000.000000"
textLength="3099762.000000" font-size="1333333.000000" lengthAdjust="spacingAndGlyphs"
text-anchor="middle" opacity="0">R20</text>
</g>
<g class="stroked-text"><desc>R20</desc>
<path d="M154724420 64402857
L155200610 64736190
" />
<path d="M154724420 64974285
L155724420 64974285
L155724420 64593333
L155676800 64498095
L155629181 64450476
L155533943 64402857
L155391086 64402857
L155295848 64450476
L155248229 64498095
L155200610 64593333
L155200610 64974285
" />
<path d="M155629181 64021904
L155676800 63974285
L155724420 63879047
L155724420 63640952
L155676800 63545714
L155629181 63498095
L155533943 63450476
L155438705 63450476
L155295848 63498095
L154724420 64069523
L154724420 63450476
" />
<path d="M155724420 62831428
L155724420 62736190
L155676800 62640952
L155629181 62593333
L155533943 62545714
L155343467 62498095
L155105372 62498095
L154914896 62545714
L154819658 62593333
L154772039 62640952
L154724420 62736190
L154724420 62831428
L154772039 62926666
L154819658 62974285
L154914896 63021904
L155105372 63069523
L155343467 63069523
L155533943 63021904
L155629181 62974285
L155676800 62926666
L155724420 62831428
" />
</g><g transform="rotate(-45.000000 189886800.000000 50960000.000000)">
<text x="189886800.000000" y="51460000.000000"
textLength="2147381.000000" font-size="1333333.000000" lengthAdjust="spacingAndGlyphs"
text-anchor="middle" opacity="0">R9</text>
</g>
<g class="stroked-text"><desc>R9</desc>
<path d="M189684770 51397732
L190257190 51296717
" />
<path d="M190088831 51801793
L190795938 51094687
L190526564 50825312
L190425549 50791641
L190358205 50791641
L190257190 50825312
L190156175 50926328
L190122503 51027343
L190122503 51094687
L190156175 51195702
L190425549 51465076
" />
<path d="M189348052 51061015
L189213365 50926328
L189179694 50825312
L189179694 50757969
L189213365 50589610
L189314381 50421251
L189583755 50151877
L189684770 50118206
L189752113 50118206
L189853129 50151877
L189987816 50286564
L190021488 50387580
L190021488 50454923
L189987816 50555938
L189819457 50724297
L189718442 50757969
L189651098 50757969
L189550083 50724297
L189415396 50589610
L189381724 50488595
L189381724 50421251
L189415396 50320236
" />
</g><text x="195176800.000000" y="64940000.000000"
textLength="2195000.000000" font-size="1333333.000000" lengthAdjust="spacingAndGlyphs"
text-anchor="middle" opacity="0">U1</text>
<g class="stroked-text"><desc>U1</desc>
<path d="M195938705 63892380
L195938705 64701904
L195891086 64797142
L195843467 64844761
L195748229 64892380
L195557753 64892380
L195462515 64844761
L195414896 64797142
L195367277 64701904
L195367277 63892380
" />
<path d="M194367277 64892380
L194938705 64892380
" />
<path d="M194652991 64892380
L194652991 63892380
L194748229 64035238
L194843467 64130476
L194938705 64178095
" />
</g><g transform="rotate(-90.000000 141466800.000000 63670000.000000)">
<text x="141466800.000000" y="64170000.000000"
textLength="3099762.000000" font-size="1333333.000000" lengthAdjust="spacingAndGlyphs"
text-anchor="middle" opacity="0">R14</text>
</g>
<g class="stroked-text"><desc>R14</desc>
<path d="M141014420 64312857
L141490610 64646190
" />
<path d="M141014420 64884285
L142014420 64884285
L142014420 64503333
L141966800 64408095
L141919181 64360476
L141823943 64312857
L141681086 64312857
L141585848 64360476
L141538229 64408095
L141490610 64503333
L141490610 64884285
" />
<path d="M141014420 63360476
L141014420 63931904
" />
<path d="M141014420 63646190
L142014420 63646190
L141871562 63741428
L141776324 63836666
L141728705 63931904
" />
<path d="M141681086 62503333
L141014420 62503333
" />
<path d="M142062039 62741428
L141347753 62979523
L141347753 62360476
" />
</g><g transform="rotate(-45.000000 145696800.000000 50650000.000000)">
<text x="145696800.000000" y="51150000.000000"
textLength="3099762.000000" font-size="1333333.000000" lengthAdjust="spacingAndGlyphs"
text-anchor="middle" opacity="0">R17</text>
</g>
<g class="stroked-text"><desc>R17</desc>
<path d="M145831488 51424450
L146403907 51323435
" />
<path d="M146235549 51828511
L146942655 51121404
L146673281 50852030
L146572266 50818358
L146504923 50818358
L146403907 50852030
L146302892 50953045
L146269220 51054061
L146269220 51121404
L146302892 51222419
L146572266 51491793
" />
<path d="M145158052 50751015
L145562113 51155076
" />
<path d="M145360083 50953045
L146067190 50245938
L146033518 50414297
L146033518 50548984
L146067190 50650000
" />
<path d="M145629457 49808206
L145158052 49336801
L144753991 50346954
" />
</g><g transform="rotate(-90.000000 203716800.000000 64160000.000000)">
<text x="203716800.000000" y="64660000.000000"
textLength="2147381.000000" font-size="1333333.000000" lengthAdjust="spacingAndGlyphs"
text-anchor="middle" opacity="0">R3</text>
</g>
<g class="stroked-text"><desc>R3</desc>
<path d="M203264420 64326666
L203740610 64660000
" />
<path d="M203264420 64898095
L204264420 64898095
L204264420 64517142
L204216800 64421904
L204169181 64374285
L204073943 64326666
L203931086 64326666
L203835848 64374285
L203788229 64421904
L203740610 64517142
L203740610 64898095
" />
<path d="M204264420 63993333
L204264420 63374285
L203883467 63707619
L203883467 63564761
L203835848 63469523
L203788229 63421904
L203692991 63374285
L203454896 63374285
L203359658 63421904
L203312039 63469523
L203264420 63564761
L203264420 63850476
L203312039 63945714
L203359658 63993333
" />
</g><text x="146566800.000000" y="74770000.000000"
textLength="3099762.000000" font-size="1333333.000000" lengthAdjust="spacingAndGlyphs"
text-anchor="middle" opacity="0">R11</text>
<g class="stroked-text"><desc>R11</desc>
<path d="M147209658 74722380
L147542991 74246190
" />
<path d="M147781086 74722380
L147781086 73722380
L147400134 73722380
L147304896 73770000
L147257277 73817619
L147209658 73912857
L147209658 74055714
L147257277 74150952
L147304896 74198571
L147400134 74246190
L147781086 74246190
" />
<path d="M146257277 74722380
L146828705 74722380
" />
<path d="M146542991 74722380
L146542991 73722380
L146638229 73865238
L146733467 73960476
L146828705 74008095
" />
<path d="M145304896 74722380
L145876324 74722380
" />
<path d="M145590610 74722380
L145590610 73722380
L145685848 73865238
L145781086 73960476
L145876324 74008095
" />
</g><text x="150336800.000000" y="74840000.000000"
textLength="3099762.000000" font-size="1333333.000000" lengthAdjust="spacingAndGlyphs"
text-anchor="middle" opacity="0">R13</text>
<g class="stroked-text"><desc>R13</desc>
<path d="M150979658 74792380
L151312991 74316190
" />
<path d="M151551086 74792380
L151551086 73792380
L151170134 73792380
L151074896 73840000
L151027277 73887619
L150979658 73982857
L150979658 74125714
L151027277 74220952
L151074896 74268571
L151170134 74316190
L151551086 74316190
" />
<path d="M150027277 74792380
L150598705 74792380
" />
<path d="M150312991 74792380
L150312991 73792380
L150408229 73935238
L150503467 74030476
L150598705 74078095
" />
<path d="M149693943 73792380
L149074896 73792380
L149408229 74173333
L149265372 74173333
L149170134 74220952
L149122515 74268571
L149074896 74363809
L149074896 74601904
L149122515 74697142
L149170134 74744761
L149265372 74792380
L149551086 74792380
L149646324 74744761
L149693943 74697142
" />
</g><g transform="rotate(-90.000000 181466800.000000 64320000.000000)">
<text x="181466800.000000" y="64820000.000000"
textLength="2147381.000000" font-size="1333333.000000" lengthAdjust="spacingAndGlyphs"
text-anchor="middle" opacity="0">R4</text>
</g>
<g class="stroked-text"><desc>R4</desc>
<path d="M181014420 64486666
L181490610 64820000
" />
<path d="M181014420 65058095
L182014420 65058095
L182014420 64677142
L181966800 64581904
L181919181 64534285
L181823943 64486666
L181681086 64486666
L181585848 64534285
L181538229 64581904
L181490610 64677142
L181490610 65058095
" />
<path d="M181681086 63629523
L181014420 63629523
" />
<path d="M182062039 63867619
L181347753 64105714
L181347753 63486666
" />
</g><text x="151396800.000000" y="64620000.000000"
textLength="2195000.000000" font-size="1333333.000000" lengthAdjust="spacingAndGlyphs"
text-anchor="middle" opacity="0">U2</text>
<g class="stroked-text"><desc>U2</desc>
<path d="M152158705 63572380
L152158705 64381904
L152111086 64477142
L152063467 64524761
L151968229 64572380
L151777753 64572380
L151682515 64524761
L151634896 64477142
L151587277 64381904
L151587277 63572380
" />
<path d="M151158705 63667619
L151111086 63620000
L151015848 63572380
L150777753 63572380
L150682515 63620000
L150634896 63667619
L150587277 63762857
L150587277 63858095
L150634896 64000952
L151206324 64572380
L150587277 64572380
" />
</g><text x="193546800.000000" y="74880000.000000"
textLength="2147381.000000" font-size="1333333.000000" lengthAdjust="spacingAndGlyphs"
text-anchor="middle" opacity="0">R5</text>
<g class="stroked-text"><desc>R5</desc>
<path d="M193713467 74832380
L194046800 74356190
" />
<path d="M194284896 74832380
L194284896 73832380
L193903943 73832380
L193808705 73880000
L193761086 73927619
L193713467 74022857
L193713467 74165714
L193761086 74260952
L193808705 74308571
L193903943 74356190
L194284896 74356190
" />
<path d="M192808705 73832380
L193284896 73832380
L193332515 74308571
L193284896 74260952
L193189658 74213333
L192951562 74213333
L192856324 74260952
L192808705 74308571
L192761086 74403809
L192761086 74641904
L192808705 74737142
L192856324 74784761
L192951562 74832380
L193189658 74832380
L193284896 74784761
L193332515 74737142
" />
</g><g transform="rotate(-90.000000 137406800.000000 63630000.000000)">
<text x="137406800.000000" y="64130000.000000"
textLength="3099762.000000" font-size="1333333.000000" lengthAdjust="spacingAndGlyphs"
text-anchor="middle" opacity="0">R12</text>
</g>
<g class="stroked-text"><desc>R12</desc>
<path d="M136954420 64272857
L137430610 64606190
" />
<path d="M136954420 64844285
L137954420 64844285
L137954420 64463333
L137906800 64368095
L137859181 64320476
L137763943 64272857
L137621086 64272857
L137525848 64320476
L137478229 64368095
L137430610 64463333
L137430610 64844285
" />
<path d="M136954420 63320476
L136954420 63891904
" />
<path d="M136954420 63606190
L137954420 63606190
L137811562 63701428
L137716324 63796666
L137668705 63891904
" />
<path d="M137859181 62939523
L137906800 62891904
L137954420 62796666
L137954420 62558571
L137906800 62463333
L137859181 62415714
L137763943 62368095
L137668705 62368095
L137525848 62415714
L136954420 62987142
L136954420 62368095
" />
</g></g>
<g style="fill:#000000; fill-opacity:0.0; 
stroke:#000000; stroke-width:120000.000000; stroke-opacity:1; 
stroke-linecap:round; stroke-linejoin:round;">
<path d="M200821800 67057064
L200821800 66602936
" />
<path d="M202291800 67057064
L202291800 66602936
" />
<path d="M161756800 62890000
L163876800 62890000
" />
<path d="M163876800 68950000
L163876800 62890000
" />
<path d="M162816800 71010000
L163876800 71010000
" />
<path d="M161756800 68950000
L161756800 62890000
" />
<path d="M163876800 71010000
L163876800 69950000
" />
<path d="M161756800 68950000
L163876800 68950000
" />
<path d="M151186628 100157130
L152219003 99124754
" />
<path d="M151186628 100157130
L150529018 99499521
" />
<path d="M148952170 97922672
L150479521 96395322
" />
<path d="M148952170 97922672
L149609779 98580282
" />
</g>
<g style="fill:#000000; fill-opacity:0.0; 
stroke:#000000; stroke-width:150000.000000; stroke-opacity:1; 
stroke-linecap:round; stroke-linejoin:round;">
<path d="M188686800 30847500
L188686800 42947500
" />
<path d="M182836800 30847500
L182836800 28847500
" />
<path d="M182836800 28847500
L188436800 28847500
" />
<path d="M182586800 42947500
L188686800 42947500
" />
<path d="M182586800 30847500
L182586800 42947500
" />
<path d="M182586800 30847500
L188686800 30847500
" />
<path d="M188436800 30847500
L188436800 28847500
" />
<path d="M151786800 30847500
L151786800 42947500
" />
<path d="M157886800 30847500
L157886800 42947500
" />
<path d="M152036800 30847500
L152036800 28847500
" />
<path d="M152036800 28847500
L157636800 28847500
" />
<path d="M151786800 42947500
L157886800 42947500
" />
<path d="M157636800 30847500
L157636800 28847500
" />
<path d="M151786800 30847500
L157886800 30847500
" />
</g>
<g style="fill:#000000; fill-opacity:0.0; 
stroke:#000000; stroke-width:120000.000000; stroke-opacity:1; 
stroke-linecap:round; stroke-linejoin:round;">
<path d="M157891800 67067064
L157891800 66612936
" />
<path d="M156421800 67067064
L156421800 66612936
" />
<path d="M190259736 73365000
L190713864 73365000
" />
<path d="M190259736 71895000
L190713864 71895000
" />
<path d="M194545965 52369718
L194867082 52690835
" />
<path d="M193506518 53409165
L193827635 53730282
" />
<path d="M160176972 107027870
L159144597 108060246
" />
<path d="M162411430 109262328
L160884079 110789678
" />
<path d="M160176972 107027870
L160834582 107685479
" />
<path d="M162411430 109262328
L161753821 108604718
" />
<path d="M267576800 86480000
L267576800 88640000
" />
<path d="M264416800 86480000
L264416800 88640000
" />
<path d="M267576800 86480000
L266646800 86480000
" />
<path d="M264416800 86480000
L265346800 86480000
" />
<path d="M184221800 67217064
L184221800 66762936
" />
<path d="M182751800 67217064
L182751800 66762936
" />
<path d="M140181800 66612936
L140181800 67067064
" />
<path d="M138711800 66612936
L138711800 67067064
" />
<path d="M186301800 67217064
L186301800 66762936
" />
<path d="M184831800 67217064
L184831800 66762936
" />
<path d="M187216972 102544630
L185689622 101017279
" />
<path d="M189451430 100310172
L188419054 99277797
" />
<path d="M189451430 100310172
L188793821 100967782
" />
<path d="M187216972 102544630
L187874582 101887021
" />
<path d="M257046065 92459771
L254646065 92459771
" />
<path d="M254946065 106059771
L255246065 106359771
" />
<path d="M255246065 105759771
L254946065 106059771
" />
<path d="M257046065 104659771
L245246065 104659771
" />
<path d="M247646065 92459771
L245246065 92459771
" />
<path d="M257046065 96559771
L257046065 92459771
" />
<path d="M252446065 92459771
L249846065 92459771
" />
<path d="M255246065 106359771
L255246065 105759771
" />
<path d="M245246065 92459771
L245246065 96559771
" />
<path d="M245246065 100559771
L245246065 104659771
" />
<path d="M257046065 100559771
L257046065 104659771
" />
<path d="M159891800 67067064
L159891800 66612936
" />
<path d="M158421800 67067064
L158421800 66612936
" />
<path d="M167856800 38800000
L165196800 38800000
" />
<path d="M166526800 36200000
L165196800 36200000
" />
<path d="M167856800 51560000
L165196800 51560000
" />
<path d="M165196800 38800000
L165196800 51560000
" />
<path d="M165196800 36200000
L165196800 37530000
" />
<path d="M167856800 38800000
L167856800 51560000
" />
<path d="M214656800 61900000
L216116800 61900000
" />
<path d="M214656800 61900000
L214656800 62830000
" />
<path d="M214656800 65060000
L216816800 65060000
" />
<path d="M214656800 65060000
L214656800 64130000
" />
<path d="M151482170 100470172
L153009521 98942822
" />
<path d="M153716628 102704630
L154749003 101672254
" />
<path d="M151482170 100470172
L152139779 101127782
" />
<path d="M153716628 102704630
L153059018 102047021
" />
<path d="M263836800 86470000
L262906800 86470000
" />
<path d="M260676800 86470000
L261606800 86470000
" />
<path d="M260676800 86470000
L260676800 88630000
" />
<path d="M263836800 86470000
L263836800 88630000
" />
<path d="M180546628 107045370
L182073978 108572721
" />
<path d="M178312170 109279828
L178969779 108622218
" />
<path d="M180546628 107045370
L179889018 107702979
" />
<path d="M178312170 109279828
L179344546 110312203
" />
<path d="M157636972 104487870
L158294582 105145479
" />
<path d="M157636972 104487870
L156604597 105520246
" />
<path d="M159871430 106722328
L158344079 108249678
" />
<path d="M159871430 106722328
L159213821 106064718
" />
<path d="M77446800 86492500
L77446800 88652500
" />
<path d="M77446800 86492500
L76516800 86492500
" />
<path d="M74286800 86492500
L75216800 86492500
" />
<path d="M74286800 86492500
L74286800 87952500
" />
<path d="M172816800 36200000
L172816800 37530000
" />
<path d="M172816800 38800000
L172816800 51560000
" />
<path d="M175476800 38800000
L175476800 51560000
" />
<path d="M174146800 36200000
L172816800 36200000
" />
<path d="M175476800 51560000
L172816800 51560000
" />
<path d="M175476800 38800000
L172816800 38800000
" />
<path d="M198811800 66602936
L198811800 67057064
" />
<path d="M200281800 66602936
L200281800 67057064
" />
<path d="M214656800 61450000
L214656800 60520000
" />
<path d="M214656800 61450000
L216116800 61450000
" />
<path d="M214656800 58290000
L216816800 58290000
" />
<path d="M214656800 58290000
L214656800 59220000
" />
<path d="M155891800 66612936
L155891800 67067064
" />
<path d="M154421800 66612936
L154421800 67067064
" />
<path d="M192201430 97610172
L191169054 96577797
" />
<path d="M189966972 99844630
L190624582 99187021
" />
<path d="M192201430 97610172
L191543821 98267782
" />
<path d="M189966972 99844630
L188439622 98317279
" />
<path d="M189746518 52690835
L190067635 52369718
" />
<path d="M190785965 53730282
L191107082 53409165
" />
<path d="M127016800 61422500
L127016800 60492500
" />
<path d="M127016800 61422500
L124856800 61422500
" />
<path d="M127016800 58262500
L125556800 58262500
" />
<path d="M127016800 58262500
L127016800 59192500
" />
<path d="M192366800 70635000
L194566800 70635000
" />
<path d="M192366800 65165000
L195966800 65165000
" />
<path d="M192366800 70635000
L190166800 70635000
" />
<path d="M192366800 65165000
L190166800 65165000
" />
<path d="M278856800 89530000
L290076800 89530000
" />
<path d="M278856800 80310000
L278856800 89530000
" />
<path d="M290076800 80310000
L278856800 80310000
" />
<path d="M290076800 89530000
L290076800 80310000
" />
<path d="M142211800 67067064
L142211800 66612936
" />
<path d="M140741800 67067064
L140741800 66612936
" />
<path d="M176866800 68950000
L176866800 62890000
" />
<path d="M177926800 71010000
L178986800 71010000
" />
<path d="M176866800 62890000
L178986800 62890000
" />
<path d="M178986800 71010000
L178986800 69950000
" />
<path d="M178986800 68950000
L178986800 62890000
" />
<path d="M176866800 68950000
L178986800 68950000
" />
<path d="M127016800 61872500
L125556800 61872500
" />
<path d="M127016800 61872500
L127016800 62802500
" />
<path d="M127016800 65032500
L127016800 64102500
" />
<path d="M127016800 65032500
L124856800 65032500
" />
<path d="M146925965 53730282
L147247082 53409165
" />
<path d="M145886518 52690835
L146207635 52369718
" />
<path d="M202961800 67057064
L202961800 66602936
" />
<path d="M204431800 67057064
L204431800 66602936
" />
<path d="M183166628 104425370
L182509018 105082979
" />
<path d="M180932170 106659828
L181964546 107692203
" />
<path d="M180932170 106659828
L181589779 106002218
" />
<path d="M183166628 104425370
L184693978 105952721
" />
<path d="M183582170 104029828
L184239779 103372218
" />
<path d="M183582170 104029828
L184614546 105062203
" />
<path d="M185816628 101795370
L185159018 102452979
" />
<path d="M185816628 101795370
L187343978 103322721
" />
<path d="M145929736 71905000
L146383864 71905000
" />
<path d="M145929736 73375000
L146383864 73375000
" />
<path d="M192526972 97294630
L193184582 96637021
" />
<path d="M192526972 97294630
L190999622 95767279
" />
<path d="M194761430 95060172
L194103821 95717782
" />
<path d="M194761430 95060172
L193729054 94027797
" />
<path d="M150931364 71905000
L150477236 71905000
" />
<path d="M150931364 73375000
L150477236 73375000
" />
<path d="M60496800 89530000
L60496800 80310000
" />
<path d="M49276800 80310000
L49276800 89530000
" />
<path d="M49276800 89530000
L60496800 89530000
" />
<path d="M60496800 80310000
L49276800 80310000
" />
<path d="M148626628 97617130
L147969018 96959521
" />
<path d="M148626628 97617130
L149659003 96584754
" />
<path d="M146392170 95382672
L147049779 96040282
" />
<path d="M146392170 95382672
L147919521 93855322
" />
<path d="M182191800 67217064
L182191800 66762936
" />
<path d="M180721800 67217064
L180721800 66762936
" />
<path d="M93644300 105752500
L93344300 106052500
" />
<path d="M95444300 104652500
L83644300 104652500
" />
<path d="M83644300 100552500
L83644300 104652500
" />
<path d="M93644300 106352500
L93644300 105752500
" />
<path d="M83644300 92452500
L83644300 96552500
" />
<path d="M95444300 100552500
L95444300 104652500
" />
<path d="M86044300 92452500
L83644300 92452500
" />
<path d="M95444300 96552500
L95444300 92452500
" />
<path d="M95444300 92452500
L93044300 92452500
" />
<path d="M93344300 106052500
L93644300 106352500
" />
<path d="M90844300 92452500
L88244300 92452500
" />
<path d="M78006800 86520000
L78936800 86520000
" />
<path d="M78006800 86520000
L78006800 87980000
" />
<path d="M81166800 86520000
L80236800 86520000
" />
<path d="M81166800 86520000
L81166800 88680000
" />
<path d="M148346800 70645000
L150546800 70645000
" />
<path d="M148346800 70645000
L146146800 70645000
" />
<path d="M148346800 65175000
L146146800 65175000
" />
<path d="M148346800 65175000
L151946800 65175000
" />
<path d="M150715965 52369718
L151037082 52690835
" />
<path d="M149676518 53409165
L149997635 53730282
" />
<path d="M155126972 101947870
L155784582 102605479
" />
<path d="M157361430 104182328
L155834079 105709678
" />
<path d="M157361430 104182328
L156703821 103524718
" />
<path d="M155126972 101947870
L154094597 102980246
" />
<path d="M194199736 73365000
L194653864 73365000
" />
<path d="M194199736 71895000
L194653864 71895000
" />
<path d="M127016800 54620000
L125556800 54620000
" />
<path d="M127016800 54620000
L127016800 55550000
" />
<path d="M127016800 57780000
L124856800 57780000
" />
<path d="M127016800 57780000
L127016800 56850000
" />
<path d="M214656800 57800000
L214656800 56870000
" />
<path d="M214656800 54640000
L216816800 54640000
" />
<path d="M214656800 57800000
L216116800 57800000
" />
<path d="M214656800 54640000
L214656800 55570000
" />
<path d="M138111800 67057064
L138111800 66602936
" />
<path d="M136641800 67057064
L136641800 66602936
" />
<g >
</g>
<g >
</g>
<g >
</g>
<g >
</g>
<g >
</g>
<g >
</g>
<g >
</g>
<g >
</g>
<g >
</g>
<g >
</g>
<g >
</g>
<g >
</g>
<g >
</g>
<g >
</g>
<g >
</g>
<g >
</g>
<g >
</g>
<g >
</g>
<g >
</g>
<g >
</g>
<g >
</g>
<g >
</g>
<g >
</g>
<g >
</g>
<g >
</g>
<g >
</g>
<g >
</g>
<g >
</g>
<g >
</g>
<g >
</g>
<g >
</g>
<g >
</g>
<g >
</g>
<g >
</g>
<g >
</g>
<g >
</g>
<g >
</g>
<g >
</g>
<g >
</g>
<g >
</g>
<g >
</g>
<g >
</g>
<g >
</g>
<g >
</g>
<g >
</g>
<g >
</g>
<g >
</g>
<g >
</g>
<g >
</g>
<g >
</g>
<g >
</g>
<g >
</g>
<g >
</g>
<g >
</g>
<g >
</g>
<g >
</g>
<g >
</g>
<g >
</g>
<g >
</g>
<g >
</g>
<g >
</g>
<g >
</g>
<g >
</g>
<g >
</g>
<g >
</g>
<g >
</g>
<g >
</g>
<g >
</g>
<g >
</g>
<g >
</g>
<g >
</g>
<g >
</g>
<g >
</g>
<g >
</g>
<g >
</g>
<g >
</g>
<g >
</g>
<g >
</g>
<g >
</g>
<g >
</g>
<g >
</g>
<g >
</g>
<g >
</g>
<g >
</g>
<g >
</g>
<g >
</g>
<g >
</g>
<g >
</g>
<g >
</g>
<g >
</g>
<g >
</g>
<g >
</g>
<g >
</g>
<g >
</g>
<g >
</g>
<g >
</g>
<g >
</g>
<g >
</g>
<g >
</g>
<g >
</g>
<g >
</g>
<g >
</g>
<g >
</g>
<g >
</g>
<g >
</g>
<g >
</g>
<g >
</g>
<g >
</g>
<g >
</g>
<g >
</g>
<g >
</g>
<g >
</g>
<g >
</g>
<g >
</g>
<g >
</g>
<g >
</g>
<g >
</g>
<g >
</g>
<g >
</g>
<g >
</g>
<g >
</g>
<g >
</g>
<g >
</g>
<g >
</g>
<g >
</g>
<g >
</g>
<g >
</g>
<g >
</g>
<g >
</g>
<g >
</g>
<g >
</g>
<g >
</g>
<g >
</g>
<g >
</g>
<g >
</g>
<g >
</g>
<g >
</g>
<g >
</g>
<g >
</g>
<g >
</g>
<g >
</g>
<g >
</g>
<g >
</g>
<g >
</g>
<g >
</g>
<g >
</g>
<g >
</g>
<g >
</g>
<g >
</g>
<g >
</g>
<g >
</g>
<g >
</g>
<g >
</g>
</g>
<g style="fill:#000000; fill-opacity:0.0; 
stroke:#000000; stroke-width:120000.000000; stroke-opacity:1; 
stroke-linecap:round; stroke-linejoin:round;">
</g>
<g style="fill:#000000; fill-opacity:0.0; 
stroke:#000000; stroke-width:100000.000000; stroke-opacity:1; 
stroke-linecap:round; stroke-linejoin:round;">
<path d="M170913208 111026961
L168357456 111026961
" />
<path d="M141837646 118747781
L136143937 114761003
" />
<path d="M198877266 118747781
L204570975 114761003
" />
<path d="M81646800 91552500
L40263646 91552500
" />
<path d="M49207456 24877301
L68257456 24877301
" />
<path d="M136143937 114761003
L123455628 108844347
" />
<path d="M172357456 29639801
L172357456 33639801
" />
<path d="M172356800 104850000
L168356800 104850000
" />
<path d="M179078276 118747781
L172357456 112026961
" />
<path d="M123455628 108844347
L81646800 108844347
" />
<path d="M309668058 92847637
L316918976 41254670
" />
<path d="M81646800 108844347
L81646800 91552500
" />
<path d="M168357456 112026961
L168357456 111026961
" />
<path d="M31046854 92847637
L23795936 41254670
" />
<path d="M258457456 29639801
L172357456 29639801
" />
<path d="M217259284 108844347
L259046800 108844347
" />
<path d="M316918976 41254670
L291507456 37683314
" />
<path d="M172357456 33639801
L168357456 33639801
" />
<path d="M204570975 114761003
L217259284 108844347
" />
<path d="M168357456 112026961
L161636636 118747781
" />
<path d="M170913208 111026961
L172357456 111026961
" />
<path d="M291507456 37683314
L291507456 24877301
" />
<path d="M23795936 41254670
L49207456 37683314
" />
<path d="M259046800 91552301
L259046800 108844347
" />
<path d="M172356800 39790000
L168356800 39790000
" />
<path d="M40263646 91552301
L31046854 92847637
" />
<path d="M82257456 20114801
L82257456 29639801
" />
<path d="M188977771 128647276
L198877266 118747781
" />
<path d="M68257456 20114801
L82257456 20114801
" />
<path d="M161636636 118747781
L151737141 128647276
" />
<path d="M258457456 29639801
L258457456 20114801
" />
<path d="M168357456 33639801
L168357456 29639801
" />
<path d="M49207456 37683314
L49207456 24877301
" />
<path d="M172357456 111026961
L172357456 112026961
" />
<path d="M172356800 39790000
L172356800 104850000
" />
<path d="M179078276 118747781
L188977771 128647276
" />
<path d="M291507456 24877301
L272457456 24877301
" />
<path d="M300451267 91552301
L259046800 91552301
" />
<path d="M82257456 29639801
L168357456 29639801
" />
<path d="M272457456 20114801
L258457456 20114801
" />
<path d="M151737141 128647276
L141837646 118747781
" />
<path d="M68257456 24877301
L68257456 20114801
" />
<path d="M272457456 24877301
L272457456 20114801
" />
<path d="M300451267 91552301
L309668058 92847637
" />
<path d="M168356800 39790000
L168356800 104850000
" />
</g>
<g style="fill:#000000; fill-opacity:0.0; 
stroke:#000000; stroke-width:120000.000000; stroke-opacity:1; 
stroke-linecap:round; stroke-linejoin:round;">
<path d="M282826800 56460000
L282826800 53460000
" />
<path d="M286226800 53460000
L286226800 56460000
" />
<path d="M282826800 53460000
L286226800 53460000
" />
<path d="M286226800 56460000
L282826800 56460000
" />
<path d="M37189015 71528808
L33822104 72001996
" />
<path d="M33822104 72001996
L33404585 69031192
" />
<path d="M33404585 69031192
L36771496 68558004
" />
<path d="M36771496 68558004
L37189015 71528808
" />
<path d="M54506800 73242500
L57906800 73242500
" />
<path d="M57906800 76242500
L54506800 76242500
" />
<path d="M54506800 76242500
L54506800 73242500
" />
<path d="M57906800 73242500
L57906800 76242500
" />
<path d="M96006800 61955000
L92606800 61955000
" />
<path d="M96006800 58955000
L96006800 61955000
" />
<path d="M92606800 61955000
L92606800 58955000
" />
<path d="M92606800 58955000
L96006800 58955000
" />
<path d="M111629597 105352457
L108242535 105056127
" />
<path d="M108242535 105056127
L108504003 102067543
" />
<path d="M108504003 102067543
L111891065 102363873
" />
<path d="M111891065 102363873
L111629597 105352457
" />
<path d="M150649542 122011421
L148528221 124132742
" />
<path d="M148245379 119607258
L150649542 122011421
" />
<path d="M148528221 124132742
L146124058 121728579
" />
<path d="M146124058 121728579
L148245379 119607258
" />
<path d="M263816800 32860000
L263816800 29860000
" />
<path d="M267216800 29860000
L267216800 32860000
" />
<path d="M267216800 32860000
L263816800 32860000
" />
<path d="M263816800 29860000
L267216800 29860000
" />
<path d="M128962149 110131011
L130230004 107412087
" />
<path d="M132043596 111567913
L128962149 110131011
" />
<path d="M133311451 108848989
L132043596 111567913
" />
<path d="M130230004 107412087
L133311451 108848989
" />
<path d="M229136800 39430000
L229136800 42430000
" />
<path d="M229136800 42430000
L225736800 42430000
" />
<path d="M225736800 42430000
L225736800 39430000
" />
<path d="M225736800 39430000
L229136800 39430000
" />
<path d="M115056800 61955000
L111656800 61955000
" />
<path d="M111656800 58955000
L115056800 58955000
" />
<path d="M115056800 58955000
L115056800 61955000
" />
<path d="M111656800 61955000
L111656800 58955000
" />
<path d="M282826800 37595000
L282826800 34595000
" />
<path d="M286226800 34595000
L286226800 37595000
" />
<path d="M282826800 34595000
L286226800 34595000
" />
<path d="M286226800 37595000
L282826800 37595000
" />
<path d="M115056800 81005000
L111656800 81005000
" />
<path d="M111656800 78005000
L115056800 78005000
" />
<path d="M115056800 78005000
L115056800 81005000
" />
<path d="M111656800 81005000
L111656800 78005000
" />
<path d="M282836800 72690000
L286236800 72690000
" />
<path d="M286236800 72690000
L286236800 75690000
" />
<path d="M282836800 75690000
L282836800 72690000
" />
<path d="M286236800 75690000
L282836800 75690000
" />
<path d="M307091496 72026996
L303724585 71553808
" />
<path d="M307509015 69056192
L307091496 72026996
" />
<path d="M303724585 71553808
L304142104 68583004
" />
<path d="M304142104 68583004
L307509015 69056192
" />
<path d="M248156800 58215000
L248156800 61215000
" />
<path d="M244756800 58215000
L248156800 58215000
" />
<path d="M244756800 61215000
L244756800 58215000
" />
<path d="M248156800 61215000
L244756800 61215000
" />
<path d="M73556800 68480000
L76956800 68480000
" />
<path d="M73556800 71480000
L73556800 68480000
" />
<path d="M76956800 71480000
L73556800 71480000
" />
<path d="M76956800 68480000
L76956800 71480000
" />
<path d="M57906800 35142500
L57906800 38142500
" />
<path d="M54506800 38142500
L54506800 35142500
" />
<path d="M57906800 38142500
L54506800 38142500
" />
<path d="M54506800 35142500
L57906800 35142500
" />
<path d="M249443565 101464771
L252843565 101464771
" />
<path d="M252843565 101464771
L252843565 104464771
" />
<path d="M249443565 104464771
L249443565 101464771
" />
<path d="M252843565 104464771
L249443565 104464771
" />
<path d="M91244300 101817500
L91244300 104817500
" />
<path d="M87844300 101817500
L91244300 101817500
" />
<path d="M87844300 104817500
L87844300 101817500
" />
<path d="M91244300 104817500
L87844300 104817500
" />
<path d="M263826800 68210000
L267226800 68210000
" />
<path d="M267226800 71210000
L263826800 71210000
" />
<path d="M267226800 68210000
L267226800 71210000
" />
<path d="M263826800 71210000
L263826800 68210000
" />
<path d="M76956800 52430000
L73556800 52430000
" />
<path d="M73556800 52430000
L73556800 49430000
" />
<path d="M76956800 49430000
L76956800 52430000
" />
<path d="M73556800 49430000
L76956800 49430000
" />
<path d="M225736800 80450000
L225736800 77450000
" />
<path d="M225736800 77450000
L229136800 77450000
" />
<path d="M229136800 77450000
L229136800 80450000
" />
<path d="M229136800 80450000
L225736800 80450000
" />
<path d="M34619015 52701448
L31252104 53174636
" />
<path d="M31252104 53174636
L30834585 50203832
" />
<path d="M30834585 50203832
L34201496 49730644
" />
<path d="M34201496 49730644
L34619015 52701448
" />
<path d="M96006800 81005000
L92606800 81005000
" />
<path d="M92606800 78005000
L96006800 78005000
" />
<path d="M96006800 78005000
L96006800 81005000
" />
<path d="M92606800 81005000
L92606800 78005000
" />
<path d="M57906800 54192500
L57906800 57192500
" />
<path d="M57906800 57192500
L54506800 57192500
" />
<path d="M54506800 57192500
L54506800 54192500
" />
<path d="M54506800 54192500
L57906800 54192500
" />
<path d="M248056800 42445000
L244656800 42445000
" />
<path d="M244656800 39445000
L248056800 39445000
" />
<path d="M248056800 39445000
L248056800 42445000
" />
<path d="M244656800 42445000
L244656800 39445000
" />
<path d="M229136800 61635000
L225736800 61635000
" />
<path d="M229136800 58635000
L229136800 61635000
" />
<path d="M225736800 61635000
L225736800 58635000
" />
<path d="M225736800 58635000
L229136800 58635000
" />
<path d="M267216800 48920000
L267216800 51920000
" />
<path d="M263816800 48920000
L267216800 48920000
" />
<path d="M263816800 51920000
L263816800 48920000
" />
<path d="M267216800 51920000
L263816800 51920000
" />
<path d="M92606800 42905000
L92606800 39905000
" />
<path d="M96006800 39905000
L96006800 42905000
" />
<path d="M96006800 42905000
L92606800 42905000
" />
<path d="M92606800 39905000
L96006800 39905000
" />
<path d="M209110004 111397913
L207842149 108678989
" />
<path d="M210923596 107242087
L212191451 109961011
" />
<path d="M207842149 108678989
L210923596 107242087
" />
<path d="M212191451 109961011
L209110004 111397913
" />
<path d="M305139015 87781192
L304721496 90751996
" />
<path d="M301354585 90278808
L301772104 87308004
" />
<path d="M304721496 90751996
L301354585 90278808
" />
<path d="M301772104 87308004
L305139015 87781192
" />
<path d="M39321496 87518004
L39739015 90488808
" />
<path d="M35954585 87991192
L39321496 87518004
" />
<path d="M39739015 90488808
L36372104 90961996
" />
<path d="M36372104 90961996
L35954585 87991192
" />
<path d="M229274003 105376619
L229012535 102388035
" />
<path d="M229012535 102388035
L232399597 102091705
" />
<path d="M232661065 105080289
L229274003 105376619
" />
<path d="M232399597 102091705
L232661065 105080289
" />
<path d="M73556800 30380000
L76956800 30380000
" />
<path d="M73556800 33380000
L73556800 30380000
" />
<path d="M76956800 33380000
L73556800 33380000
" />
<path d="M76956800 30380000
L76956800 33380000
" />
<path d="M192248221 119679715
L194369542 121801036
" />
<path d="M191965379 124205199
L189844058 122083878
" />
<path d="M189844058 122083878
L192248221 119679715
" />
<path d="M194369542 121801036
L191965379 124205199
" />
<path d="M310001496 53031996
L306634585 52558808
" />
<path d="M310419015 50061192
L310001496 53031996
" />
<path d="M307052104 49588004
L310419015 50061192
" />
<path d="M306634585 52558808
L307052104 49588004
" />
<path d="M111656800 39905000
L115056800 39905000
" />
<path d="M115056800 39905000
L115056800 42905000
" />
<path d="M115056800 42905000
L111656800 42905000
" />
<path d="M111656800 42905000
L111656800 39905000
" />
<path d="M248156800 80825000
L244756800 80825000
" />
<path d="M248156800 77825000
L248156800 80825000
" />
<path d="M244756800 77825000
L248156800 77825000
" />
<path d="M244756800 80825000
L244756800 77825000
" />
<g >
</g>
<g >
</g>
<g >
</g>
<g >
</g>
<g >
</g>
<g >
</g>
<g >
</g>
<g >
</g>
<g >
</g>
<g >
</g>
<g >
</g>
<g >
</g>
<g >
</g>
<g >
</g>
<g >
</g>
<g >
</g>
<g >
</g>
<g >
</g>
<g >
</g>
<g >
</g>
<g >
</g>
<g >
</g>
<g >
</g>
<g >
</g>
<g >
</g>
<g >
</g>
<g >
</g>
<g >
</g>
<g >
</g>
<g >
</g>
<g >
</g>
<g >
</g>
<g >
</g>
<g >
</g>
<g >
</g>
<g >
</g>
<g >
</g>
<g >
</g>
<g >
</g>
<g >
</g>
<g >
</g>
<g >
</g>
<g >
</g>
<g >
</g>
<g >
</g>
<g >
</g>
<g >
</g>
<g >
</g>
<g >
</g>
<g >
</g>
<g >
</g>
<g >
</g>
<g >
</g>
<g >
</g>
<g >
</g>
<g >
</g>
<g >
</g>
<g >
</g>
<g >
</g>
<g >
</g>
<g >
</g>
<g >
</g>
<g >
</g>
<g >
</g>
<g >
</g>
<g >
</g>
<g >
</g>
<g >
</g>
<g >
</g>
<g >
</g>
<g >
</g>
<g >
</g>
<g >
</g>
<g >
</g>
<g >
</g>
<g >
</g>
<g >
</g>
<g >
</g>
<g >
</g>
<g >
</g>
<g >
</g>
<g >
</g>
<g >
</g>
<g >
</g>
<g >
</g>
<g >
</g>
<g >
</g>
<g >
</g>
<g >
</g>
<g >
</g>
<g >
</g>
<g >
</g>
<g >
</g>
<g >
</g>
<g >
</g>
<g >
</g>
<g >
</g>
<g >
</g>
<g >
</g>
<g >
</g>
<g >
</g>
<g >
</g>
<g >
</g>
<g >
</g>
<g >
</g>
<g >
</g>
<g >
</g>
<g >
</g>
<g >
</g>
<g >
</g>
<g >
</g>
<g >
</g>
<g >
</g>
<g >
</g>
<g >
</g>
<g >
</g>
<g >
</g>
<g >
</g>
<g >
</g>
<g >
</g>
<g >
</g>
<g >
</g>
<g >
</g>
<g >
</g>
<g >
</g>
<g >
</g>
<g >
</g>
<g >
</g>
<g >
</g>
<g >
</g>
<g >
</g>
<g >
</g>
<g >
</g>
<g >
</g>
<g >
</g>
<g >
</g>
<g >
</g>
<g >
</g>
<g >
</g>
<g >
</g>
<g >
</g>
<g >
</g>
<g >
</g>
<g >
</g>
<g >
</g>
<g >
</g>
<g >
</g>
<g >
</g>
<g >
</g>
<g >
</g>
<g >
</g>
<g >
</g>
<g >
</g>
</g> 
</svg>
