0
SECTION
2
HEADER
9
$INSUNITS
70
4
9
$ACADVER
1
AC1014
9
$HANDSEED
5
FFFF
0
ENDSEC
0
SECTION
2
TABLES
0
TABLE
2
VPORT
5
8
100
AcDbSymbolTable
0
ENDTAB
0
TABLE
2
LTYPE
5
5
100
AcDbSymbolTable
0
LTYPE
5
14
100
AcDbSymbolTableRecord
100
AcDbLinetypeTableRecord
2
BYBLOCK
70
0
0
LTYPE
5
15
100
AcDbSymbolTableRecord
100
AcDbLinetypeTableRecord
2
BYLAYER
70
0
0
ENDTAB
0
TABLE
2
LAYER
5
2
100
AcDbSymbolTable
70
2
0
LAYER
5
50
100
AcDbSymbolTableRecord
100
AcDbLayerTableRecord
2
0
70
0
6
CONTINUOUS
0
ENDTAB
0
TABLE
2
STYLE
5
3
100
AcDbSymbolTable
70
1
0
STYLE
5
11
100
AcDbSymbolTableRecord
100
AcDbTextStyleTableRecord
2
STANDARD
70
0
0
ENDTAB
0
TABLE
2
VIEW
5
6
100
AcDbSymbolTable
70
0
0
ENDTAB
0
TABLE
2
UCS
5
7
100
AcDbSymbolTable
70
0
0
ENDTAB
0
TABLE
2
APPID
5
9
100
AcDbSymbolTable
70
2
0
APPID
5
12
100
AcDbSymbolTableRecord
100
AcDbRegAppTableRecord
2
ACAD
70
0
0
ENDTAB
0
TABLE
2
DIMSTYLE
5
A
100
AcDbSymbolTable
70
1
0
ENDTAB
0
TABLE
2
BLOCK_RECORD
5
1
100
AcDbSymbolTable
70
1
0
BLOCK_RECORD
5
1F
100
AcDbSymbolTableRecord
100
AcDbBlockTableRecord
2
*MODEL_SPACE
0
BLOCK_RECORD
5
1B
100
AcDbSymbolTableRecord
100
AcDbBlockTableRecord
2
*PAPER_SPACE
0
ENDTAB
0
ENDSEC
0
SECTION
2
BLOCKS
0
BLOCK
5
20
100
AcDbEntity
100
AcDbBlockBegin
2
*MODEL_SPACE
0
ENDBLK
5
21
100
AcDbEntity
100
AcDbBlockEnd
0
BLOCK
5
1C
100
AcDbEntity
100
AcDbBlockBegin
2
*PAPER_SPACE
0
ENDBLK
5
1D
100
AcDbEntity
100
AcDbBlockEnd
0
ENDSEC
0
SECTION
2
ENTITIES
0
LINE
5
100
100
AcDbEntity
8
0
100
AcDbLine
10
-0.3535533999999918
20
-0.35355340000000623
30
0
11
-9.5459414999999872
21
-9.5459414999999836
31
0
0
LINE
5
101
100
AcDbEntity
8
0
100
AcDbLine
10
-10.253048299999982
20
9.5459415000000192
30
0
11
-19.445436399999995
21
0.35355339999998847
31
0
0
LINE
5
102
100
AcDbEntity
8
0
100
AcDbLine
10
-19.445436399999995
20
-0.35355340000000623
30
0
11
-10.253048299999982
21
-9.5459414999999836
31
0
0
LINE
5
103
100
AcDbEntity
8
0
100
AcDbLine
10
-9.5459414999999872
20
9.5459415000000192
30
0
11
-0.3535533999999918
21
0.35355339999998847
31
0
0
LINE
5
104
100
AcDbEntity
8
0
100
AcDbLine
10
-0.3535533999999918
20
-0.35355340000000623
30
0
11
0
21
0
31
0
0
LINE
5
105
100
AcDbEntity
8
0
100
AcDbLine
10
0
20
0
30
0
11
-0.3535533999999918
21
0.35355339999998847
31
0
0
LWPOLYLINE
5
106
100
AcDbEntity
8
0
100
AcDbPolyline
90
32
70
1
43
0.0
10
0
20
0
10
-9.8994949366116209
20
-9.8994949366117169
10
-9.1923881554251334
20
-10.606601717798206
10
2.3799009000000115
20
0.96568733762691361
10
2.3799009000000115
20
31.753392021537987
10
2.3799009000000204
20
94.253392021537991
10
-82.720163896027699
20
94.253392021537991
10
-82.720163896027699
20
103.778392021538
10
-98.720163896027699
20
103.778392021538
10
-98.720163896027699
20
99.015392021537991
10
-117.76016389602771
20
99.015392021537991
10
-117.76016389602771
20
86.080392021537989
10
-143.31106059660107
20
82.489447605840638
10
-143.17188749313246
20
81.49917953745161
10
-135.9209688040086
20
29.906213185706193
10
-134.93070073512524
20
30.045386285657365
10
-121.06694777075818
20
31.993809684973797
10
-120.1155991
20
32.340721800000011
10
-84.432599099999976
20
32.340721800000011
10
-84.432599099999976
20
17.340721800000015
10
-83.43259909999999
20
17.340721800000015
10
-83.43259909999999
20
31.340721800000011
10
-69.432599099999976
20
31.340721799999997
10
-69.432599099999976
20
17.340721799999994
10
-61.230339095158058
20
17.314344291618887
10
-47.283613317278792
20
16.094163945670786
10
-39.074766343776737
20
12.511029779797642
10
-33.158110668749003
20
25.199338793340836
10
-20.469801655205782
20
19.282683118313109
10
-26.386457330233522
20
6.5943741047698934
10
-19.798989873223277
20
-3.5527136788005009e-14
10
-9.8994949366115943
20
9.8994949366116103
0
LINE
5
107
100
AcDbEntity
8
0
100
AcDbLine
10
-9.8994949366116209
20
-9.8994949366117169
30
0
11
-19.798989873223277
21
-3.5527136788005009e-14
31
0
0
LINE
5
108
100
AcDbEntity
8
0
100
AcDbLine
10
-69.93259909999999
20
31.340721799999997
30
0
11
-69.432599099999976
21
31.340721799999997
31
0
0
LINE
5
109
100
AcDbEntity
8
0
100
AcDbLine
10
-69.432599099999976
20
17.340721799999994
30
0
11
-83.43259909999999
21
17.340721800000015
31
0
0
LINE
5
110
100
AcDbEntity
8
0
100
AcDbLine
10
-60.010158749209978
20
31.261070069498153
30
0
11
-61.230339095158058
21
17.314344291618887
31
0
0
LINE
5
111
100
AcDbEntity
8
0
100
AcDbLine
10
-47.283613317278792
20
16.094163945670786
30
0
11
-46.063432971330691
21
30.040889723550048
31
0
0
LINE
5
112
100
AcDbEntity
8
0
100
AcDbLine
10
-60.010158749209978
20
31.261070069498153
30
0
11
-46.063432971330691
21
30.040889723550048
31
0
0
LINE
5
113
100
AcDbEntity
8
0
100
AcDbLine
10
-26.386457330233522
20
6.5943741047698934
30
0
11
-39.074766343776737
21
12.511029779797642
31
0
0
LWPOLYLINE
5
114
100
AcDbEntity
8
0
100
AcDbPolyline
90
4
70
1
43
0.0
10
-59.62009909999999
20
55.153221799999997
10
-45.62009909999999
20
55.153221799999997
10
-45.62009909999999
20
41.153221799999997
10
-59.62009909999999
20
41.153221799999997
0
LWPOLYLINE
5
115
100
AcDbEntity
8
0
100
AcDbPolyline
90
4
70
1
43
0.0
10
-45.62009909999999
20
60.203221800000001
10
-45.62009909999999
20
74.203221800000009
10
-59.62009909999999
20
74.203221800000009
10
-59.62009909999999
20
60.203221800000001
0
LWPOLYLINE
5
116
100
AcDbEntity
8
0
100
AcDbPolyline
90
4
70
1
43
0.0
10
-45.62009909999999
20
79.253221800000006
10
-45.62009909999999
20
93.253221800000006
10
-59.62009909999999
20
93.253221800000006
10
-59.62009909999999
20
79.253221800000006
0
LWPOLYLINE
5
117
100
AcDbEntity
8
0
100
AcDbPolyline
90
4
70
1
43
0.0
10
-64.670099099999987
20
41.153221799999997
10
-64.670099099999987
20
55.153221799999997
10
-78.670099099999987
20
55.153221799999997
10
-78.670099099999987
20
41.153221799999997
0
LWPOLYLINE
5
118
100
AcDbEntity
8
0
100
AcDbPolyline
90
4
70
1
43
0.0
10
-64.670099099999987
20
60.203221800000001
10
-64.670099099999987
20
74.203221800000009
10
-78.670099099999987
20
74.203221800000009
10
-78.670099099999987
20
60.203221800000001
0
LWPOLYLINE
5
119
100
AcDbEntity
8
0
100
AcDbPolyline
90
4
70
1
43
0.0
10
-64.670099099999987
20
79.253221800000006
10
-64.670099099999987
20
93.253221800000006
10
-78.670099099999987
20
93.253221800000006
10
-78.670099099999987
20
79.253221800000006
0
LWPOLYLINE
5
120
100
AcDbEntity
8
0
100
AcDbPolyline
90
4
70
1
43
0.0
10
-64.670099099999987
20
79.253221800000006
10
-64.670099099999987
20
93.253221800000006
10
-78.670099099999987
20
93.253221800000006
10
-78.670099099999987
20
79.253221800000006
0
LWPOLYLINE
5
121
100
AcDbEntity
8
0
100
AcDbPolyline
90
4
70
1
43
0.0
10
-64.670099099999987
20
60.203221800000001
10
-64.670099099999987
20
74.203221800000009
10
-78.670099099999987
20
74.203221800000009
10
-78.670099099999987
20
60.203221800000001
0
LWPOLYLINE
5
122
100
AcDbEntity
8
0
100
AcDbPolyline
90
4
70
1
43
0.0
10
-64.670099099999987
20
41.153221799999997
10
-64.670099099999987
20
55.153221799999997
10
-78.670099099999987
20
55.153221799999997
10
-78.670099099999987
20
41.153221799999997
0
LINE
5
123
100
AcDbEntity
8
0
100
AcDbLine
10
-83.720099099999999
20
102.77822180000001
30
0
11
-83.720099099999999
21
88.778221800000011
31
0
0
LINE
5
124
100
AcDbEntity
8
0
100
AcDbLine
10
-102.77009909999998
20
98.015721800000009
30
0
11
-102.77009909999998
21
84.015721800000009
31
0
0
LWPOLYLINE
5
125
100
AcDbEntity
8
0
100
AcDbPolyline
90
4
70
1
43
0.0
10
-116.77009909999998
20
98.015721800000009
10
-102.77009909999998
20
98.015721800000009
10
-102.77009909999998
20
84.015721800000023
10
-116.77009909999998
20
84.015721800000023
0
LWPOLYLINE
5
126
100
AcDbEntity
8
0
100
AcDbPolyline
90
4
70
1
43
0.0
10
-102.77009909999998
20
64.965721799999997
10
-102.77009909999998
20
78.965721800000011
10
-116.77009909999998
20
78.965721800000011
10
-116.77009909999998
20
64.965721799999997
0
LWPOLYLINE
5
127
100
AcDbEntity
8
0
100
AcDbPolyline
90
4
70
1
43
0.0
10
-102.77009909999998
20
45.9157218
10
-102.77009909999998
20
59.9157218
10
-116.77009909999998
20
59.9157218
10
-116.77009909999998
20
45.9157218
0
LWPOLYLINE
5
128
100
AcDbEntity
8
0
100
AcDbPolyline
90
4
70
1
43
0.0
10
-83.720099099999999
20
88.778221800000026
10
-83.720099099999999
20
102.77822180000001
10
-97.720099099999999
20
102.77822180000001
10
-97.720099099999999
20
88.778221800000026
0
LWPOLYLINE
5
129
100
AcDbEntity
8
0
100
AcDbPolyline
90
4
70
1
43
0.0
10
-83.720099099999999
20
69.7282218
10
-83.720099099999999
20
83.7282218
10
-97.720099099999999
20
83.7282218
10
-97.720099099999999
20
69.7282218
0
LWPOLYLINE
5
130
100
AcDbEntity
8
0
100
AcDbPolyline
90
4
70
1
43
0.0
10
-83.720099099999999
20
50.678221800000003
10
-83.720099099999999
20
64.678221800000003
10
-97.720099099999999
20
64.678221800000003
10
-97.720099099999999
20
50.678221800000003
0
LINE
5
131
100
AcDbEntity
8
0
100
AcDbLine
10
-141.68648529999999
20
81.707939200000013
30
0
11
-142.18161933444168
21
81.638352650024416
31
0
0
LWPOLYLINE
5
132
100
AcDbEntity
8
0
100
AcDbPolyline
90
4
70
1
43
0.0
10
-142.18161933444168
20
81.638352650024416
10
-140.23319593512522
20
67.774599685657378
10
-126.36944297767899
20
69.723023134218053
10
-128.31786642623968
20
83.586776091664277
0
LINE
5
133
100
AcDbEntity
8
0
100
AcDbLine
10
-139.03523769999998
20
62.843332500000002
30
0
11
-139.53037173444167
21
62.77374595002442
31
0
0
LWPOLYLINE
5
134
100
AcDbEntity
8
0
100
AcDbPolyline
90
4
70
1
43
0.0
10
-139.53037173444167
20
62.77374595002442
10
-137.5819483351253
20
48.909992985657354
10
-123.71819537075825
20
50.858416384973715
10
-125.66661877007462
20
64.722169349340788
0
LINE
5
135
100
AcDbEntity
8
0
100
AcDbLine
10
-136.38399009999998
20
43.978725800000007
30
0
11
-136.87912413444167
21
43.909139250024424
31
0
0
LINE
5
136
100
AcDbEntity
8
0
100
AcDbLine
10
-136.87912413444167
20
43.909139250024424
30
0
11
-123.01537117007462
21
45.857562649340863
31
0
0
LINE
5
137
100
AcDbEntity
8
0
100
AcDbLine
10
-136.87912413444167
20
43.909139250024424
30
0
11
-134.93070073512524
21
30.045386285657365
31
0
0
LINE
5
138
100
AcDbEntity
8
0
100
AcDbLine
10
-121.06694777075818
20
31.993809684973797
30
0
11
-123.01537117007462
21
45.857562649340863
31
0
0
LWPOLYLINE
5
139
100
AcDbEntity
8
0
100
AcDbPolyline
90
4
70
1
43
0.0
10
-140.26744764094528
20
46.462424156820973
10
-137.48398564192178
20
26.657062779153762
10
-117.67862426425458
20
29.440524778177235
10
-120.46208626327805
20
49.245886155844467
0
LWPOLYLINE
5
140
100
AcDbEntity
8
0
100
AcDbPolyline
90
4
70
1
43
0.0
10
-9.8994949366116138
20
-14.142135623731015
10
-24.041630560342568
20
-3.1086244689504383e-14
10
-9.899494936611589
20
14.142135623730894
10
4.2426406871192723
20
6.6613381477509392e-15
0
LWPOLYLINE
5
141
100
AcDbEntity
8
0
100
AcDbPolyline
90
4
70
1
43
0.0
10
-34.609179241288032
20
29.186116940891754
10
-16.48302350765486
20
20.733751690852145
10
-24.93538875769449
20
2.6075959572189689
10
-43.061544491327659
20
11.059961207258613
0
LWPOLYLINE
5
142
100
AcDbEntity
8
0
100
AcDbPolyline
90
4
70
1
43
0.0
10
-62.73727562748094
20
34.511121381746875
10
-42.813381659081962
20
32.768006601821014
10
-44.55649643900783
20
12.844112633422062
10
-64.480390407406787
20
14.587227413347922
0
LWPOLYLINE
5
143
100
AcDbEntity
8
0
100
AcDbPolyline
90
4
70
1
43
0.0
10
-66.43259909999999
20
34.34072179999999
10
-66.43259909999999
20
14.34072179999999
10
-86.43259909999999
20
14.340721800000019
10
-86.43259909999999
20
34.340721800000019
0
LINE
5
144
100
AcDbEntity
8
0
100
AcDbLine
10
-42.62009909999999
20
38.153221799999997
30
0
11
-37.62009909999999
21
38.153221799999997
31
0
0
LINE
5
145
100
AcDbEntity
8
0
100
AcDbLine
10
-37.62009909999999
20
55.153221799999997
30
0
11
2.3799009000000115
21
55.153221799999997
31
0
0
LWPOLYLINE
5
146
100
AcDbEntity
8
0
100
AcDbPolyline
90
4
70
1
43
0.0
10
-80.720099099999985
20
47.678221800000003
10
-80.720099099999985
20
67.678221800000003
10
-100.7200991
20
67.678221800000003
10
-100.7200991
20
47.678221800000003
0
LWPOLYLINE
5
147
100
AcDbEntity
8
0
100
AcDbPolyline
90
4
70
1
43
0.0
10
-99.770099099999982
20
42.9157218
10
-99.770099099999982
20
62.9157218
10
-119.7700991
20
62.9157218
10
-119.7700991
20
42.9157218
0
LWPOLYLINE
5
148
100
AcDbEntity
8
0
100
AcDbPolyline
90
4
70
1
43
0.0
10
-61.670099099999987
20
38.153221799999997
10
-61.670099099999987
20
58.153221799999997
10
-81.670099099999987
20
58.153221799999997
10
-81.670099099999987
20
38.153221799999997
0
LINE
5
149
100
AcDbEntity
8
0
100
AcDbLine
10
-121.06694777075818
20
31.993809684973797
30
0
11
-120.92777467080701
21
31.003541616090438
31
0
0
LINE
5
150
100
AcDbEntity
8
0
100
AcDbLine
10
-37.62009909999999
20
94.253392021537991
30
0
11
-35.62009909999999
21
94.253392021537991
31
0
0
LINE
5
151
100
AcDbEntity
8
0
100
AcDbLine
10
-35.62009909999999
20
94.253392021537991
30
0
11
-35.62009909999999
21
74.253392021537991
31
0
0
LINE
5
152
100
AcDbEntity
8
0
100
AcDbLine
10
-35.62009909999999
20
74.253392021537991
30
0
11
-18.120099099999987
21
74.253392021537991
31
0
0
LINE
5
153
100
AcDbEntity
8
0
100
AcDbLine
10
-18.120099099999987
20
74.253392021537991
30
0
11
-18.120099099999987
21
94.253392021537991
31
0
0
LINE
5
154
100
AcDbEntity
8
0
100
AcDbLine
10
-18.120099099999987
20
94.253392021537991
30
0
11
-16.120099099999987
21
94.253392021537991
31
0
0
LINE
5
155
100
AcDbEntity
8
0
100
AcDbLine
10
-16.120099099999987
20
94.253392021537991
30
0
11
-16.120099099999987
21
82.053392021537974
31
0
0
LINE
5
156
100
AcDbEntity
8
0
100
AcDbLine
10
-16.120099099999987
20
82.053392021537974
30
0
11
-9.9200990999999856
21
82.053392021537974
31
0
0
LINE
5
157
100
AcDbEntity
8
0
100
AcDbLine
10
-9.9200990999999856
20
82.053392021537974
30
0
11
-9.9200990999999856
21
94.253392021537991
31
0
0
LINE
5
158
100
AcDbEntity
8
0
100
AcDbLine
10
-18.120099099999987
20
74.253392021537991
30
0
11
-18.120099099999987
21
71.753392021537991
31
0
0
LINE
5
159
100
AcDbEntity
8
0
100
AcDbLine
10
2.3800894388140259
20
71.753392021537991
30
0
11
-37.62009909999999
21
71.753392021537991
31
0
0
LINE
5
160
100
AcDbEntity
8
0
100
AcDbLine
10
-37.62009909999999
20
71.753392021537991
30
0
11
2.3799009000000115
21
31.753392021537987
31
0
0
CIRCLE
5
161
100
AcDbEntity
8
0
100
AcDbCircle
10
-17.62009909999999
20
51.753392021537991
30
0
40
17.5
210
0
220
0
230
1
0
LINE
5
162
100
AcDbEntity
8
0
100
AcDbLine
10
-17.530077593258465
20
34.253623562260472
30
0
11
-17.530077593258465
21
31.753623562260476
31
0
0
LINE
5
163
100
AcDbEntity
8
0
100
AcDbLine
10
2.3799009000000115
20
31.753392021537987
30
0
11
-37.62009909999999
21
31.753392021537987
31
0
0
LINE
5
164
100
AcDbEntity
8
0
100
AcDbLine
10
-37.62009909999999
20
31.753392021537987
30
0
11
-37.62009909999999
21
94.253392021537991
31
0
0
LINE
5
165
100
AcDbEntity
8
0
100
AcDbLine
10
-33.620099099999983
20
67.753392021537991
30
0
11
-33.620099099999983
21
71.753392021537991
31
0
0
CIRCLE
5
166
100
AcDbEntity
8
0
100
AcDbCircle
10
-33.620099099999983
20
67.753392021537991
30
0
40
1.4999999999999967
210
0
220
0
230
1
0
LINE
5
167
100
AcDbEntity
8
0
100
AcDbLine
10
2.3800894388140259
20
71.753392021537991
30
0
11
-1.6199105611859743
21
71.753392021537991
31
0
0
LINE
5
168
100
AcDbEntity
8
0
100
AcDbLine
10
-1.6199105611859743
20
71.753392021537991
30
0
11
-1.6199105611859743
21
67.753392021537991
31
0
0
LINE
5
169
100
AcDbEntity
8
0
100
AcDbLine
10
-1.6199105611859743
20
67.753392021537991
30
0
11
-33.620099099999983
21
67.753392021537991
31
0
0
CIRCLE
5
170
100
AcDbEntity
8
0
100
AcDbCircle
10
-1.6199105611859743
20
67.753392021537991
30
0
40
1.5000000000000004
210
0
220
0
230
1
0
LINE
5
171
100
AcDbEntity
8
0
100
AcDbLine
10
2.3799009000000115
20
31.753392021537987
30
0
11
2.3799009000000115
21
35.753392021537984
31
0
0
LINE
5
172
100
AcDbEntity
8
0
100
AcDbLine
10
2.3799009000000115
20
35.753392021537984
30
0
11
-1.6200990999999887
21
35.753392021537991
31
0
0
LINE
5
173
100
AcDbEntity
8
0
100
AcDbLine
10
-1.6200990999999887
20
35.753392021537991
30
0
11
-1.6199105611859743
21
67.753392021537991
31
0
0
CIRCLE
5
174
100
AcDbEntity
8
0
100
AcDbCircle
10
-1.6200990999999887
20
35.753392021537991
30
0
40
1.5000000000000016
210
0
220
0
230
1
0
LINE
5
175
100
AcDbEntity
8
0
100
AcDbLine
10
-1.6200990999999887
20
35.753392021537991
30
0
11
-33.620099099999983
21
35.753580560352006
31
0
0
CIRCLE
5
176
100
AcDbEntity
8
0
100
AcDbCircle
10
-33.620099099999983
20
35.753580560352006
30
0
40
1.5
210
0
220
0
230
1
0
LINE
5
177
100
AcDbEntity
8
0
100
AcDbLine
10
-33.620099099999983
20
35.753580560352006
30
0
11
-33.620099099999983
21
67.753392021537991
31
0
0
LINE
5
178
100
AcDbEntity
8
0
100
AcDbLine
10
-17.62009909999999
20
35.753486290944998
30
0
11
-17.620087316324113
21
37.753486290910288
31
0
0
LINE
5
179
100
AcDbEntity
8
0
100
AcDbLine
10
0
20
0
30
0
11
0.70710678118654713
21
-0.70710678118654824
31
0
0
LINE
5
180
100
AcDbEntity
8
0
100
AcDbLine
10
0.70710678118654713
20
-0.70710678118654824
30
0
11
1.4142135623730965
21
0
31
0
0
LINE
5
181
100
AcDbEntity
8
0
100
AcDbLine
10
1.4142135623730965
20
0
30
0
11
2.3799009000000115
21
0.96568733762691361
31
0
0
LINE
5
182
100
AcDbEntity
8
0
100
AcDbLine
10
-26.386457330233522
20
6.5943741047698934
30
0
11
-26.809075592735503
21
5.6880663180882358
31
0
0
LINE
5
183
100
AcDbEntity
8
0
100
AcDbLine
10
-47.283613317278792
20
16.094163945670786
30
0
11
-47.370769056275094
21
15.097969247250838
31
0
0
LINE
5
184
100
AcDbEntity
8
0
100
AcDbLine
10
-69.432599099999976
20
17.340721799999994
30
0
11
-69.432599099999976
21
16.340721799999994
31
0
0
LINE
5
185
100
AcDbEntity
8
0
100
AcDbLine
10
-33.620099099999983
20
35.753580560352006
30
0
11
-40.12009909999999
21
35.753580560352006
31
0
0
LINE
5
186
100
AcDbEntity
8
0
100
AcDbLine
10
-40.12009909999999
20
35.753580560352006
30
0
11
-40.12009909999999
21
38.153221799999997
31
0
0
CIRCLE
5
187
100
AcDbEntity
8
0
100
AcDbCircle
10
-40.12009909999999
20
35.753580560352006
30
0
40
1.5000000000000016
210
0
220
0
230
1
0
LINE
5
188
100
AcDbEntity
8
0
100
AcDbLine
10
-40.170131498013845
20
94.253392021537991
30
0
11
-40.170131498013845
21
90.253392021537991
31
0
0
CIRCLE
5
189
100
AcDbEntity
8
0
100
AcDbCircle
10
-40.170131498013845
20
90.253392021537991
30
0
40
1.5000000000000078
210
0
220
0
230
1
0
LINE
5
190
100
AcDbEntity
8
0
100
AcDbLine
10
-40.170131498013845
20
90.253392021537991
30
0
11
2.3799009000000115
21
90.253392021537991
31
0
0
CIRCLE
5
191
100
AcDbEntity
8
0
100
AcDbCircle
10
-1.6199105611859743
20
90.253392021537991
30
0
40
1.4999999999999938
210
0
220
0
230
1
0
LWPOLYLINE
5
192
100
AcDbEntity
8
0
100
AcDbPolyline
90
4
70
1
43
0.0
10
-42.62009909999999
20
38.153221799999997
10
-42.62009909999999
20
57.203221800000001
10
-62.62009909999999
20
57.203221800000001
10
-62.62009909999999
20
38.153221799999997
0
LINE
5
193
100
AcDbEntity
8
0
100
AcDbLine
10
-42.62009909999999
20
57.203221800000001
30
0
11
-42.62009909999999
21
58.153221799999997
31
0
0
LWPOLYLINE
5
194
100
AcDbEntity
8
0
100
AcDbPolyline
90
4
70
1
43
0.0
10
-42.62009909999999
20
58.153221799999997
10
-42.62009909999999
20
76.253221800000006
10
-62.62009909999999
20
76.253221800000006
10
-62.62009909999999
20
58.153221799999997
0
LINE
5
195
100
AcDbEntity
8
0
100
AcDbLine
10
-42.62009909999999
20
76.253221800000006
30
0
11
-42.62009909999999
21
77.203221799999994
31
0
0
LWPOLYLINE
5
196
100
AcDbEntity
8
0
100
AcDbPolyline
90
4
70
1
43
0.0
10
-42.62009909999999
20
77.203221799999994
10
-42.62009909999999
20
96.253221800000006
10
-62.62009909999999
20
96.253221800000006
10
-62.62009909999999
20
77.203221799999994
0
LINE
5
197
100
AcDbEntity
8
0
100
AcDbLine
10
-62.62009909999999
20
77.203221799999994
30
0
11
-62.62009909999999
21
76.253221800000006
31
0
0
LINE
5
198
100
AcDbEntity
8
0
100
AcDbLine
10
-62.62009909999999
20
58.153221799999997
30
0
11
-62.62009909999999
21
57.203221800000001
31
0
0
LWPOLYLINE
5
199
100
AcDbEntity
8
0
100
AcDbPolyline
90
20
70
1
43
0.0
10
-81.670099099999987
20
96.253221800000006
10
-80.720099099999985
20
96.253221800000006
10
-80.720099099999985
20
85.778221800000011
10
-81.670099099999987
20
85.778221800000011
10
-99.770099099999982
20
85.778221800000011
10
-99.770099099999982
20
101.01572180000002
10
-100.7200991
20
101.01572180000002
10
-100.7200991
20
85.778221800000011
10
-99.770099099999982
20
85.778221800000011
10
-99.770099099999982
20
81.015721800000023
10
-119.7700991
20
81.015721800000023
10
-119.7700991
20
101.01572180000002
10
-100.7200991
20
101.01572180000002
10
-100.7200991
20
105.77822180000001
10
-80.720099099999985
20
105.77822180000001
10
-80.720099099999985
20
96.253221800000006
10
-61.670099099999987
20
96.253221800000006
10
-61.670099099999987
20
76.253221800000006
10
-81.670099099999987
20
76.253221800000006
10
-81.670099099999987
20
85.778221800000011
0
LWPOLYLINE
5
200
100
AcDbEntity
8
0
100
AcDbPolyline
90
4
70
1
43
0.0
10
-145.56994283946224
20
84.191637546268652
10
-142.91869524094525
20
65.327030856820997
10
-123.11333386327804
20
68.11049285584437
10
-125.76458153147848
20
86.975099607237198
0
LINE
5
201
100
AcDbEntity
8
0
100
AcDbLine
10
-142.91869524094525
20
65.327030856820997
30
0
11
-142.78648084043874
21
64.386276168601427
31
0
0
LWPOLYLINE
5
202
100
AcDbEntity
8
0
100
AcDbPolyline
90
4
70
1
43
0.0
10
-142.78648084043874
20
64.386276168601427
10
-140.1352332419219
20
45.521669479153758
10
-120.32987186425467
20
48.305131478177131
10
-122.98111946210608
20
67.169738239456876
0
LINE
5
203
100
AcDbEntity
8
0
100
AcDbLine
10
-122.98111946210608
20
67.169738239456876
30
0
11
-123.11333386327804
21
68.11049285584437
31
0
0
ENDSEC
0
SECTION
2
OBJECTS
0
DICTIONARY
5
C
100
AcDbDictionary
3
ACAD_GROUP
350
D
3
ACAD_MLINESTYLE
350
17
0
DICTIONARY
5
D
100
AcDbDictionary
0
DICTIONARY
5
1A
330
C
100
AcDbDictionary
0
DICTIONARY
5
17
100
AcDbDictionary
0
ENDSEC
0
EOF
