0
SECTION
2
HEADER
9
$INSUNITS
70
4
9
$ACADVER
1
AC1014
9
$HANDSEED
5
FFFF
0
ENDSEC
0
SECTION
2
TABLES
0
TABLE
2
VPORT
5
8
100
AcDbSymbolTable
0
ENDTAB
0
TABLE
2
LTYPE
5
5
100
AcDbSymbolTable
0
LTYPE
5
14
100
AcDbSymbolTableRecord
100
AcDbLinetypeTableRecord
2
BYBLOCK
70
0
0
LTYPE
5
15
100
AcDbSymbolTableRecord
100
AcDbLinetypeTableRecord
2
BYLAYER
70
0
0
ENDTAB
0
TABLE
2
LAYER
5
2
100
AcDbSymbolTable
70
2
0
LAYER
5
50
100
AcDbSymbolTableRecord
100
AcDbLayerTableRecord
2
0
70
0
6
CONTINUOUS
0
ENDTAB
0
TABLE
2
STYLE
5
3
100
AcDbSymbolTable
70
1
0
STYLE
5
11
100
AcDbSymbolTableRecord
100
AcDbTextStyleTableRecord
2
STANDARD
70
0
0
ENDTAB
0
TABLE
2
VIEW
5
6
100
AcDbSymbolTable
70
0
0
ENDTAB
0
TABLE
2
UCS
5
7
100
AcDbSymbolTable
70
0
0
ENDTAB
0
TABLE
2
APPID
5
9
100
AcDbSymbolTable
70
2
0
APPID
5
12
100
AcDbSymbolTableRecord
100
AcDbRegAppTableRecord
2
ACAD
70
0
0
ENDTAB
0
TABLE
2
DIMSTYLE
5
A
100
AcDbSymbolTable
70
1
0
ENDTAB
0
TABLE
2
BLOCK_RECORD
5
1
100
AcDbSymbolTable
70
1
0
BLOCK_RECORD
5
1F
100
AcDbSymbolTableRecord
100
AcDbBlockTableRecord
2
*MODEL_SPACE
0
BLOCK_RECORD
5
1B
100
AcDbSymbolTableRecord
100
AcDbBlockTableRecord
2
*PAPER_SPACE
0
ENDTAB
0
ENDSEC
0
SECTION
2
BLOCKS
0
BLOCK
5
20
100
AcDbEntity
100
AcDbBlockBegin
2
*MODEL_SPACE
0
ENDBLK
5
21
100
AcDbEntity
100
AcDbBlockEnd
0
BLOCK
5
1C
100
AcDbEntity
100
AcDbBlockBegin
2
*PAPER_SPACE
0
ENDBLK
5
1D
100
AcDbEntity
100
AcDbBlockEnd
0
ENDSEC
0
SECTION
2
ENTITIES
0
LWPOLYLINE
5
100
100
AcDbEntity
8
0
100
AcDbPolyline
90
4
70
1
43
0.0
10
-9.8994949366116138
20
-14.142135623731015
10
-24.041630560342568
20
-3.1086244689504383e-14
10
-9.899494936611589
20
14.142135623730894
10
4.2426406871192723
20
6.6613381477509392e-15
0
LWPOLYLINE
5
101
100
AcDbEntity
8
0
100
AcDbPolyline
90
4
70
1
43
0.0
10
-43.061544491327659
20
11.059961207258613
10
-34.609179241288032
20
29.186116940891754
10
-16.48302350765486
20
20.733751690852145
10
-24.93538875769449
20
2.6075959572189689
0
LWPOLYLINE
5
102
100
AcDbEntity
8
0
100
AcDbPolyline
90
4
70
1
43
0.0
10
-62.73727562748094
20
34.511121381746875
10
-42.813381659081962
20
32.768006601821014
10
-44.55649643900783
20
12.844112633422062
10
-64.480390407406787
20
14.587227413347922
0
LWPOLYLINE
5
103
100
AcDbEntity
8
0
100
AcDbPolyline
90
4
70
1
43
0.0
10
-86.43259909999999
20
34.340721800000019
10
-66.43259909999999
20
34.34072179999999
10
-66.43259909999999
20
14.34072179999999
10
-86.43259909999999
20
14.340721800000019
0
LWPOLYLINE
5
104
100
AcDbEntity
8
0
100
AcDbPolyline
90
4
70
1
43
0.0
10
-66.43259909999999
20
34.34072179999999
10
-66.43259909999999
20
14.34072179999999
10
-86.43259909999999
20
14.340721800000019
10
-86.43259909999999
20
34.340721800000019
0
LWPOLYLINE
5
105
100
AcDbEntity
8
0
100
AcDbPolyline
90
6
70
1
43
0.0
10
-140.26744764094528
20
46.462424156820973
10
-120.46208626327805
20
49.245886155844467
10
-117.67862426425458
20
29.440524778177235
10
-125.76458153147848
20
86.975099607237198
10
-145.56994283946224
20
84.191637546268652
10
-137.48398564192178
20
26.657062779153762
0
LWPOLYLINE
5
106
100
AcDbEntity
8
0
100
AcDbPolyline
90
2
70
1
43
0.0
10
-137.48398564192178
20
26.657062779153762
10
-117.67862426425458
20
29.440524778177235
0
LINE
5
107
100
AcDbEntity
8
0
100
AcDbLine
10
-140.1352332419219
20
45.521669479153758
30
0
11
-120.32987186425467
21
48.305131478177131
31
0
0
LINE
5
108
100
AcDbEntity
8
0
100
AcDbLine
10
-120.32987186425467
20
48.305131478177131
30
0
11
-122.98111946210608
21
67.169738239456876
31
0
0
LINE
5
109
100
AcDbEntity
8
0
100
AcDbLine
10
-142.78648084043874
20
64.386276168601427
30
0
11
-140.1352332419219
21
45.521669479153758
31
0
0
LINE
5
110
100
AcDbEntity
8
0
100
AcDbLine
10
-123.11333386327804
20
68.11049285584437
30
0
11
-125.76458153147848
21
86.975099607237198
31
0
0
LINE
5
111
100
AcDbEntity
8
0
100
AcDbLine
10
-145.56994283946224
20
84.191637546268652
30
0
11
-142.91869524094525
21
65.327030856820997
31
0
0
LINE
5
112
100
AcDbEntity
8
0
100
AcDbLine
10
-119.7700991
20
101.01572180000002
30
0
11
-100.7200991
21
101.01572180000002
31
0
0
LINE
5
113
100
AcDbEntity
8
0
100
AcDbLine
10
-119.7700991
20
81.015721800000023
30
0
11
-99.770099099999982
21
81.015721800000023
31
0
0
LINE
5
114
100
AcDbEntity
8
0
100
AcDbLine
10
-99.770099099999982
20
81.015721800000023
30
0
11
-99.770099099999982
21
85.778221800000011
31
0
0
LWPOLYLINE
5
115
100
AcDbEntity
8
0
100
AcDbPolyline
90
2
70
1
43
0.0
10
-119.7700991
20
101.01572180000002
10
-119.7700991
20
81.015721800000023
0
LINE
5
116
100
AcDbEntity
8
0
100
AcDbLine
10
-100.7200991
20
105.77822180000001
30
0
11
-100.7200991
21
101.01572180000002
31
0
0
LINE
5
117
100
AcDbEntity
8
0
100
AcDbLine
10
-80.720099099999985
20
96.253221800000006
30
0
11
-80.720099099999985
21
105.77822180000001
31
0
0
LINE
5
118
100
AcDbEntity
8
0
100
AcDbLine
10
-100.7200991
20
105.77822180000001
30
0
11
-80.720099099999985
21
105.77822180000001
31
0
0
LINE
5
119
100
AcDbEntity
8
0
100
AcDbLine
10
-82.720163896027699
20
94.253392021537991
30
0
11
2.3799009000000115
21
94.253392021537991
31
0
0
LINE
5
120
100
AcDbEntity
8
0
100
AcDbLine
10
2.3799009000000115
20
31.753392021537987
30
0
11
2.3799009000000115
21
94.253392021537991
31
0
0
LINE
5
121
100
AcDbEntity
8
0
100
AcDbLine
10
2.3799009000000115
20
0.96568733762691361
30
0
11
2.3799009000000115
21
31.753392021537987
31
0
0
LINE
5
122
100
AcDbEntity
8
0
100
AcDbLine
10
2.3799009000000115
20
31.753392021537987
30
0
11
-37.62009909999999
21
31.753392021537987
31
0
0
LINE
5
123
100
AcDbEntity
8
0
100
AcDbLine
10
-37.62009909999999
20
31.753392021537987
30
0
11
-37.62009909999999
21
94.253392021537991
31
0
0
LINE
5
124
100
AcDbEntity
8
0
100
AcDbLine
10
-99.770099099999982
20
42.9157218
30
0
11
-99.770099099999982
21
47.678221800000003
31
0
0
LINE
5
125
100
AcDbEntity
8
0
100
AcDbLine
10
-99.770099099999982
20
47.678221800000003
30
0
11
-81.670099099999987
21
47.678221800000003
31
0
0
LINE
5
126
100
AcDbEntity
8
0
100
AcDbLine
10
-125.76458153147848
20
86.975099607237198
30
0
11
-145.56994283946224
21
84.191637546268652
31
0
0
LINE
5
127
100
AcDbEntity
8
0
100
AcDbLine
10
-42.62009909999999
20
38.153221799999997
30
0
11
-81.670099099999987
21
38.153221799999997
31
0
0
LINE
5
128
100
AcDbEntity
8
0
100
AcDbLine
10
-81.670099099999987
20
47.678221800000003
30
0
11
-81.670099099999987
21
38.153221799999997
31
0
0
LINE
5
129
100
AcDbEntity
8
0
100
AcDbLine
10
-99.770099099999982
20
42.9157218
30
0
11
-119.57243968748095
21
42.9157218
31
0
0
LINE
5
130
100
AcDbEntity
8
0
100
AcDbLine
10
-119.7700991
20
81.015721800000023
30
0
11
-119.7700991
21
44.500000663101673
31
0
0
LINE
5
131
100
AcDbEntity
8
0
100
AcDbLine
10
-80.720099099999985
20
96.253221800000006
30
0
11
-42.62009909999999
21
96.253221800000006
31
0
0
LINE
5
132
100
AcDbEntity
8
0
100
AcDbLine
10
-42.62009909999999
20
96.253221800000006
30
0
11
-42.62009909999999
21
38.153221799999997
31
0
0
LINE
5
133
100
AcDbEntity
8
0
100
AcDbLine
10
-119.7700991
20
44.500000663101673
30
0
11
-119.7700991
21
44.322141609579056
31
0
0
LINE
5
134
100
AcDbEntity
8
0
100
AcDbLine
10
-42.62009909999999
20
96.253221800000006
30
0
11
2.3799009000000115
21
96.253221800000006
31
0
0
LINE
5
135
100
AcDbEntity
8
0
100
AcDbLine
10
-83.43259909999999
20
17.340721800000015
30
0
11
-84.432599099999976
21
17.340721800000015
31
0
0
LINE
5
136
100
AcDbEntity
8
0
100
AcDbLine
10
-84.432599099999976
20
17.340721800000015
30
0
11
-84.432599099999976
21
32.340721800000011
31
0
0
LINE
5
137
100
AcDbEntity
8
0
100
AcDbLine
10
-84.432599099999976
20
32.340721800000011
30
0
11
-120.1155991
21
32.340721800000011
31
0
0
LINE
5
138
100
AcDbEntity
8
0
100
AcDbLine
10
-120.1155991
20
32.340721800000011
30
0
11
-121.06694777075818
21
31.993809684973797
31
0
0
LINE
5
139
100
AcDbEntity
8
0
100
AcDbLine
10
-121.06694777075818
20
31.993809684973797
30
0
11
-120.92777467080701
21
31.003541616090438
31
0
0
LINE
5
140
100
AcDbEntity
8
0
100
AcDbLine
10
-134.93070073512524
20
30.045386285657365
30
0
11
-135.9209688040086
21
29.906213185706193
31
0
0
LINE
5
141
100
AcDbEntity
8
0
100
AcDbLine
10
-143.17188749313246
20
81.49917953745161
30
0
11
-143.31106059660107
21
82.489447605840638
31
0
0
LINE
5
142
100
AcDbEntity
8
0
100
AcDbLine
10
-117.76016389602771
20
86.080392021537989
30
0
11
-117.76016389602771
21
99.015392021537991
31
0
0
LINE
5
143
100
AcDbEntity
8
0
100
AcDbLine
10
-117.76016389602771
20
99.015392021537991
30
0
11
-98.720163896027699
21
99.015392021537991
31
0
0
LINE
5
144
100
AcDbEntity
8
0
100
AcDbLine
10
-98.720163896027699
20
99.015392021537991
30
0
11
-98.720163896027699
21
103.778392021538
31
0
0
LINE
5
145
100
AcDbEntity
8
0
100
AcDbLine
10
-98.720163896027699
20
103.778392021538
30
0
11
-82.720163896027699
21
103.778392021538
31
0
0
LINE
5
146
100
AcDbEntity
8
0
100
AcDbLine
10
-82.720163896027699
20
103.778392021538
30
0
11
-82.720163896027699
21
94.253392021537991
31
0
0
LINE
5
147
100
AcDbEntity
8
0
100
AcDbLine
10
-82.720163896027699
20
94.253392021537991
30
0
11
2.3799009000000115
21
94.253392021537991
31
0
0
LINE
5
148
100
AcDbEntity
8
0
100
AcDbLine
10
2.3799009000000115
20
31.753392021537987
30
0
11
2.3799009000000115
21
94.253392021537991
31
0
0
LINE
5
149
100
AcDbEntity
8
0
100
AcDbLine
10
-135.9209688040086
20
29.906213185706193
30
0
11
-143.17188749313246
21
81.49917953745161
31
0
0
LINE
5
150
100
AcDbEntity
8
0
100
AcDbLine
10
-143.31106059660107
20
82.489447605840638
30
0
11
-117.76016389602771
21
86.080392021537989
31
0
0
LINE
5
151
100
AcDbEntity
8
0
100
AcDbLine
10
-61.230339095158058
20
17.314344291618887
30
0
11
-69.432599099999976
21
17.340721799999994
31
0
0
LINE
5
152
100
AcDbEntity
8
0
100
AcDbLine
10
-39.074766343776737
20
12.511029779797642
30
0
11
-47.283613317278792
21
16.094163945670786
31
0
0
LINE
5
153
100
AcDbEntity
8
0
100
AcDbLine
10
-26.386457330233522
20
6.5943741047698934
30
0
11
-19.798989873223277
21
-3.5527136788005009e-14
31
0
0
LINE
5
154
100
AcDbEntity
8
0
100
AcDbLine
10
-117.67862426425458
20
29.440524778177235
30
0
11
-86.43259909999999
21
29.440524778177235
31
0
0
LINE
5
155
100
AcDbEntity
8
0
100
AcDbLine
10
-66.43259909999999
20
14.34072179999999
30
0
11
-64.480390407406787
21
14.587227413347922
31
0
0
LINE
5
156
100
AcDbEntity
8
0
100
AcDbLine
10
-44.55649643900783
20
12.844112633422062
30
0
11
-43.061544491327659
21
11.059961207258613
31
0
0
LINE
5
157
100
AcDbEntity
8
0
100
AcDbLine
10
-24.93538875769449
20
2.6075959572189689
30
0
11
-24.041630560342568
21
-3.1086244689504383e-14
31
0
0
ENDSEC
0
SECTION
2
OBJECTS
0
DICTIONARY
5
C
100
AcDbDictionary
3
ACAD_GROUP
350
D
3
ACAD_MLINESTYLE
350
17
0
DICTIONARY
5
D
100
AcDbDictionary
0
DICTIONARY
5
1A
330
C
100
AcDbDictionary
0
DICTIONARY
5
17
100
AcDbDictionary
0
ENDSEC
0
EOF
