0
SECTION
2
HEADER
9
$INSUNITS
70
4
9
$ACADVER
1
AC1014
9
$HANDSEED
5
FFFF
0
ENDSEC
0
SECTION
2
TABLES
0
TABLE
2
VPORT
5
8
100
AcDbSymbolTable
0
ENDTAB
0
TABLE
2
LTYPE
5
5
100
AcDbSymbolTable
0
LTYPE
5
14
100
AcDbSymbolTableRecord
100
AcDbLinetypeTableRecord
2
BYBLOCK
70
0
0
LTYPE
5
15
100
AcDbSymbolTableRecord
100
AcDbLinetypeTableRecord
2
BYLAYER
70
0
0
ENDTAB
0
TABLE
2
LAYER
5
2
100
AcDbSymbolTable
70
2
0
LAYER
5
50
100
AcDbSymbolTableRecord
100
AcDbLayerTableRecord
2
0
70
0
6
CONTINUOUS
0
ENDTAB
0
TABLE
2
STYLE
5
3
100
AcDbSymbolTable
70
1
0
STYLE
5
11
100
AcDbSymbolTableRecord
100
AcDbTextStyleTableRecord
2
STANDARD
70
0
0
ENDTAB
0
TABLE
2
VIEW
5
6
100
AcDbSymbolTable
70
0
0
ENDTAB
0
TABLE
2
UCS
5
7
100
AcDbSymbolTable
70
0
0
ENDTAB
0
TABLE
2
APPID
5
9
100
AcDbSymbolTable
70
2
0
APPID
5
12
100
AcDbSymbolTableRecord
100
AcDbRegAppTableRecord
2
ACAD
70
0
0
ENDTAB
0
TABLE
2
DIMSTYLE
5
A
100
AcDbSymbolTable
70
1
0
ENDTAB
0
TABLE
2
BLOCK_RECORD
5
1
100
AcDbSymbolTable
70
1
0
BLOCK_RECORD
5
1F
100
AcDbSymbolTableRecord
100
AcDbBlockTableRecord
2
*MODEL_SPACE
0
BLOCK_RECORD
5
1B
100
AcDbSymbolTableRecord
100
AcDbBlockTableRecord
2
*PAPER_SPACE
0
ENDTAB
0
ENDSEC
0
SECTION
2
BLOCKS
0
BLOCK
5
20
100
AcDbEntity
100
AcDbBlockBegin
2
*MODEL_SPACE
0
ENDBLK
5
21
100
AcDbEntity
100
AcDbBlockEnd
0
BLOCK
5
1C
100
AcDbEntity
100
AcDbBlockBegin
2
*PAPER_SPACE
0
ENDBLK
5
1D
100
AcDbEntity
100
AcDbBlockEnd
0
ENDSEC
0
SECTION
2
ENTITIES
0
LINE
5
100
100
AcDbEntity
8
0
100
AcDbLine
10
-134.93070073512524
20
30.045386285657365
30
0
11
-135.9209688040086
21
29.906213185706193
31
0
0
LINE
5
101
100
AcDbEntity
8
0
100
AcDbLine
10
-135.9209688040086
20
29.906213185706193
30
0
11
-143.17188749313246
21
81.49917953745161
31
0
0
LINE
5
102
100
AcDbEntity
8
0
100
AcDbLine
10
-143.17188749313246
20
81.49917953745161
30
0
11
-143.31106059660107
21
82.489447605840638
31
0
0
LINE
5
103
100
AcDbEntity
8
0
100
AcDbLine
10
-143.31106059660107
20
82.489447605840638
30
0
11
-117.76016389602771
21
86.080392021537989
31
0
0
LINE
5
104
100
AcDbEntity
8
0
100
AcDbLine
10
-117.76016389602771
20
86.080392021537989
30
0
11
-117.76016389602771
21
99.015392021537991
31
0
0
LINE
5
105
100
AcDbEntity
8
0
100
AcDbLine
10
-117.76016389602771
20
99.015392021537991
30
0
11
-98.720163896027699
21
99.015392021537991
31
0
0
LINE
5
106
100
AcDbEntity
8
0
100
AcDbLine
10
-98.720163896027699
20
99.015392021537991
30
0
11
-98.720163896027699
21
103.778392021538
31
0
0
LINE
5
107
100
AcDbEntity
8
0
100
AcDbLine
10
-98.720163896027699
20
103.778392021538
30
0
11
-82.720163896027699
21
103.778392021538
31
0
0
LINE
5
108
100
AcDbEntity
8
0
100
AcDbLine
10
-82.720163896027699
20
103.778392021538
30
0
11
-82.720163896027699
21
94.253392021537991
31
0
0
LINE
5
109
100
AcDbEntity
8
0
100
AcDbLine
10
-82.720163896027699
20
94.253392021537991
30
0
11
2.3799009000000115
21
94.253392021537991
31
0
0
LINE
5
110
100
AcDbEntity
8
0
100
AcDbLine
10
2.3799009000000115
20
31.753392021537987
30
0
11
2.3799009000000115
21
94.253392021537991
31
0
0
LINE
5
111
100
AcDbEntity
8
0
100
AcDbLine
10
0.70710678118654713
20
-0.70710678118654824
30
0
11
1.4142135623730965
21
0
31
0
0
LINE
5
112
100
AcDbEntity
8
0
100
AcDbLine
10
1.4142135623730965
20
0
30
0
11
2.3799009000000115
21
0.96568733762691361
31
0
0
LINE
5
113
100
AcDbEntity
8
0
100
AcDbLine
10
2.3799009000000115
20
0.96568733762691361
30
0
11
2.3799009000000115
21
31.753392021537987
31
0
0
LINE
5
114
100
AcDbEntity
8
0
100
AcDbLine
10
-121.06694777075818
20
31.993809684973797
30
0
11
-120.92777467080701
21
31.003541616090438
31
0
0
LINE
5
115
100
AcDbEntity
8
0
100
AcDbLine
10
-134.93070073512524
20
30.045386285657365
30
0
11
-121.06694777075818
21
31.993809684973797
31
0
0
CIRCLE
5
116
100
AcDbEntity
8
0
100
AcDbCircle
10
-33.620099099999983
20
67.753392021537991
30
0
40
1.4999999999999967
210
0
220
0
230
1
0
CIRCLE
5
117
100
AcDbEntity
8
0
100
AcDbCircle
10
-33.620099099999983
20
67.753392021537991
30
0
40
1.4999999999999967
210
0
220
0
230
1
0
CIRCLE
5
118
100
AcDbEntity
8
0
100
AcDbCircle
10
-1.6199105611859743
20
67.753392021537991
30
0
40
1.5000000000000004
210
0
220
0
230
1
0
CIRCLE
5
119
100
AcDbEntity
8
0
100
AcDbCircle
10
-1.6200990999999887
20
35.753392021537991
30
0
40
1.5000000000000016
210
0
220
0
230
1
0
CIRCLE
5
120
100
AcDbEntity
8
0
100
AcDbCircle
10
-33.620099099999983
20
35.753580560352006
30
0
40
1.5
210
0
220
0
230
1
0
CIRCLE
5
121
100
AcDbEntity
8
0
100
AcDbCircle
10
-1.6199105611859743
20
90.253392021537991
30
0
40
1.4999999999999938
210
0
220
0
230
1
0
CIRCLE
5
122
100
AcDbEntity
8
0
100
AcDbCircle
10
-40.170131498013845
20
90.253392021537991
30
0
40
1.5000000000000078
210
0
220
0
230
1
0
CIRCLE
5
123
100
AcDbEntity
8
0
100
AcDbCircle
10
-40.12009909999999
20
35.753580560352006
30
0
40
1.5000000000000016
210
0
220
0
230
1
0
LINE
5
124
100
AcDbEntity
8
0
100
AcDbLine
10
-121.06694777075818
20
31.993809684973797
30
0
11
-84.432599099999976
21
31.993809684973797
31
0
0
LWPOLYLINE
5
125
100
AcDbEntity
8
0
100
AcDbPolyline
90
4
70
1
43
0.0
10
-142.18161933444168
20
81.638352650024416
10
-140.23319593512522
20
67.774599685657378
10
-126.36944297767899
20
69.723023134218053
10
-128.31786642623968
20
83.586776091664277
0
LINE
5
126
100
AcDbEntity
8
0
100
AcDbLine
10
2.3799009000000115
20
31.753392021537987
30
0
11
-37.62009909999999
21
31.753392021537987
31
0
0
LINE
5
127
100
AcDbEntity
8
0
100
AcDbLine
10
-37.62009909999999
20
31.753392021537987
30
0
11
-37.62009909999999
21
94.253392021537991
31
0
0
LINE
5
128
100
AcDbEntity
8
0
100
AcDbLine
10
-37.62009909999999
20
94.253392021537991
30
0
11
-35.62009909999999
21
94.253392021537991
31
0
0
LINE
5
129
100
AcDbEntity
8
0
100
AcDbLine
10
-35.62009909999999
20
94.253392021537991
30
0
11
-35.62009909999999
21
74.253392021537991
31
0
0
LINE
5
130
100
AcDbEntity
8
0
100
AcDbLine
10
-35.62009909999999
20
74.253392021537991
30
0
11
-18.120099099999987
21
74.253392021537991
31
0
0
LINE
5
131
100
AcDbEntity
8
0
100
AcDbLine
10
-18.120099099999987
20
74.253392021537991
30
0
11
-18.120099099999987
21
94.253392021537991
31
0
0
LINE
5
132
100
AcDbEntity
8
0
100
AcDbLine
10
-35.62009909999999
20
74.253392021537991
30
0
11
-18.120099099999987
21
74.253392021537991
31
0
0
LINE
5
133
100
AcDbEntity
8
0
100
AcDbLine
10
-9.9200990999999856
20
82.053392021537974
30
0
11
-9.9200990999999856
21
94.253392021537991
31
0
0
LINE
5
134
100
AcDbEntity
8
0
100
AcDbLine
10
-16.120099099999987
20
94.253392021537991
30
0
11
-16.120099099999987
21
82.053392021537974
31
0
0
LINE
5
135
100
AcDbEntity
8
0
100
AcDbLine
10
-16.120099099999987
20
82.053392021537974
30
0
11
-9.9200990999999856
21
82.053392021537974
31
0
0
LINE
5
136
100
AcDbEntity
8
0
100
AcDbLine
10
-9.1923881554251334
20
-10.606601717798206
30
0
11
2.3799009000000115
21
0.96568733762691361
31
0
0
LINE
5
137
100
AcDbEntity
8
0
100
AcDbLine
10
-9.8994949366116209
20
-9.8994949366117169
30
0
11
-19.798989873223277
21
-3.5527136788005009e-14
31
0
0
LINE
5
138
100
AcDbEntity
8
0
100
AcDbLine
10
-26.386457330233522
20
6.5943741047698934
30
0
11
-19.798989873223277
21
-3.5527136788005009e-14
31
0
0
LINE
5
139
100
AcDbEntity
8
0
100
AcDbLine
10
-26.386457330233522
20
6.5943741047698934
30
0
11
-39.074766343776737
21
12.511029779797642
31
0
0
LINE
5
140
100
AcDbEntity
8
0
100
AcDbLine
10
-39.074766343776737
20
12.511029779797642
30
0
11
-47.283613317278792
21
16.094163945670786
31
0
0
LINE
5
141
100
AcDbEntity
8
0
100
AcDbLine
10
-61.230339095158058
20
17.314344291618887
30
0
11
-47.283613317278792
21
16.094163945670786
31
0
0
LINE
5
142
100
AcDbEntity
8
0
100
AcDbLine
10
-61.230339095158058
20
17.314344291618887
30
0
11
-69.432599099999976
21
17.340721799999994
31
0
0
LINE
5
143
100
AcDbEntity
8
0
100
AcDbLine
10
-69.432599099999976
20
17.340721799999994
30
0
11
-83.43259909999999
21
17.340721800000015
31
0
0
LINE
5
144
100
AcDbEntity
8
0
100
AcDbLine
10
-83.43259909999999
20
17.340721800000015
30
0
11
-84.432599099999976
21
17.340721800000015
31
0
0
LINE
5
145
100
AcDbEntity
8
0
100
AcDbLine
10
-84.432599099999976
20
17.340721800000015
30
0
11
-84.432599099999976
21
32.340721800000011
31
0
0
LINE
5
146
100
AcDbEntity
8
0
100
AcDbLine
10
-9.8994949366116209
20
-9.8994949366117169
30
0
11
-9.1923881554251334
21
-10.606601717798206
31
0
0
ENDSEC
0
SECTION
2
OBJECTS
0
DICTIONARY
5
C
100
AcDbDictionary
3
ACAD_GROUP
350
D
3
ACAD_MLINESTYLE
350
17
0
DICTIONARY
5
D
100
AcDbDictionary
0
DICTIONARY
5
1A
330
C
100
AcDbDictionary
0
DICTIONARY
5
17
100
AcDbDictionary
0
ENDSEC
0
EOF
