G04 #@! TF.GenerationSoftware,KiCad,Pcbnew,(6.0.7)*
G04 #@! TF.CreationDate,2022-09-25T19:35:04+02:00*
G04 #@! TF.ProjectId,xiao_split,7869616f-5f73-4706-9c69-742e6b696361,rev?*
G04 #@! TF.SameCoordinates,Original*
G04 #@! TF.FileFunction,Soldermask,Bot*
G04 #@! TF.FilePolarity,Negative*
%FSLAX46Y46*%
G04 Gerber Fmt 4.6, Leading zero omitted, Abs format (unit mm)*
G04 Created by KiCad (PCBNEW (6.0.7)) date 2022-09-25 19:35:04*
%MOMM*%
%LPD*%
G01*
G04 APERTURE LIST*
G04 Aperture macros list*
%AMRoundRect*
0 Rectangle with rounded corners*
0 $1 Rounding radius*
0 $2 $3 $4 $5 $6 $7 $8 $9 X,Y pos of 4 corners*
0 Add a 4 corners polygon primitive as box body*
4,1,4,$2,$3,$4,$5,$6,$7,$8,$9,$2,$3,0*
0 Add four circle primitives for the rounded corners*
1,1,$1+$1,$2,$3*
1,1,$1+$1,$4,$5*
1,1,$1+$1,$6,$7*
1,1,$1+$1,$8,$9*
0 Add four rect primitives between the rounded corners*
20,1,$1+$1,$2,$3,$4,$5,0*
20,1,$1+$1,$4,$5,$6,$7,0*
20,1,$1+$1,$6,$7,$8,$9,0*
20,1,$1+$1,$8,$9,$2,$3,0*%
%AMHorizOval*
0 Thick line with rounded ends*
0 $1 width*
0 $2 $3 position (X,Y) of the first rounded end (center of the circle)*
0 $4 $5 position (X,Y) of the second rounded end (center of the circle)*
0 Add line between two ends*
20,1,$1,$2,$3,$4,$5,0*
0 Add two circle primitives to create the rounded ends*
1,1,$1,$2,$3*
1,1,$1,$4,$5*%
%AMRotRect*
0 Rectangle, with rotation*
0 The origin of the aperture is its center*
0 $1 length*
0 $2 width*
0 $3 Rotation angle, in degrees counterclockwise*
0 Add horizontal line*
21,1,$1,$2,0,0,$3*%
G04 Aperture macros list end*
%ADD10C,1.750000*%
%ADD11C,3.987800*%
%ADD12C,1.700000*%
%ADD13C,1.200000*%
%ADD14C,2.000000*%
%ADD15HorizOval,2.250000X0.019771X0.290016X-0.019771X-0.290016X0*%
%ADD16C,2.250000*%
%ADD17HorizOval,2.250000X0.654995X0.730004X-0.654995X-0.730004X0*%
%ADD18R,1.350000X1.350000*%
%ADD19O,1.350000X1.350000*%
%ADD20C,0.800000*%
%ADD21O,1.600000X2.000000*%
%ADD22C,0.787400*%
%ADD23HorizOval,2.250000X-0.020784X0.289945X0.020784X-0.289945X0*%
%ADD24HorizOval,2.250000X0.547024X0.814058X-0.547024X-0.814058X0*%
%ADD25R,2.000000X3.200000*%
%ADD26R,2.000000X2.000000*%
%ADD27HorizOval,2.250000X-0.104647X0.271199X0.104647X-0.271199X0*%
%ADD28HorizOval,2.250000X0.285114X0.938422X-0.285114X-0.938422X0*%
%ADD29R,1.700000X1.700000*%
%ADD30O,1.700000X1.700000*%
%ADD31C,6.400000*%
%ADD32HorizOval,2.250000X0.044973X0.287189X-0.044973X-0.287189X0*%
%ADD33HorizOval,2.250000X0.716127X0.670140X-0.716127X-0.670140X0*%
%ADD34HorizOval,2.250000X0.059941X0.284442X-0.059941X-0.284442X0*%
%ADD35HorizOval,2.250000X0.750218X0.631742X-0.750218X-0.631742X0*%
%ADD36O,2.750000X1.800000*%
%ADD37C,1.800000*%
%ADD38HorizOval,2.250000X0.219053X0.191092X-0.219053X-0.191092X0*%
%ADD39HorizOval,2.250000X0.979343X0.053039X-0.979343X-0.053039X0*%
%ADD40HorizOval,2.250000X-0.005580X0.290635X0.005580X-0.290635X0*%
%ADD41HorizOval,2.250000X0.588879X0.784313X-0.588879X-0.784313X0*%
%ADD42HorizOval,2.250000X-0.191092X0.219053X0.191092X-0.219053X0*%
%ADD43HorizOval,2.250000X-0.053039X0.979343X0.053039X-0.979343X0*%
%ADD44HorizOval,2.250000X0.140485X0.254488X-0.140485X-0.254488X0*%
%ADD45HorizOval,2.250000X0.902141X0.384796X-0.902141X-0.384796X0*%
%ADD46R,1.700000X0.820000*%
%ADD47RoundRect,0.205000X0.645000X0.205000X-0.645000X0.205000X-0.645000X-0.205000X0.645000X-0.205000X0*%
%ADD48RotRect,1.700000X0.820000X172.000000*%
%ADD49RoundRect,0.205000X0.667253X0.113238X-0.610192X0.292772X-0.667253X-0.113238X0.610192X-0.292772X0*%
%ADD50RoundRect,0.205000X-0.645000X-0.205000X0.645000X-0.205000X0.645000X0.205000X-0.645000X0.205000X0*%
%ADD51RotRect,1.700000X0.820000X5.000000*%
%ADD52RoundRect,0.205000X-0.624679X-0.260435X0.660413X-0.148004X0.624679X0.260435X-0.660413X0.148004X0*%
%ADD53RotRect,1.700000X0.820000X45.000000*%
%ADD54RoundRect,0.205000X-0.311127X-0.601041X0.601041X0.311127X0.311127X0.601041X-0.601041X-0.311127X0*%
%ADD55RotRect,1.700000X0.820000X25.000000*%
%ADD56RoundRect,0.205000X-0.497932X-0.458382X0.671205X0.086796X0.497932X0.458382X-0.671205X-0.086796X0*%
%ADD57RotRect,1.700000X0.820000X8.000000*%
%ADD58RoundRect,0.205000X-0.610192X-0.292772X0.667253X-0.113238X0.610192X0.292772X-0.667253X0.113238X0*%
%ADD59RotRect,1.700000X0.820000X155.000000*%
%ADD60RoundRect,0.205000X0.671205X-0.086796X-0.497932X0.458382X-0.671205X0.086796X0.497932X-0.458382X0*%
%ADD61RotRect,1.700000X0.820000X175.000000*%
%ADD62RoundRect,0.205000X0.660413X0.148004X-0.624679X0.260435X-0.660413X-0.148004X0.624679X-0.260435X0*%
%ADD63RotRect,1.700000X0.820000X135.000000*%
%ADD64RoundRect,0.205000X0.601041X-0.311127X-0.311127X0.601041X-0.601041X0.311127X0.311127X-0.601041X0*%
%ADD65RotRect,1.700000X0.820000X188.000000*%
%ADD66RoundRect,0.205000X0.610192X0.292772X-0.667253X0.113238X-0.610192X-0.292772X0.667253X-0.113238X0*%
G04 APERTURE END LIST*
D10*
G04 #@! TO.C,K12*
X124703235Y-78672271D03*
X114543235Y-78672271D03*
D11*
X119623235Y-78672271D03*
D12*
X125123235Y-78672271D03*
D13*
X114403235Y-82872271D03*
D12*
X114123235Y-78672271D03*
D14*
X124623235Y-74872271D03*
D15*
X122143006Y-73882255D03*
D16*
X122163235Y-73592271D03*
D14*
X119623235Y-72772271D03*
D16*
X117123235Y-74672271D03*
D17*
X116468230Y-75402267D03*
G04 #@! TD*
D10*
G04 #@! TO.C,K22*
X276780000Y-69142500D03*
D13*
X266480000Y-73342500D03*
D11*
X271700000Y-69142500D03*
D12*
X277200000Y-69142500D03*
D10*
X266620000Y-69142500D03*
D12*
X266200000Y-69142500D03*
D15*
X274219771Y-64352484D03*
D14*
X276700000Y-65342500D03*
D16*
X274240000Y-64062500D03*
D14*
X271700000Y-63242500D03*
D17*
X268544995Y-65872496D03*
D16*
X269200000Y-65142500D03*
G04 #@! TD*
D18*
G04 #@! TO.C,J6*
X222240000Y-83400000D03*
D19*
X222240000Y-81400000D03*
X222240000Y-79400000D03*
X222240000Y-77400000D03*
G04 #@! TD*
D12*
G04 #@! TO.C,K27*
X296250000Y-88192500D03*
D11*
X290750000Y-88192500D03*
D10*
X285670000Y-88192500D03*
D13*
X285530000Y-92392500D03*
D10*
X295830000Y-88192500D03*
D12*
X285250000Y-88192500D03*
D16*
X293290000Y-83112500D03*
D15*
X293269771Y-83402484D03*
D14*
X295750000Y-84392500D03*
D16*
X288250000Y-84192500D03*
D17*
X287594995Y-84922496D03*
D14*
X290750000Y-82292500D03*
G04 #@! TD*
D20*
G04 #@! TO.C,J1*
X199420000Y-52897500D03*
X199420000Y-45897500D03*
D21*
X201720000Y-47497500D03*
X197120000Y-55597500D03*
X201720000Y-50497500D03*
X201720000Y-54497500D03*
G04 #@! TD*
D20*
G04 #@! TO.C,J4*
X230220000Y-52897500D03*
X230220000Y-45897500D03*
D21*
X232520000Y-47497500D03*
X227920000Y-55597500D03*
X232520000Y-50497500D03*
X232520000Y-54497500D03*
G04 #@! TD*
D12*
G04 #@! TO.C,K8*
X95050000Y-83434771D03*
D11*
X100550000Y-83434771D03*
D10*
X105630000Y-83434771D03*
D12*
X106050000Y-83434771D03*
D13*
X95330000Y-87634771D03*
D10*
X95470000Y-83434771D03*
D14*
X105550000Y-79634771D03*
D15*
X103069771Y-78644755D03*
D16*
X103090000Y-78354771D03*
D17*
X97394995Y-80164767D03*
D14*
X100550000Y-77534771D03*
D16*
X98050000Y-79434771D03*
G04 #@! TD*
D11*
G04 #@! TO.C,K14*
X138673235Y-50097271D03*
D10*
X133593235Y-50097271D03*
D12*
X133173235Y-50097271D03*
D10*
X143753235Y-50097271D03*
D13*
X133453235Y-54297271D03*
D12*
X144173235Y-50097271D03*
D16*
X141213235Y-45017271D03*
D14*
X143673235Y-46297271D03*
D15*
X141193006Y-45307255D03*
D17*
X135518230Y-46827267D03*
D16*
X136173235Y-46097271D03*
D14*
X138673235Y-44197271D03*
G04 #@! TD*
D12*
G04 #@! TO.C,K7*
X106073235Y-64384771D03*
D10*
X105653235Y-64384771D03*
D13*
X95353235Y-68584771D03*
D11*
X100573235Y-64384771D03*
D10*
X95493235Y-64384771D03*
D12*
X95073235Y-64384771D03*
D16*
X103113235Y-59304771D03*
D14*
X105573235Y-60584771D03*
D15*
X103093006Y-59594755D03*
D17*
X97418230Y-61114767D03*
D14*
X100573235Y-58484771D03*
D16*
X98073235Y-60384771D03*
G04 #@! TD*
D12*
G04 #@! TO.C,K32*
X301012500Y-112005000D03*
D11*
X295512500Y-112005000D03*
D10*
X300592500Y-112005000D03*
D12*
X290012500Y-112005000D03*
D10*
X290432500Y-112005000D03*
D13*
X290292500Y-116205000D03*
D15*
X298032271Y-107214984D03*
D14*
X300512500Y-108205000D03*
D16*
X298052500Y-106925000D03*
D14*
X295512500Y-106105000D03*
D16*
X293012500Y-108005000D03*
D17*
X292357495Y-108734996D03*
G04 #@! TD*
D10*
G04 #@! TO.C,K6*
X105653235Y-45334771D03*
D12*
X95073235Y-45334771D03*
D11*
X100573235Y-45334771D03*
D10*
X95493235Y-45334771D03*
D12*
X106073235Y-45334771D03*
D13*
X95353235Y-49534771D03*
D14*
X105573235Y-41534771D03*
D16*
X103113235Y-40254771D03*
D15*
X103093006Y-40544755D03*
D16*
X98073235Y-41334771D03*
D17*
X97418230Y-42064767D03*
D14*
X100573235Y-39434771D03*
G04 #@! TD*
D22*
G04 #@! TO.C,REF\u002A\u002A*
X216235150Y-120120000D03*
X216235150Y-122660000D03*
X216235150Y-118850000D03*
X216235150Y-121390000D03*
X216235150Y-123930000D03*
G04 #@! TD*
D12*
G04 #@! TO.C,K2*
X70603526Y-61425452D03*
D10*
X71019438Y-61366999D03*
D12*
X81496474Y-59894548D03*
D13*
X71465328Y-65545609D03*
D10*
X81080562Y-59953001D03*
D11*
X76050000Y-60660000D03*
D23*
X77878607Y-55565916D03*
D16*
X77858282Y-55275939D03*
D14*
X80472483Y-56201116D03*
X75228879Y-54817418D03*
D24*
X72470603Y-57860911D03*
D16*
X73017637Y-57046860D03*
G04 #@! TD*
D25*
G04 #@! TO.C,SW1*
X128310735Y-112009771D03*
X139510735Y-112009771D03*
D26*
X131410735Y-119509771D03*
D14*
X136410735Y-119509771D03*
X133910735Y-119509771D03*
X136410735Y-105009771D03*
X131410735Y-105009771D03*
G04 #@! TD*
D10*
G04 #@! TO.C,K35*
X323770000Y-83430000D03*
D12*
X323350000Y-83430000D03*
X334350000Y-83430000D03*
D10*
X333930000Y-83430000D03*
D11*
X328850000Y-83430000D03*
D13*
X323630000Y-87630000D03*
D15*
X331369771Y-78639984D03*
D14*
X333850000Y-79630000D03*
D16*
X331390000Y-78350000D03*
D17*
X325694995Y-80159996D03*
D14*
X328850000Y-77530000D03*
D16*
X326350000Y-79430000D03*
G04 #@! TD*
D13*
G04 #@! TO.C,K24*
X249360553Y-124916906D03*
D11*
X252316483Y-118904346D03*
D10*
X256920527Y-116757445D03*
X247712439Y-121051247D03*
D12*
X257301176Y-116579946D03*
X247331790Y-121228746D03*
D14*
X255242073Y-113347285D03*
D16*
X252471604Y-113226852D03*
D27*
X252575823Y-113498216D03*
D14*
X249823035Y-113557130D03*
D28*
X248075114Y-117274078D03*
D16*
X248360240Y-116335661D03*
G04 #@! TD*
D29*
G04 #@! TO.C,J5*
X218530000Y-50980000D03*
D30*
X218530000Y-53520000D03*
X218530000Y-56060000D03*
X218530000Y-58600000D03*
X218530000Y-61140000D03*
X218530000Y-63680000D03*
G04 #@! TD*
D10*
G04 #@! TO.C,K1*
X138990735Y-112009771D03*
D13*
X128690735Y-116209771D03*
D12*
X128410735Y-112009771D03*
D11*
X133910735Y-112009771D03*
D10*
X128830735Y-112009771D03*
D12*
X139410735Y-112009771D03*
D15*
X136430506Y-107219755D03*
D16*
X136450735Y-106929771D03*
D14*
X138910735Y-108209771D03*
X133910735Y-106109771D03*
D17*
X130755730Y-108739767D03*
D16*
X131410735Y-108009771D03*
G04 #@! TD*
D10*
G04 #@! TO.C,K21*
X276790000Y-50100000D03*
D12*
X277210000Y-50100000D03*
D10*
X266630000Y-50100000D03*
D13*
X266490000Y-54300000D03*
D11*
X271710000Y-50100000D03*
D12*
X266210000Y-50100000D03*
D14*
X276710000Y-46300000D03*
D16*
X274250000Y-45020000D03*
D15*
X274229771Y-45309984D03*
D14*
X271710000Y-44200000D03*
D17*
X268554995Y-46829996D03*
D16*
X269210000Y-46100000D03*
G04 #@! TD*
D20*
G04 #@! TO.C,REF\u002A\u002A*
X167830000Y-100590000D03*
X171927056Y-98892944D03*
X168532944Y-98892944D03*
X168532944Y-102287056D03*
D31*
X170230000Y-100590000D03*
D20*
X171927056Y-102287056D03*
X170230000Y-98190000D03*
X172630000Y-100590000D03*
X170230000Y-102990000D03*
G04 #@! TD*
G04 #@! TO.C,REF\u002A\u002A*
X208700000Y-48520000D03*
D31*
X208700000Y-46120000D03*
D20*
X207002944Y-44422944D03*
X208700000Y-43720000D03*
X210397056Y-47817056D03*
X211100000Y-46120000D03*
X206300000Y-46120000D03*
X210397056Y-44422944D03*
X207002944Y-47817056D03*
G04 #@! TD*
D10*
G04 #@! TO.C,K5*
X149659331Y-112487249D03*
D13*
X149153810Y-116659065D03*
D10*
X159780669Y-113372751D03*
D12*
X160199071Y-113409357D03*
D11*
X154720000Y-112930000D03*
D12*
X149240929Y-112450643D03*
D16*
X157693086Y-108090707D03*
D14*
X160032165Y-109580239D03*
D32*
X157647661Y-108377824D03*
D33*
X151862001Y-109397462D03*
D14*
X155234219Y-107052451D03*
D16*
X152578136Y-108727332D03*
G04 #@! TD*
D11*
G04 #@! TO.C,K37*
X350698978Y-79539005D03*
D10*
X345668416Y-78832006D03*
X355729540Y-80246004D03*
D12*
X345252504Y-78773553D03*
D13*
X344945252Y-82971647D03*
D12*
X356145452Y-80304457D03*
D14*
X356179176Y-76471852D03*
D34*
X353860868Y-75146289D03*
D16*
X353921258Y-74861943D03*
X348780000Y-75230000D03*
D35*
X348029774Y-75861733D03*
D14*
X351520099Y-73696423D03*
G04 #@! TD*
D29*
G04 #@! TO.C,J2*
X210910000Y-50980000D03*
D30*
X210910000Y-53520000D03*
X210910000Y-56060000D03*
X210910000Y-58600000D03*
X210910000Y-61140000D03*
X210910000Y-63680000D03*
G04 #@! TD*
D36*
G04 #@! TO.C,M2*
X236975000Y-45240000D03*
X236975000Y-47780000D03*
X236975000Y-50320000D03*
X236975000Y-52860000D03*
X236975000Y-55400000D03*
X236975000Y-57940000D03*
X236975000Y-60480000D03*
X253165000Y-60480000D03*
X253165000Y-57940000D03*
X253165000Y-55400000D03*
X253165000Y-52860000D03*
X253165000Y-50320000D03*
X253165000Y-47780000D03*
X253165000Y-45240000D03*
D37*
X243800000Y-44288000D03*
X246340000Y-44288000D03*
X243800000Y-46828000D03*
X246340000Y-46828000D03*
G04 #@! TD*
D13*
G04 #@! TO.C,K16*
X133450000Y-92397271D03*
D12*
X144170000Y-88197271D03*
D11*
X138670000Y-88197271D03*
D10*
X143750000Y-88197271D03*
D12*
X133170000Y-88197271D03*
D10*
X133590000Y-88197271D03*
D15*
X141189771Y-83407255D03*
D16*
X141210000Y-83117271D03*
D14*
X143670000Y-84397271D03*
D16*
X136170000Y-84197271D03*
D14*
X138670000Y-82297271D03*
D17*
X135514995Y-84927267D03*
G04 #@! TD*
D10*
G04 #@! TO.C,K17*
X162803235Y-50097271D03*
X152643235Y-50097271D03*
D11*
X157723235Y-50097271D03*
D13*
X152503235Y-54297271D03*
D12*
X152223235Y-50097271D03*
X163223235Y-50097271D03*
D16*
X160263235Y-45017271D03*
D14*
X162723235Y-46297271D03*
D15*
X160243006Y-45307255D03*
D17*
X154568230Y-46827267D03*
D16*
X155223235Y-46097271D03*
D14*
X157723235Y-44197271D03*
G04 #@! TD*
D20*
G04 #@! TO.C,REF\u002A\u002A*
X206330000Y-100600000D03*
X207032944Y-98902944D03*
X207032944Y-102297056D03*
X208730000Y-98200000D03*
X211130000Y-100600000D03*
X208730000Y-103000000D03*
D31*
X208730000Y-100600000D03*
D20*
X210427056Y-102297056D03*
X210427056Y-98902944D03*
G04 #@! TD*
D11*
G04 #@! TO.C,K18*
X157723235Y-69147271D03*
D12*
X152223235Y-69147271D03*
D13*
X152503235Y-73347271D03*
D12*
X163223235Y-69147271D03*
D10*
X152643235Y-69147271D03*
X162803235Y-69147271D03*
D16*
X160263235Y-64067271D03*
D14*
X162723235Y-65347271D03*
D15*
X160243006Y-64357255D03*
D14*
X157723235Y-63247271D03*
D17*
X154568230Y-65877267D03*
D16*
X155223235Y-65147271D03*
G04 #@! TD*
D31*
G04 #@! TO.C,REF\u002A\u002A*
X170170000Y-46100000D03*
D20*
X168472944Y-47797056D03*
X170170000Y-48500000D03*
X172570000Y-46100000D03*
X170170000Y-43700000D03*
X171867056Y-47797056D03*
X167770000Y-46100000D03*
X171867056Y-44402944D03*
X168472944Y-44402944D03*
G04 #@! TD*
D10*
G04 #@! TO.C,K11*
X124703235Y-59622271D03*
D12*
X114123235Y-59622271D03*
D13*
X114403235Y-63822271D03*
D10*
X114543235Y-59622271D03*
D11*
X119623235Y-59622271D03*
D12*
X125123235Y-59622271D03*
D16*
X122163235Y-54542271D03*
D15*
X122143006Y-54832255D03*
D14*
X124623235Y-55822271D03*
D16*
X117123235Y-55622271D03*
D14*
X119623235Y-53722271D03*
D17*
X116468230Y-56352267D03*
G04 #@! TD*
D11*
G04 #@! TO.C,K23*
X271700000Y-88192500D03*
D10*
X276780000Y-88192500D03*
D13*
X266480000Y-92392500D03*
D12*
X277200000Y-88192500D03*
X266200000Y-88192500D03*
D10*
X266620000Y-88192500D03*
D14*
X276700000Y-84392500D03*
D16*
X274240000Y-83112500D03*
D15*
X274219771Y-83402484D03*
D16*
X269200000Y-84192500D03*
D14*
X271700000Y-82292500D03*
D17*
X268544995Y-84922496D03*
G04 #@! TD*
D10*
G04 #@! TO.C,K36*
X348339438Y-59965583D03*
D11*
X353370000Y-60672582D03*
D12*
X347923526Y-59907130D03*
D10*
X358400562Y-61379581D03*
D13*
X347616274Y-64105224D03*
D12*
X358816474Y-61438034D03*
D14*
X358850198Y-57605429D03*
D34*
X356531890Y-56279866D03*
D16*
X356592280Y-55995520D03*
X351451022Y-56363577D03*
D14*
X354191121Y-54830000D03*
D35*
X350700796Y-56995310D03*
G04 #@! TD*
D10*
G04 #@! TO.C,K15*
X133593235Y-69147271D03*
X143753235Y-69147271D03*
D12*
X133173235Y-69147271D03*
D13*
X133453235Y-73347271D03*
D12*
X144173235Y-69147271D03*
D11*
X138673235Y-69147271D03*
D14*
X143673235Y-65347271D03*
D15*
X141193006Y-64357255D03*
D16*
X141213235Y-64067271D03*
D14*
X138673235Y-63247271D03*
D16*
X136173235Y-65147271D03*
D17*
X135518230Y-65877267D03*
G04 #@! TD*
D18*
G04 #@! TO.C,J3*
X207130000Y-83400000D03*
D19*
X207130000Y-81400000D03*
X207130000Y-79400000D03*
X207130000Y-77400000D03*
G04 #@! TD*
D12*
G04 #@! TO.C,K25*
X285250000Y-50092500D03*
D13*
X285530000Y-54292500D03*
D10*
X285670000Y-50092500D03*
D11*
X290750000Y-50092500D03*
D10*
X295830000Y-50092500D03*
D12*
X296250000Y-50092500D03*
D14*
X295750000Y-46292500D03*
D16*
X293290000Y-45012500D03*
D15*
X293269771Y-45302484D03*
D14*
X290750000Y-44192500D03*
D16*
X288250000Y-46092500D03*
D17*
X287594995Y-46822496D03*
G04 #@! TD*
D22*
G04 #@! TO.C,REF\u002A\u002A*
X216245150Y-52720000D03*
X216245150Y-51450000D03*
X216245150Y-47640000D03*
X216245150Y-50180000D03*
X216245150Y-48910000D03*
G04 #@! TD*
D13*
G04 #@! TO.C,K13*
X189439054Y-131478751D03*
D10*
X192507898Y-128607898D03*
D12*
X199989087Y-136089087D03*
D10*
X199692102Y-135792102D03*
D11*
X196100000Y-132200000D03*
D12*
X192210913Y-128310913D03*
D14*
X202322540Y-133048528D03*
D16*
X201488154Y-130403949D03*
D38*
X201268800Y-130594694D03*
D39*
X196181317Y-127656833D03*
D14*
X200271930Y-128028070D03*
D16*
X197160660Y-127603806D03*
G04 #@! TD*
D10*
G04 #@! TO.C,K10*
X124703235Y-40572271D03*
D12*
X114123235Y-40572271D03*
D11*
X119623235Y-40572271D03*
D13*
X114403235Y-44772271D03*
D12*
X125123235Y-40572271D03*
D10*
X114543235Y-40572271D03*
D15*
X122143006Y-35782255D03*
D14*
X124623235Y-36772271D03*
D16*
X122163235Y-35492271D03*
D14*
X119623235Y-34672271D03*
D16*
X117123235Y-36572271D03*
D17*
X116468230Y-37302267D03*
G04 #@! TD*
D10*
G04 #@! TO.C,K30*
X304720000Y-59617500D03*
D13*
X304580000Y-63817500D03*
D11*
X309800000Y-59617500D03*
D10*
X314880000Y-59617500D03*
D12*
X315300000Y-59617500D03*
X304300000Y-59617500D03*
D16*
X312340000Y-54537500D03*
D14*
X314800000Y-55817500D03*
D15*
X312319771Y-54827484D03*
D16*
X307300000Y-55617500D03*
D14*
X309800000Y-53717500D03*
D17*
X306644995Y-56347496D03*
G04 #@! TD*
D10*
G04 #@! TO.C,K31*
X304720000Y-78667500D03*
D12*
X304300000Y-78667500D03*
D11*
X309800000Y-78667500D03*
D13*
X304580000Y-82867500D03*
D12*
X315300000Y-78667500D03*
D10*
X314880000Y-78667500D03*
D16*
X312340000Y-73587500D03*
D15*
X312319771Y-73877484D03*
D14*
X314800000Y-74867500D03*
X309800000Y-72767500D03*
D16*
X307300000Y-74667500D03*
D17*
X306644995Y-75397496D03*
G04 #@! TD*
D10*
G04 #@! TO.C,K3*
X83730562Y-78813001D03*
D12*
X73253526Y-80285452D03*
X84146474Y-78754548D03*
D11*
X78700000Y-79520000D03*
D13*
X74115328Y-84405609D03*
D10*
X73669438Y-80226999D03*
D23*
X80528607Y-74425916D03*
D16*
X80508282Y-74135939D03*
D14*
X83122483Y-75061116D03*
D16*
X75667637Y-75906860D03*
D14*
X77878879Y-73677418D03*
D24*
X75120603Y-76720911D03*
G04 #@! TD*
D13*
G04 #@! TO.C,K28*
X269835918Y-117541471D03*
D11*
X274670000Y-112902500D03*
D10*
X269609331Y-113345251D03*
X279730669Y-112459749D03*
D12*
X280149071Y-112423143D03*
X269190929Y-113381857D03*
D14*
X279319782Y-108681181D03*
D40*
X276762706Y-107911100D03*
D16*
X276757583Y-107620455D03*
X271830890Y-109135611D03*
D14*
X274155781Y-107024951D03*
D41*
X271242002Y-109919916D03*
G04 #@! TD*
D20*
G04 #@! TO.C,REF\u002A\u002A*
X174300000Y-100600000D03*
D31*
X176700000Y-100600000D03*
D20*
X176700000Y-98200000D03*
X178397056Y-102297056D03*
X175002944Y-98902944D03*
X176700000Y-103000000D03*
X179100000Y-100600000D03*
X178397056Y-98902944D03*
X175002944Y-102297056D03*
G04 #@! TD*
D13*
G04 #@! TO.C,K20*
X232588751Y-138843446D03*
D12*
X229420913Y-136071587D03*
D10*
X229717898Y-135774602D03*
D11*
X233310000Y-132182500D03*
D12*
X237199087Y-128293413D03*
D10*
X236902102Y-128590398D03*
D42*
X231704694Y-127013700D03*
D16*
X231513949Y-126794346D03*
D14*
X234158528Y-125959960D03*
X229138070Y-128010570D03*
D43*
X228766833Y-132101183D03*
D16*
X228713806Y-131121840D03*
G04 #@! TD*
D36*
G04 #@! TO.C,M1*
X176225000Y-45254907D03*
X176225000Y-47794907D03*
X176225000Y-50334907D03*
X176225000Y-52874907D03*
X176225000Y-55414907D03*
X176225000Y-57954907D03*
X176225000Y-60494907D03*
X192415000Y-60494907D03*
X192415000Y-57954907D03*
X192415000Y-55414907D03*
X192415000Y-52874907D03*
X192415000Y-50334907D03*
X192415000Y-47794907D03*
X192415000Y-45254907D03*
D37*
X183050000Y-44302907D03*
X185590000Y-44302907D03*
X183050000Y-46842907D03*
X185590000Y-46842907D03*
G04 #@! TD*
D25*
G04 #@! TO.C,SW2*
X301112500Y-112002500D03*
X289712500Y-112002500D03*
D26*
X293012500Y-119502500D03*
D14*
X298012500Y-119502500D03*
X295512500Y-119502500D03*
X298012500Y-105002500D03*
X293012500Y-105002500D03*
G04 #@! TD*
D10*
G04 #@! TO.C,K34*
X323770000Y-64380000D03*
D11*
X328850000Y-64380000D03*
D12*
X323350000Y-64380000D03*
D13*
X323630000Y-68580000D03*
D10*
X333930000Y-64380000D03*
D12*
X334350000Y-64380000D03*
D15*
X331369771Y-59589984D03*
D14*
X333850000Y-60580000D03*
D16*
X331390000Y-59300000D03*
D14*
X328850000Y-58480000D03*
D17*
X325694995Y-61109996D03*
D16*
X326350000Y-60380000D03*
G04 #@! TD*
D12*
G04 #@! TO.C,K38*
X353475896Y-99120982D03*
D10*
X353059984Y-99062529D03*
X342998860Y-97648531D03*
D12*
X342582948Y-97590078D03*
D13*
X342275696Y-101788172D03*
D11*
X348029422Y-98355530D03*
D34*
X351191312Y-93962814D03*
D14*
X353509620Y-95288377D03*
D16*
X351251702Y-93678468D03*
D14*
X348850543Y-92512948D03*
D35*
X345360218Y-94678258D03*
D16*
X346110444Y-94046525D03*
G04 #@! TD*
D12*
G04 #@! TO.C,K29*
X304300000Y-40567500D03*
D13*
X304580000Y-44767500D03*
D10*
X314880000Y-40567500D03*
X304720000Y-40567500D03*
D11*
X309800000Y-40567500D03*
D12*
X315300000Y-40567500D03*
D15*
X312319771Y-35777484D03*
D14*
X314800000Y-36767500D03*
D16*
X312340000Y-35487500D03*
X307300000Y-36567500D03*
D14*
X309800000Y-34667500D03*
D17*
X306644995Y-37297496D03*
G04 #@! TD*
D20*
G04 #@! TO.C,REF\u002A\u002A*
X179130000Y-68590000D03*
X175032944Y-66892944D03*
X178427056Y-66892944D03*
X178427056Y-70287056D03*
X176730000Y-66190000D03*
X175032944Y-70287056D03*
X176730000Y-70990000D03*
D31*
X176730000Y-68590000D03*
D20*
X174330000Y-68590000D03*
G04 #@! TD*
D12*
G04 #@! TO.C,K33*
X323350000Y-45330000D03*
X334350000Y-45330000D03*
D11*
X328850000Y-45330000D03*
D10*
X323770000Y-45330000D03*
X333930000Y-45330000D03*
D13*
X323630000Y-49530000D03*
D14*
X333850000Y-41530000D03*
D16*
X331390000Y-40250000D03*
D15*
X331369771Y-40539984D03*
D14*
X328850000Y-39430000D03*
D16*
X326350000Y-41330000D03*
D17*
X325694995Y-42059996D03*
G04 #@! TD*
D12*
G04 #@! TO.C,K4*
X86806474Y-97604548D03*
D13*
X76775328Y-103255609D03*
D10*
X76329438Y-99076999D03*
D11*
X81360000Y-98370000D03*
D10*
X86390562Y-97663001D03*
D12*
X75913526Y-99135452D03*
D14*
X85782483Y-93911116D03*
D16*
X83168282Y-92985939D03*
D23*
X83188607Y-93275916D03*
D14*
X80538879Y-92527418D03*
D24*
X77780603Y-95570911D03*
D16*
X78327637Y-94756860D03*
G04 #@! TD*
D20*
G04 #@! TO.C,REF\u002A\u002A*
X218952944Y-47817056D03*
X222347056Y-47817056D03*
X223050000Y-46120000D03*
X220650000Y-48520000D03*
X218250000Y-46120000D03*
D31*
X220650000Y-46120000D03*
D20*
X220650000Y-43720000D03*
X218952944Y-44422944D03*
X222347056Y-44422944D03*
G04 #@! TD*
D22*
G04 #@! TO.C,REF\u002A\u002A*
X213156000Y-120120000D03*
X213156000Y-118850000D03*
X213156000Y-121390000D03*
X213156000Y-122660000D03*
X213156000Y-123930000D03*
G04 #@! TD*
D10*
G04 #@! TO.C,K19*
X162803235Y-88180000D03*
X152643235Y-88180000D03*
D12*
X152223235Y-88180000D03*
D11*
X157723235Y-88180000D03*
D12*
X163223235Y-88180000D03*
D13*
X152503235Y-92380000D03*
D14*
X162723235Y-84380000D03*
D15*
X160243006Y-83389984D03*
D16*
X160263235Y-83100000D03*
D17*
X154568230Y-84909996D03*
D16*
X155223235Y-84180000D03*
D14*
X157723235Y-82280000D03*
G04 #@! TD*
D22*
G04 #@! TO.C,REF\u002A\u002A*
X213154850Y-50180000D03*
X213154850Y-52720000D03*
X213154850Y-51450000D03*
X213154850Y-48910000D03*
X213154850Y-47640000D03*
G04 #@! TD*
D13*
G04 #@! TO.C,K26*
X285530000Y-73342500D03*
D12*
X296250000Y-69142500D03*
D10*
X285670000Y-69142500D03*
D11*
X290750000Y-69142500D03*
D10*
X295830000Y-69142500D03*
D12*
X285250000Y-69142500D03*
D14*
X295750000Y-65342500D03*
D16*
X293290000Y-64062500D03*
D15*
X293269771Y-64352484D03*
D16*
X288250000Y-65142500D03*
D14*
X290750000Y-63242500D03*
D17*
X287594995Y-65872496D03*
G04 #@! TD*
D12*
G04 #@! TO.C,K9*
X182064693Y-121234400D03*
D10*
X172475956Y-116763099D03*
D11*
X177080000Y-118910000D03*
D10*
X181684044Y-121056901D03*
D13*
X170574077Y-120510425D03*
D12*
X172095307Y-116585600D03*
D16*
X181528923Y-115379407D03*
D44*
X181388037Y-115633673D03*
D14*
X183217488Y-117579122D03*
X179573448Y-113562784D03*
D45*
X175602559Y-114613007D03*
D16*
X176504704Y-114228223D03*
G04 #@! TD*
D20*
G04 #@! TO.C,REF\u002A\u002A*
X208750000Y-66140000D03*
X207052944Y-66842944D03*
X208750000Y-70940000D03*
D31*
X208750000Y-68540000D03*
D20*
X210447056Y-66842944D03*
X210447056Y-70237056D03*
X207052944Y-70237056D03*
X206350000Y-68540000D03*
X211150000Y-68540000D03*
G04 #@! TD*
G04 #@! TO.C,REF\u002A\u002A*
X259260000Y-48520000D03*
X260957056Y-44422944D03*
D31*
X259260000Y-46120000D03*
D20*
X260957056Y-47817056D03*
X257562944Y-47817056D03*
X257562944Y-44422944D03*
X256860000Y-46120000D03*
X259260000Y-43720000D03*
X261660000Y-46120000D03*
G04 #@! TD*
D46*
G04 #@! TO.C,D11*
X103080000Y-69160000D03*
X103080000Y-67660000D03*
D47*
X97980000Y-67660000D03*
D46*
X97980000Y-69160000D03*
G04 #@! TD*
D48*
G04 #@! TO.C,D33*
X352180804Y-84827592D03*
X352389563Y-83342190D03*
D49*
X347339196Y-82632408D03*
D48*
X347130437Y-84117810D03*
G04 #@! TD*
D31*
G04 #@! TO.C,REF\u002A\u002A*
X220700000Y-68550000D03*
D20*
X222397056Y-66852944D03*
X219002944Y-66852944D03*
X223100000Y-68550000D03*
X218300000Y-68550000D03*
X220700000Y-66150000D03*
X219002944Y-70247056D03*
X220700000Y-70950000D03*
X222397056Y-70247056D03*
G04 #@! TD*
D46*
G04 #@! TO.C,D52*
X326300000Y-87442500D03*
X326300000Y-88942500D03*
D50*
X331400000Y-88942500D03*
D46*
X331400000Y-87442500D03*
G04 #@! TD*
D20*
G04 #@! TO.C,REF\u002A\u002A*
X251052944Y-102307056D03*
X251052944Y-98912944D03*
X250350000Y-100610000D03*
X254447056Y-102307056D03*
X255150000Y-100610000D03*
X252750000Y-98210000D03*
D31*
X252750000Y-100610000D03*
D20*
X254447056Y-98912944D03*
X252750000Y-103010000D03*
G04 #@! TD*
D46*
G04 #@! TO.C,D53*
X293300000Y-74655000D03*
X293300000Y-73155000D03*
D47*
X288200000Y-73155000D03*
D46*
X288200000Y-74655000D03*
G04 #@! TD*
D51*
G04 #@! TO.C,D39*
X272384337Y-116635101D03*
X272515070Y-118129393D03*
D52*
X277595663Y-117684899D03*
D51*
X277464930Y-116190607D03*
G04 #@! TD*
D53*
G04 #@! TO.C,D51*
X234336548Y-136592792D03*
X235397208Y-137653452D03*
D54*
X239003452Y-134047208D03*
D53*
X237942792Y-132986548D03*
G04 #@! TD*
D46*
G04 #@! TO.C,D16*
X122090000Y-45560000D03*
X122090000Y-44060000D03*
D47*
X116990000Y-44060000D03*
D46*
X116990000Y-45560000D03*
G04 #@! TD*
D55*
G04 #@! TO.C,D43*
X251291951Y-123337946D03*
X251925879Y-124697407D03*
D56*
X256548049Y-122542054D03*
D55*
X255914121Y-121182593D03*
G04 #@! TD*
D46*
G04 #@! TO.C,D4*
X155070000Y-53630000D03*
X155070000Y-55130000D03*
D50*
X160170000Y-55130000D03*
D46*
X160170000Y-53630000D03*
G04 #@! TD*
G04 #@! TO.C,D56*
X274250000Y-74655000D03*
X274250000Y-73155000D03*
D47*
X269150000Y-73155000D03*
D46*
X269150000Y-74655000D03*
G04 #@! TD*
G04 #@! TO.C,D24*
X103080000Y-50295000D03*
X103080000Y-48795000D03*
D47*
X97980000Y-48795000D03*
D46*
X97980000Y-50295000D03*
G04 #@! TD*
G04 #@! TO.C,D32*
X274250000Y-93705000D03*
X274250000Y-92205000D03*
D47*
X269150000Y-92205000D03*
D46*
X269150000Y-93705000D03*
G04 #@! TD*
G04 #@! TO.C,D22*
X97970000Y-86890000D03*
X97970000Y-88390000D03*
D50*
X103070000Y-88390000D03*
D46*
X103070000Y-86890000D03*
G04 #@! TD*
D57*
G04 #@! TO.C,D3*
X76810437Y-83367190D03*
X77019196Y-84852592D03*
D58*
X82069563Y-84142810D03*
D57*
X81860804Y-82657408D03*
G04 #@! TD*
D46*
G04 #@! TO.C,D23*
X141150000Y-73915000D03*
X141150000Y-72415000D03*
D47*
X136050000Y-72415000D03*
D46*
X136050000Y-73915000D03*
G04 #@! TD*
G04 #@! TO.C,D44*
X312350000Y-84180000D03*
X312350000Y-82680000D03*
D47*
X307250000Y-82680000D03*
D46*
X307250000Y-84180000D03*
G04 #@! TD*
D31*
G04 #@! TO.C,REF\u002A\u002A*
X259220000Y-100600000D03*
D20*
X259220000Y-103000000D03*
X259220000Y-98200000D03*
X257522944Y-102297056D03*
X260917056Y-102297056D03*
X257522944Y-98902944D03*
X256820000Y-100600000D03*
X260917056Y-98902944D03*
X261620000Y-100600000D03*
G04 #@! TD*
D46*
G04 #@! TO.C,D54*
X331400000Y-50842500D03*
X331400000Y-49342500D03*
D47*
X326300000Y-49342500D03*
D46*
X326300000Y-50842500D03*
G04 #@! TD*
G04 #@! TO.C,D1*
X136463235Y-117164771D03*
X136463235Y-115664771D03*
D47*
X131363235Y-115664771D03*
D46*
X131363235Y-117164771D03*
G04 #@! TD*
G04 #@! TO.C,D31*
X292962500Y-116017500D03*
X292962500Y-117517500D03*
D50*
X298062500Y-117517500D03*
D46*
X298062500Y-116017500D03*
G04 #@! TD*
G04 #@! TO.C,D14*
X116980000Y-82410000D03*
X116980000Y-83910000D03*
D50*
X122080000Y-83910000D03*
D46*
X122080000Y-82410000D03*
G04 #@! TD*
G04 #@! TO.C,D45*
X307250000Y-63630000D03*
X307250000Y-65130000D03*
D50*
X312350000Y-65130000D03*
D46*
X312350000Y-63630000D03*
G04 #@! TD*
G04 #@! TO.C,D2*
X160170000Y-93150000D03*
X160170000Y-91650000D03*
D47*
X155070000Y-91650000D03*
D46*
X155070000Y-93150000D03*
G04 #@! TD*
D48*
G04 #@! TO.C,D57*
X354750804Y-66000232D03*
X354959563Y-64514830D03*
D49*
X349909196Y-63805048D03*
D48*
X349700437Y-65290450D03*
G04 #@! TD*
D46*
G04 #@! TO.C,D40*
X293300000Y-93705000D03*
X293300000Y-92205000D03*
D47*
X288200000Y-92205000D03*
D46*
X288200000Y-93705000D03*
G04 #@! TD*
D20*
G04 #@! TO.C,REF\u002A\u002A*
X252720000Y-71000000D03*
X250320000Y-68600000D03*
D31*
X252720000Y-68600000D03*
D20*
X251022944Y-66902944D03*
X254417056Y-70297056D03*
X255120000Y-68600000D03*
X251022944Y-70297056D03*
X254417056Y-66902944D03*
X252720000Y-66200000D03*
G04 #@! TD*
D46*
G04 #@! TO.C,D41*
X326300000Y-68392500D03*
X326300000Y-69892500D03*
D50*
X331400000Y-69892500D03*
D46*
X331400000Y-68392500D03*
G04 #@! TD*
G04 #@! TO.C,D12*
X136150000Y-53645000D03*
X136150000Y-55145000D03*
D50*
X141250000Y-55145000D03*
D46*
X141250000Y-53645000D03*
G04 #@! TD*
D20*
G04 #@! TO.C,REF\u002A\u002A*
X220720000Y-103010000D03*
X218320000Y-100610000D03*
X219022944Y-102307056D03*
X223120000Y-100610000D03*
D31*
X220720000Y-100610000D03*
D20*
X220720000Y-98210000D03*
X222417056Y-102307056D03*
X222417056Y-98912944D03*
X219022944Y-98912944D03*
G04 #@! TD*
D46*
G04 #@! TO.C,D26*
X160170000Y-74335000D03*
X160170000Y-72835000D03*
D47*
X155070000Y-72835000D03*
D46*
X155070000Y-74335000D03*
G04 #@! TD*
G04 #@! TO.C,D15*
X122090000Y-64620000D03*
X122090000Y-63120000D03*
D47*
X116990000Y-63120000D03*
D46*
X116990000Y-64620000D03*
G04 #@! TD*
G04 #@! TO.C,D42*
X293300000Y-55605000D03*
X293300000Y-54105000D03*
D47*
X288200000Y-54105000D03*
D46*
X288200000Y-55605000D03*
G04 #@! TD*
D59*
G04 #@! TO.C,D13*
X177034121Y-124527407D03*
X177668049Y-123167946D03*
D60*
X173045879Y-121012593D03*
D59*
X172411951Y-122372054D03*
G04 #@! TD*
D57*
G04 #@! TO.C,D25*
X79180437Y-102092190D03*
X79389196Y-103577592D03*
D58*
X84439563Y-102867810D03*
D57*
X84230804Y-101382408D03*
G04 #@! TD*
D48*
G04 #@! TO.C,D55*
X349630804Y-103787592D03*
X349839563Y-102302190D03*
D49*
X344789196Y-101592408D03*
D48*
X344580437Y-103077810D03*
G04 #@! TD*
D61*
G04 #@! TO.C,D9*
X156694930Y-118153555D03*
X156825663Y-116659263D03*
D62*
X151745070Y-116214769D03*
D61*
X151614337Y-117709061D03*
G04 #@! TD*
D46*
G04 #@! TO.C,D46*
X312350000Y-46080000D03*
X312350000Y-44580000D03*
D47*
X307250000Y-44580000D03*
D46*
X307250000Y-46080000D03*
G04 #@! TD*
D63*
G04 #@! TO.C,D21*
X194222792Y-137725909D03*
X195283452Y-136665249D03*
D64*
X191677208Y-133059005D03*
D63*
X190616548Y-134119665D03*
G04 #@! TD*
D65*
G04 #@! TO.C,D27*
X79159563Y-65147810D03*
X78950804Y-63662408D03*
D66*
X73900437Y-64372190D03*
D65*
X74109196Y-65857592D03*
G04 #@! TD*
D46*
G04 #@! TO.C,D34*
X274250000Y-55605000D03*
X274250000Y-54105000D03*
D47*
X269150000Y-54105000D03*
D46*
X269150000Y-55605000D03*
G04 #@! TD*
G04 #@! TO.C,D10*
X136050000Y-92025000D03*
X136050000Y-93525000D03*
D50*
X141150000Y-93525000D03*
D46*
X141150000Y-92025000D03*
G04 #@! TD*
M02*
