G04 #@! TF.GenerationSoftware,KiCad,Pcbnew,(6.0.7)*
G04 #@! TF.CreationDate,2022-09-25T19:35:04+02:00*
G04 #@! TF.ProjectId,xiao_split,7869616f-5f73-4706-9c69-742e6b696361,rev?*
G04 #@! TF.SameCoordinates,Original*
G04 #@! TF.FileFunction,Paste,Top*
G04 #@! TF.FilePolarity,Positive*
%FSLAX46Y46*%
G04 Gerber Fmt 4.6, Leading zero omitted, Abs format (unit mm)*
G04 Created by KiCad (PCBNEW (6.0.7)) date 2022-09-25 19:35:04*
%MOMM*%
%LPD*%
G01*
G04 APERTURE LIST*
G04 Aperture macros list*
%AMRoundRect*
0 Rectangle with rounded corners*
0 $1 Rounding radius*
0 $2 $3 $4 $5 $6 $7 $8 $9 X,Y pos of 4 corners*
0 Add a 4 corners polygon primitive as box body*
4,1,4,$2,$3,$4,$5,$6,$7,$8,$9,$2,$3,0*
0 Add four circle primitives for the rounded corners*
1,1,$1+$1,$2,$3*
1,1,$1+$1,$4,$5*
1,1,$1+$1,$6,$7*
1,1,$1+$1,$8,$9*
0 Add four rect primitives between the rounded corners*
20,1,$1+$1,$2,$3,$4,$5,0*
20,1,$1+$1,$4,$5,$6,$7,0*
20,1,$1+$1,$6,$7,$8,$9,0*
20,1,$1+$1,$8,$9,$2,$3,0*%
%AMRotRect*
0 Rectangle, with rotation*
0 The origin of the aperture is its center*
0 $1 length*
0 $2 width*
0 $3 Rotation angle, in degrees counterclockwise*
0 Add horizontal line*
21,1,$1,$2,0,0,$3*%
G04 Aperture macros list end*
%ADD10RoundRect,0.250000X0.450000X-0.262500X0.450000X0.262500X-0.450000X0.262500X-0.450000X-0.262500X0*%
%ADD11RotRect,0.900000X0.800000X315.000000*%
%ADD12RoundRect,0.250000X0.262500X0.450000X-0.262500X0.450000X-0.262500X-0.450000X0.262500X-0.450000X0*%
%ADD13RoundRect,0.250000X-0.132583X0.503814X-0.503814X0.132583X0.132583X-0.503814X0.503814X-0.132583X0*%
%ADD14RotRect,0.900000X0.800000X135.000000*%
%ADD15R,0.800000X0.900000*%
%ADD16RoundRect,0.250000X-0.450000X0.262500X-0.450000X-0.262500X0.450000X-0.262500X0.450000X0.262500X0*%
%ADD17RotRect,0.900000X0.800000X225.000000*%
%ADD18R,0.900000X0.800000*%
%ADD19RotRect,0.900000X0.800000X45.000000*%
%ADD20RoundRect,0.250000X0.503814X0.132583X0.132583X0.503814X-0.503814X-0.132583X-0.132583X-0.503814X0*%
%ADD21RoundRect,0.100000X-0.637500X-0.100000X0.637500X-0.100000X0.637500X0.100000X-0.637500X0.100000X0*%
%ADD22R,2.300000X2.300000*%
%ADD23RoundRect,0.250000X-0.262500X-0.450000X0.262500X-0.450000X0.262500X0.450000X-0.262500X0.450000X0*%
G04 APERTURE END LIST*
D10*
G04 #@! TO.C,R8*
X183500000Y-81192500D03*
X183500000Y-79367500D03*
G04 #@! TD*
D11*
G04 #@! TO.C,D49*
X234414645Y-110573642D03*
X233071142Y-111917145D03*
X235157107Y-112659607D03*
G04 #@! TD*
D10*
G04 #@! TO.C,R16*
X227900000Y-81202500D03*
X227900000Y-79377500D03*
G04 #@! TD*
D12*
G04 #@! TO.C,R2*
X195482500Y-86080000D03*
X193657500Y-86080000D03*
G04 #@! TD*
D13*
G04 #@! TO.C,R7*
X191515235Y-65854765D03*
X190224765Y-67145235D03*
G04 #@! TD*
D14*
G04 #@! TO.C,D60*
X224335355Y-123511358D03*
X225678858Y-122167855D03*
X223592893Y-121425393D03*
G04 #@! TD*
D15*
G04 #@! TO.C,D5*
X118110000Y-101730000D03*
X120010000Y-101730000D03*
X119060000Y-99730000D03*
G04 #@! TD*
D10*
G04 #@! TO.C,R6*
X201570000Y-81352500D03*
X201570000Y-79527500D03*
G04 #@! TD*
D16*
G04 #@! TO.C,R15*
X245610000Y-79377500D03*
X245610000Y-81202500D03*
G04 #@! TD*
D10*
G04 #@! TO.C,R1*
X199490000Y-81352500D03*
X199490000Y-79527500D03*
G04 #@! TD*
D17*
G04 #@! TO.C,D29*
X198638858Y-114304645D03*
X197295355Y-112961142D03*
X196552893Y-115047107D03*
G04 #@! TD*
D10*
G04 #@! TO.C,R18*
X225900000Y-81202500D03*
X225900000Y-79377500D03*
G04 #@! TD*
D18*
G04 #@! TO.C,D6*
X168640000Y-75980000D03*
X168640000Y-77880000D03*
X170640000Y-76930000D03*
G04 #@! TD*
D11*
G04 #@! TO.C,D37*
X231884645Y-113121142D03*
X230541142Y-114464645D03*
X232627107Y-115207107D03*
G04 #@! TD*
D15*
G04 #@! TO.C,D17*
X121850000Y-101680000D03*
X123750000Y-101680000D03*
X122800000Y-99680000D03*
G04 #@! TD*
D19*
G04 #@! TO.C,D8*
X203711142Y-122185355D03*
X205054645Y-123528858D03*
X205797107Y-121442893D03*
G04 #@! TD*
D14*
G04 #@! TO.C,D50*
X226875355Y-120971358D03*
X228218858Y-119627855D03*
X226132893Y-118885393D03*
G04 #@! TD*
D15*
G04 #@! TO.C,D47*
X308240000Y-101702500D03*
X310140000Y-101702500D03*
X309190000Y-99702500D03*
G04 #@! TD*
D16*
G04 #@! TO.C,R10*
X185510000Y-79367500D03*
X185510000Y-81192500D03*
G04 #@! TD*
D18*
G04 #@! TO.C,D18*
X168640000Y-72370000D03*
X168640000Y-74270000D03*
X170640000Y-73320000D03*
G04 #@! TD*
D16*
G04 #@! TO.C,R20*
X229900000Y-79377500D03*
X229900000Y-81202500D03*
G04 #@! TD*
D17*
G04 #@! TO.C,D19*
X195888858Y-111604645D03*
X194545355Y-110261142D03*
X193802893Y-112347107D03*
G04 #@! TD*
D20*
G04 #@! TO.C,R9*
X195275235Y-67145235D03*
X193984765Y-65854765D03*
G04 #@! TD*
D18*
G04 #@! TO.C,D48*
X259800000Y-74242500D03*
X259800000Y-72342500D03*
X257800000Y-73292500D03*
G04 #@! TD*
D21*
G04 #@! TO.C,U1*
X189827500Y-79075000D03*
X189827500Y-79725000D03*
X189827500Y-80375000D03*
X189827500Y-81025000D03*
X189827500Y-81675000D03*
X189827500Y-82325000D03*
X189827500Y-82975000D03*
X189827500Y-83625000D03*
X195552500Y-83625000D03*
X195552500Y-82975000D03*
X195552500Y-82325000D03*
X195552500Y-81675000D03*
X195552500Y-81025000D03*
X195552500Y-80375000D03*
X195552500Y-79725000D03*
X195552500Y-79075000D03*
G04 #@! TD*
D22*
G04 #@! TO.C,LS1*
X94090000Y-98370000D03*
X107090000Y-98370000D03*
G04 #@! TD*
D10*
G04 #@! TO.C,R14*
X243580000Y-81202500D03*
X243580000Y-79377500D03*
G04 #@! TD*
D18*
G04 #@! TO.C,D58*
X259800000Y-77852500D03*
X259800000Y-75952500D03*
X257800000Y-76902500D03*
G04 #@! TD*
D20*
G04 #@! TO.C,R17*
X239135235Y-67145235D03*
X237844765Y-65854765D03*
G04 #@! TD*
D10*
G04 #@! TO.C,R3*
X181360000Y-81192500D03*
X181360000Y-79367500D03*
G04 #@! TD*
D19*
G04 #@! TO.C,D20*
X201091142Y-119565355D03*
X202434645Y-120908858D03*
X203177107Y-118822893D03*
G04 #@! TD*
G04 #@! TO.C,D30*
X198441142Y-116935355D03*
X199784645Y-118278858D03*
X200527107Y-116192893D03*
G04 #@! TD*
D12*
G04 #@! TO.C,R11*
X239812500Y-86090000D03*
X237987500Y-86090000D03*
G04 #@! TD*
D17*
G04 #@! TO.C,D7*
X193328858Y-109054645D03*
X191985355Y-107711142D03*
X191242893Y-109797107D03*
G04 #@! TD*
D23*
G04 #@! TO.C,R13*
X233440000Y-86090000D03*
X235265000Y-86090000D03*
G04 #@! TD*
D22*
G04 #@! TO.C,LS2*
X323670000Y-98370000D03*
X336670000Y-98370000D03*
G04 #@! TD*
D11*
G04 #@! TO.C,D59*
X236974645Y-108033642D03*
X235631142Y-109377145D03*
X237717107Y-110119607D03*
G04 #@! TD*
D10*
G04 #@! TO.C,R4*
X203600000Y-81352500D03*
X203600000Y-79527500D03*
G04 #@! TD*
D15*
G04 #@! TO.C,D35*
X304520000Y-101730000D03*
X306420000Y-101730000D03*
X305470000Y-99730000D03*
G04 #@! TD*
D21*
G04 #@! TO.C,U2*
X233847500Y-79085000D03*
X233847500Y-79735000D03*
X233847500Y-80385000D03*
X233847500Y-81035000D03*
X233847500Y-81685000D03*
X233847500Y-82335000D03*
X233847500Y-82985000D03*
X233847500Y-83635000D03*
X239572500Y-83635000D03*
X239572500Y-82985000D03*
X239572500Y-82335000D03*
X239572500Y-81685000D03*
X239572500Y-81035000D03*
X239572500Y-80385000D03*
X239572500Y-79735000D03*
X239572500Y-79085000D03*
G04 #@! TD*
D13*
G04 #@! TO.C,R19*
X235345235Y-65854765D03*
X234054765Y-67145235D03*
G04 #@! TD*
D14*
G04 #@! TO.C,D38*
X229385355Y-118431358D03*
X230728858Y-117087855D03*
X228642893Y-116345393D03*
G04 #@! TD*
D12*
G04 #@! TO.C,R5*
X191542500Y-86080000D03*
X189717500Y-86080000D03*
G04 #@! TD*
D18*
G04 #@! TO.C,D36*
X259800000Y-70600000D03*
X259800000Y-68700000D03*
X257800000Y-69650000D03*
G04 #@! TD*
G04 #@! TO.C,D28*
X168640000Y-68720000D03*
X168640000Y-70620000D03*
X170640000Y-69670000D03*
G04 #@! TD*
D10*
G04 #@! TO.C,R12*
X247680000Y-81192500D03*
X247680000Y-79367500D03*
G04 #@! TD*
M02*
