M48
; DRILL file {KiCad (6.0.7)} date Sun 25 Sep 2022 19:37:11 CEST
; FORMAT={-:-/ absolute / metric / decimal}
; #@! TF.CreationDate,2022-09-25T19:37:11+02:00
; #@! TF.GenerationSoftware,Kicad,Pcbnew,(6.0.7)
; #@! TF.FileFunction,NonPlated,1,2,NPTH
FMAT,2
METRIC
; #@! TA.AperFunction,NonPlated,NPTH,ComponentDrill
T1C0.787
; #@! TA.AperFunction,NonPlated,NPTH,ComponentDrill
T2C0.800
; #@! TA.AperFunction,NonPlated,NPTH,ComponentDrill
T3C1.200
; #@! TA.AperFunction,NonPlated,NPTH,ComponentDrill
T4C1.500
; #@! TA.AperFunction,NonPlated,NPTH,ComponentDrill
T5C1.700
; #@! TA.AperFunction,NonPlated,NPTH,ComponentDrill
T6C1.750
; #@! TA.AperFunction,NonPlated,NPTH,ComponentDrill
T7C3.988
%
G90
G05
T1
X213.155Y-47.64
X213.155Y-48.91
X213.155Y-50.18
X213.155Y-51.45
X213.155Y-52.72
X213.156Y-118.85
X213.156Y-120.12
X213.156Y-121.39
X213.156Y-122.66
X213.156Y-123.93
X216.235Y-118.85
X216.235Y-120.12
X216.235Y-121.39
X216.235Y-122.66
X216.235Y-123.93
X216.245Y-47.64
X216.245Y-48.91
X216.245Y-50.18
X216.245Y-51.45
X216.245Y-52.72
T2
X199.42Y-45.898
X199.42Y-52.898
X230.22Y-45.898
X230.22Y-52.898
T3
X71.465Y-65.546
X74.115Y-84.406
X76.775Y-103.256
X95.33Y-87.635
X95.353Y-49.535
X95.353Y-68.585
X114.403Y-44.772
X114.403Y-63.822
X114.403Y-82.872
X128.691Y-116.21
X133.45Y-92.397
X133.453Y-54.297
X133.453Y-73.347
X149.154Y-116.659
X152.503Y-54.297
X152.503Y-73.347
X152.503Y-92.38
X170.574Y-120.51
X189.439Y-131.479
X232.589Y-138.843
X249.361Y-124.917
X266.48Y-73.343
X266.48Y-92.392
X266.49Y-54.3
X269.836Y-117.541
X285.53Y-54.292
X285.53Y-73.343
X285.53Y-92.392
X290.292Y-116.205
X304.58Y-44.767
X304.58Y-63.817
X304.58Y-82.867
X323.63Y-49.53
X323.63Y-68.58
X323.63Y-87.63
X342.276Y-101.788
X344.945Y-82.972
X347.616Y-64.105
T5
X70.604Y-61.425
X73.254Y-80.285
X75.914Y-99.135
X81.496Y-59.895
X84.146Y-78.755
X86.806Y-97.605
X95.05Y-83.435
X95.073Y-45.335
X95.073Y-64.385
X106.05Y-83.435
X106.073Y-45.335
X106.073Y-64.385
X114.123Y-40.572
X114.123Y-59.622
X114.123Y-78.672
X125.123Y-40.572
X125.123Y-59.622
X125.123Y-78.672
X128.411Y-112.01
X133.17Y-88.197
X133.173Y-50.097
X133.173Y-69.147
X139.411Y-112.01
X144.17Y-88.197
X144.173Y-50.097
X144.173Y-69.147
X149.241Y-112.451
X152.223Y-50.097
X152.223Y-69.147
X152.223Y-88.18
X160.199Y-113.409
X163.223Y-50.097
X163.223Y-69.147
X163.223Y-88.18
X172.095Y-116.586
X182.065Y-121.234
X192.211Y-128.311
X199.989Y-136.089
X229.421Y-136.072
X237.199Y-128.293
X247.332Y-121.229
X257.301Y-116.58
X266.2Y-69.142
X266.2Y-88.192
X266.21Y-50.1
X269.191Y-113.382
X277.2Y-69.142
X277.2Y-88.192
X277.21Y-50.1
X280.149Y-112.423
X285.25Y-50.093
X285.25Y-69.142
X285.25Y-88.192
X290.012Y-112.005
X296.25Y-50.093
X296.25Y-69.142
X296.25Y-88.192
X301.012Y-112.005
X304.3Y-40.567
X304.3Y-59.617
X304.3Y-78.667
X315.3Y-40.567
X315.3Y-59.617
X315.3Y-78.667
X323.35Y-45.33
X323.35Y-64.38
X323.35Y-83.43
X334.35Y-45.33
X334.35Y-64.38
X334.35Y-83.43
X342.583Y-97.59
X345.253Y-78.774
X347.924Y-59.907
X353.476Y-99.121
X356.145Y-80.304
X358.816Y-61.438
T6
X71.019Y-61.367
X73.669Y-80.227
X76.329Y-99.077
X81.081Y-59.953
X83.731Y-78.813
X86.391Y-97.663
X95.47Y-83.435
X95.493Y-45.335
X95.493Y-64.385
X105.63Y-83.435
X105.653Y-45.335
X105.653Y-64.385
X114.543Y-40.572
X114.543Y-59.622
X114.543Y-78.672
X124.703Y-40.572
X124.703Y-59.622
X124.703Y-78.672
X128.831Y-112.01
X133.59Y-88.197
X133.593Y-50.097
X133.593Y-69.147
X138.991Y-112.01
X143.75Y-88.197
X143.753Y-50.097
X143.753Y-69.147
X149.659Y-112.487
X152.643Y-50.097
X152.643Y-69.147
X152.643Y-88.18
X159.781Y-113.373
X162.803Y-50.097
X162.803Y-69.147
X162.803Y-88.18
X172.476Y-116.763
X181.684Y-121.057
X192.508Y-128.608
X199.692Y-135.792
X229.718Y-135.775
X236.902Y-128.59
X247.712Y-121.051
X256.921Y-116.757
X266.62Y-69.142
X266.62Y-88.192
X266.63Y-50.1
X269.609Y-113.345
X276.78Y-69.142
X276.78Y-88.192
X276.79Y-50.1
X279.731Y-112.46
X285.67Y-50.093
X285.67Y-69.142
X285.67Y-88.192
X290.433Y-112.005
X295.83Y-50.093
X295.83Y-69.142
X295.83Y-88.192
X300.592Y-112.005
X304.72Y-40.567
X304.72Y-59.617
X304.72Y-78.667
X314.88Y-40.567
X314.88Y-59.617
X314.88Y-78.667
X323.77Y-45.33
X323.77Y-64.38
X323.77Y-83.43
X333.93Y-45.33
X333.93Y-64.38
X333.93Y-83.43
X342.999Y-97.649
X345.668Y-78.832
X348.339Y-59.966
X353.06Y-99.063
X355.73Y-80.246
X358.401Y-61.38
T7
X76.05Y-60.66
X78.7Y-79.52
X81.36Y-98.37
X100.55Y-83.435
X100.573Y-45.335
X100.573Y-64.385
X119.623Y-40.572
X119.623Y-59.622
X119.623Y-78.672
X133.911Y-112.01
X138.67Y-88.197
X138.673Y-50.097
X138.673Y-69.147
X154.72Y-112.93
X157.723Y-50.097
X157.723Y-69.147
X157.723Y-88.18
X177.08Y-118.91
X196.1Y-132.2
X233.31Y-132.183
X252.316Y-118.904
X271.7Y-69.142
X271.7Y-88.192
X271.71Y-50.1
X274.67Y-112.902
X290.75Y-50.093
X290.75Y-69.142
X290.75Y-88.192
X295.512Y-112.005
X309.8Y-40.567
X309.8Y-59.617
X309.8Y-78.667
X328.85Y-45.33
X328.85Y-64.38
X328.85Y-83.43
X348.029Y-98.356
X350.699Y-79.539
X353.37Y-60.673
T4
G00X128.311Y-112.66
M15
G01X128.311Y-111.36
M16
G05
G00X139.511Y-112.66
M15
G01X139.511Y-111.36
M16
G05
G00X289.912Y-112.652
M15
G01X289.912Y-111.352
M16
G05
G00X301.113Y-112.652
M15
G01X301.113Y-111.352
M16
G05
T0
M30
