M48
; DRILL file {KiCad (6.0.7)} date Sun 25 Sep 2022 19:37:11 CEST
; FORMAT={-:-/ absolute / metric / decimal}
; #@! TF.CreationDate,2022-09-25T19:37:11+02:00
; #@! TF.GenerationSoftware,Kicad,Pcbnew,(6.0.7)
; #@! TF.FileFunction,Plated,1,2,PTH
FMAT,2
METRIC
; #@! TA.AperFunction,Plated,PTH,ViaDrill
T1C0.400
; #@! TA.AperFunction,Plated,PTH,ComponentDrill
T2C0.500
; #@! TA.AperFunction,Plated,PTH,ComponentDrill
T3C0.800
; #@! TA.AperFunction,Plated,PTH,ComponentDrill
T4C0.900
; #@! TA.AperFunction,Plated,PTH,ComponentDrill
T5C1.000
; #@! TA.AperFunction,Plated,PTH,ComponentDrill
T6C1.200
; #@! TA.AperFunction,Plated,PTH,ComponentDrill
T7C1.470
; #@! TA.AperFunction,Plated,PTH,ComponentDrill
T8C1.500
; #@! TA.AperFunction,Plated,PTH,ComponentDrill
T9C3.200
%
G90
G05
T1
X71.27Y-63.88
X73.37Y-55.09
X73.61Y-67.19
X75.72Y-56.79
X77.46Y-104.92
X79.174Y-69.276
X79.2Y-68.03
X81.04Y-70.08
X82.53Y-80.48
X85.06Y-68.46
X85.51Y-90.69
X85.7Y-95.89
X85.93Y-69.27
X86.814Y-72.116
X92.4Y-55.28
X93.18Y-52.65
X93.99Y-87.64
X94.09Y-66.16
X96.49Y-67.95
X97.1Y-70.64
X97.14Y-45.17
X97.35Y-100.01
X97.39Y-48.8
X97.57Y-50.33
X98.83Y-39.59
X100.45Y-41.52
X103.33Y-48.75
X103.4Y-69.18
X104.71Y-87.63
X105.39Y-48.49
X105.62Y-58.59
X105.63Y-77.64
X105.66Y-81.57
X105.69Y-39.48
X107.72Y-79.93
X108.15Y-49.27
X109.442Y-49.002
X110.89Y-48.58
X113.397Y-62.847
X115.83Y-69.98
X116.69Y-84.18
X116.98Y-43.99
X117.16Y-34.48
X117.16Y-61.35
X117.41Y-66.93
X117.48Y-65.67
X122.75Y-84.0
X124.48Y-45.64
X124.61Y-69.23
X125.65Y-68.5
X127.59Y-72.79
X127.7Y-68.5
X127.87Y-75.23
X128.02Y-109.3
X128.6Y-84.75
X129.4Y-84.02
X129.62Y-75.78
X131.97Y-72.36
X132.23Y-55.88
X133.89Y-104.19
X133.93Y-74.82
X134.65Y-53.25
X136.22Y-44.07
X136.98Y-115.31
X138.99Y-105.99
X143.07Y-55.19
X143.64Y-82.17
X143.78Y-44.17
X143.78Y-63.29
X144.89Y-53.49
X153.81Y-105.68
X155.0Y-51.59
X155.07Y-93.15
X156.39Y-95.39
X158.41Y-97.94
X159.262Y-60.858
X159.34Y-97.5
X160.335Y-60.905
X160.78Y-74.35
X161.387Y-60.933
X162.2Y-55.13
X162.395Y-60.915
X162.67Y-86.31
X162.84Y-44.21
X163.6Y-55.1
X165.485Y-75.865
X168.56Y-67.3
X169.17Y-119.56
X172.19Y-54.24
X173.215Y-71.955
X173.54Y-51.98
X173.62Y-81.4
X174.39Y-73.72
X174.48Y-84.5
X176.19Y-76.55
X177.83Y-112.33
X180.03Y-88.11
X181.55Y-112.02
X182.24Y-79.55
X182.45Y-89.37
X184.264Y-81.956
X187.18Y-45.55
X187.28Y-127.71
X188.28Y-86.43
X188.92Y-133.58
X189.79Y-49.37
X190.32Y-133.82
X190.82Y-69.16
X192.54Y-86.08
X192.685Y-65.855
X192.7Y-64.54
X192.78Y-67.97
X193.32Y-80.32
X194.37Y-56.68
X195.72Y-137.16
X198.812Y-79.528
X227.354Y-82.656
X228.744Y-82.046
X230.73Y-51.41
X233.67Y-62.61
X235.96Y-63.93
X236.625Y-65.855
X236.91Y-79.28
X237.245Y-70.345
X237.325Y-84.655
X237.635Y-78.02
X238.12Y-70.89
X239.02Y-78.285
X239.05Y-67.16
X239.22Y-49.0
X239.294Y-56.697
X239.3Y-59.24
X239.305Y-53.871
X241.72Y-79.1
X242.29Y-45.58
X250.34Y-59.02
X250.392Y-47.816
X252.956Y-84.74
X255.19Y-82.48
X255.34Y-115.29
X255.47Y-48.83
X255.66Y-43.91
X257.8Y-70.88
X258.08Y-79.71
X259.025Y-80.195
X259.335Y-50.155
X260.39Y-79.72
X261.08Y-75.78
X264.21Y-68.12
X265.3Y-91.1
X265.681Y-64.431
X266.1Y-66.7
X266.8Y-64.16
X267.725Y-53.505
X267.78Y-76.88
X268.82Y-70.51
X269.41Y-57.24
X270.04Y-76.44
X271.367Y-80.201
X275.895Y-73.905
X276.73Y-105.65
X276.75Y-48.31
X278.32Y-118.86
X279.4Y-110.66
X286.48Y-75.4
X286.8Y-57.81
X288.54Y-77.72
X293.897Y-72.557
X295.63Y-63.66
X295.82Y-48.27
X299.07Y-102.797
X300.12Y-106.29
X300.268Y-97.148
X306.63Y-34.58
X306.813Y-47.897
X307.23Y-69.72
X308.5Y-85.86
X309.17Y-36.34
X311.73Y-81.4
X313.07Y-101.65
X314.8Y-57.75
X314.81Y-38.74
X315.79Y-35.23
X320.93Y-88.51
X321.372Y-89.512
X322.478Y-93.237
X322.529Y-92.239
X322.565Y-84.915
X324.56Y-88.53
X325.51Y-82.88
X325.57Y-87.48
X325.86Y-46.45
X329.02Y-42.27
X331.35Y-53.9
X332.07Y-69.93
X332.29Y-49.34
X333.79Y-62.52
X333.85Y-43.51
X333.86Y-77.71
X334.0Y-81.57
X334.62Y-39.89
X336.482Y-62.188
X336.76Y-98.37
X336.819Y-59.401
X341.22Y-70.206
X345.71Y-65.94
X345.92Y-85.05
X346.53Y-58.08
X349.63Y-72.57
X354.5Y-77.66
X354.54Y-81.93
X356.8Y-72.93
T2
X167.77Y-46.1
X167.83Y-100.59
X168.473Y-44.403
X168.473Y-47.797
X168.533Y-98.893
X168.533Y-102.287
X170.17Y-43.7
X170.17Y-48.5
X170.23Y-98.19
X170.23Y-102.99
X171.867Y-44.403
X171.867Y-47.797
X171.927Y-98.893
X171.927Y-102.287
X172.57Y-46.1
X172.63Y-100.59
X174.3Y-100.6
X174.33Y-68.59
X175.003Y-98.903
X175.003Y-102.297
X175.033Y-66.893
X175.033Y-70.287
X176.7Y-98.2
X176.7Y-103.0
X176.73Y-66.19
X176.73Y-70.99
X178.397Y-98.903
X178.397Y-102.297
X178.427Y-66.893
X178.427Y-70.287
X179.1Y-100.6
X179.13Y-68.59
X206.3Y-46.12
X206.33Y-100.6
X206.35Y-68.54
X207.003Y-44.423
X207.003Y-47.817
X207.033Y-98.903
X207.033Y-102.297
X207.053Y-66.843
X207.053Y-70.237
X208.7Y-43.72
X208.7Y-48.52
X208.73Y-98.2
X208.73Y-103.0
X208.75Y-66.14
X208.75Y-70.94
X210.397Y-44.423
X210.397Y-47.817
X210.427Y-98.903
X210.427Y-102.297
X210.447Y-66.843
X210.447Y-70.237
X211.1Y-46.12
X211.13Y-100.6
X211.15Y-68.54
X218.25Y-46.12
X218.3Y-68.55
X218.32Y-100.61
X218.953Y-44.423
X218.953Y-47.817
X219.003Y-66.853
X219.003Y-70.247
X219.023Y-98.913
X219.023Y-102.307
X220.65Y-43.72
X220.65Y-48.52
X220.7Y-66.15
X220.7Y-70.95
X220.72Y-98.21
X220.72Y-103.01
X222.347Y-44.423
X222.347Y-47.817
X222.397Y-66.853
X222.397Y-70.247
X222.417Y-98.913
X222.417Y-102.307
X223.05Y-46.12
X223.1Y-68.55
X223.12Y-100.61
X250.32Y-68.6
X250.35Y-100.61
X251.023Y-66.903
X251.023Y-70.297
X251.053Y-98.913
X251.053Y-102.307
X252.72Y-66.2
X252.72Y-71.0
X252.75Y-98.21
X252.75Y-103.01
X254.417Y-66.903
X254.417Y-70.297
X254.447Y-98.913
X254.447Y-102.307
X255.12Y-68.6
X255.15Y-100.61
X256.82Y-100.6
X256.86Y-46.12
X257.523Y-98.903
X257.523Y-102.297
X257.563Y-44.423
X257.563Y-47.817
X259.22Y-98.2
X259.22Y-103.0
X259.26Y-43.72
X259.26Y-48.52
X260.917Y-98.903
X260.917Y-102.297
X260.957Y-44.423
X260.957Y-47.817
X261.62Y-100.6
X261.66Y-46.12
T3
X207.13Y-77.4
X207.13Y-79.4
X207.13Y-81.4
X207.13Y-83.4
X222.24Y-77.4
X222.24Y-79.4
X222.24Y-81.4
X222.24Y-83.4
T5
X131.411Y-105.01
X131.411Y-119.51
X133.911Y-119.51
X136.411Y-105.01
X136.411Y-119.51
X176.7Y-45.255
X176.7Y-47.795
X176.7Y-50.335
X176.7Y-52.875
X176.7Y-55.415
X176.7Y-57.955
X176.7Y-60.495
X191.94Y-45.255
X191.94Y-47.795
X191.94Y-50.335
X191.94Y-52.875
X191.94Y-55.415
X191.94Y-57.955
X191.94Y-60.495
X210.91Y-50.98
X210.91Y-53.52
X210.91Y-56.06
X210.91Y-58.6
X210.91Y-61.14
X210.91Y-63.68
X218.53Y-50.98
X218.53Y-53.52
X218.53Y-56.06
X218.53Y-58.6
X218.53Y-61.14
X218.53Y-63.68
X237.45Y-45.24
X237.45Y-47.78
X237.45Y-50.32
X237.45Y-52.86
X237.45Y-55.4
X237.45Y-57.94
X237.45Y-60.48
X252.69Y-45.24
X252.69Y-47.78
X252.69Y-50.32
X252.69Y-52.86
X252.69Y-55.4
X252.69Y-57.94
X252.69Y-60.48
X293.012Y-105.002
X293.012Y-119.502
X295.512Y-119.502
X298.012Y-105.002
X298.012Y-119.502
T6
X75.229Y-54.817
X77.879Y-73.677
X80.472Y-56.201
X80.539Y-92.527
X83.122Y-75.061
X85.782Y-93.911
X100.55Y-77.535
X100.573Y-39.435
X100.573Y-58.485
X105.55Y-79.635
X105.573Y-41.535
X105.573Y-60.585
X119.623Y-34.672
X119.623Y-53.722
X119.623Y-72.772
X124.623Y-36.772
X124.623Y-55.822
X124.623Y-74.872
X133.911Y-106.11
X138.67Y-82.297
X138.673Y-44.197
X138.673Y-63.247
X138.911Y-108.21
X143.67Y-84.397
X143.673Y-46.297
X143.673Y-65.347
X155.234Y-107.052
X157.723Y-44.197
X157.723Y-63.247
X157.723Y-82.28
X160.032Y-109.58
X162.723Y-46.297
X162.723Y-65.347
X162.723Y-84.38
X179.573Y-113.563
X183.217Y-117.579
X200.272Y-128.028
X202.323Y-133.049
X229.138Y-128.011
X234.159Y-125.96
X249.823Y-113.557
X255.242Y-113.347
X271.7Y-63.242
X271.7Y-82.292
X271.71Y-44.2
X274.156Y-107.025
X276.7Y-65.343
X276.7Y-84.392
X276.71Y-46.3
X279.32Y-108.681
X290.75Y-44.192
X290.75Y-63.242
X290.75Y-82.292
X295.512Y-106.105
X295.75Y-46.292
X295.75Y-65.343
X295.75Y-84.392
X300.512Y-108.205
X309.8Y-34.667
X309.8Y-53.717
X309.8Y-72.767
X314.8Y-36.767
X314.8Y-55.817
X314.8Y-74.867
X328.85Y-39.43
X328.85Y-58.48
X328.85Y-77.53
X333.85Y-41.53
X333.85Y-60.58
X333.85Y-79.63
X348.851Y-92.513
X351.52Y-73.696
X353.51Y-95.288
X354.191Y-54.83
X356.179Y-76.472
X358.85Y-57.605
T7
X71.924Y-58.675
X73.018Y-57.047
X74.574Y-77.535
X75.668Y-75.907
X77.234Y-96.385
X77.858Y-55.276
X77.899Y-55.856
X78.328Y-94.757
X80.508Y-74.136
X80.549Y-74.716
X83.168Y-92.986
X83.209Y-93.566
X96.74Y-80.895
X96.763Y-42.795
X96.763Y-61.845
X98.05Y-79.435
X98.073Y-41.335
X98.073Y-60.385
X103.05Y-78.935
X103.073Y-40.835
X103.073Y-59.885
X103.09Y-78.355
X103.113Y-40.255
X103.113Y-59.305
X115.813Y-38.032
X115.813Y-57.082
X115.813Y-76.132
X117.123Y-36.572
X117.123Y-55.622
X117.123Y-74.672
X122.123Y-36.072
X122.123Y-55.122
X122.123Y-74.172
X122.163Y-35.492
X122.163Y-54.542
X122.163Y-73.592
X130.101Y-109.47
X131.411Y-108.01
X134.86Y-85.657
X134.863Y-47.557
X134.863Y-66.607
X136.17Y-84.197
X136.173Y-46.097
X136.173Y-65.147
X136.411Y-107.51
X136.451Y-106.93
X141.17Y-83.697
X141.173Y-45.597
X141.173Y-64.647
X141.21Y-83.117
X141.213Y-45.017
X141.213Y-64.067
X151.146Y-110.068
X152.578Y-108.727
X153.913Y-47.557
X153.913Y-66.607
X153.913Y-85.64
X155.223Y-46.097
X155.223Y-65.147
X155.223Y-84.18
X157.603Y-108.665
X157.693Y-108.091
X160.223Y-45.597
X160.223Y-64.647
X160.223Y-83.68
X160.263Y-45.017
X160.263Y-64.067
X160.263Y-83.1
X174.7Y-114.998
X176.505Y-114.228
X181.248Y-115.888
X181.529Y-115.379
X195.202Y-127.71
X197.161Y-127.604
X201.05Y-130.786
X201.488Y-130.404
X228.714Y-131.122
X228.82Y-133.081
X231.514Y-126.794
X231.896Y-127.233
X247.79Y-118.212
X248.36Y-116.336
X252.472Y-113.227
X252.68Y-113.769
X267.89Y-66.602
X267.89Y-85.652
X267.9Y-47.56
X269.2Y-65.142
X269.2Y-84.192
X269.21Y-46.1
X270.653Y-110.704
X271.831Y-109.136
X274.2Y-64.642
X274.2Y-83.692
X274.21Y-45.6
X274.24Y-64.062
X274.24Y-83.112
X274.25Y-45.02
X276.758Y-107.62
X276.768Y-108.202
X286.94Y-47.552
X286.94Y-66.602
X286.94Y-85.652
X288.25Y-46.093
X288.25Y-65.142
X288.25Y-84.192
X291.702Y-109.465
X293.012Y-108.005
X293.25Y-45.593
X293.25Y-64.642
X293.25Y-83.692
X293.29Y-45.012
X293.29Y-64.062
X293.29Y-83.112
X298.012Y-107.505
X298.053Y-106.925
X305.99Y-38.027
X305.99Y-57.078
X305.99Y-76.127
X307.3Y-36.567
X307.3Y-55.617
X307.3Y-74.667
X312.3Y-36.067
X312.3Y-55.117
X312.3Y-74.167
X312.34Y-35.487
X312.34Y-54.537
X312.34Y-73.587
X325.04Y-42.79
X325.04Y-61.84
X325.04Y-80.89
X326.35Y-41.33
X326.35Y-60.38
X326.35Y-79.43
X331.35Y-40.83
X331.35Y-59.88
X331.35Y-78.93
X331.39Y-40.25
X331.39Y-59.3
X331.39Y-78.35
X344.61Y-95.31
X346.11Y-94.047
X347.28Y-76.493
X348.78Y-75.23
X349.951Y-57.627
X351.131Y-94.247
X351.252Y-93.678
X351.451Y-56.364
X353.801Y-75.431
X353.921Y-74.862
X356.472Y-56.564
X356.592Y-55.996
T8
X183.05Y-44.303
X183.05Y-46.843
X185.59Y-44.303
X185.59Y-46.843
X243.8Y-44.288
X243.8Y-46.828
X246.34Y-44.288
X246.34Y-46.828
T9
X170.17Y-46.1
X170.23Y-100.59
X176.7Y-100.6
X176.73Y-68.59
X208.7Y-46.12
X208.73Y-100.6
X208.75Y-68.54
X220.65Y-46.12
X220.7Y-68.55
X220.72Y-100.61
X252.72Y-68.6
X252.75Y-100.61
X259.22Y-100.6
X259.26Y-46.12
T4
G00X197.12Y-55.398
M15
G01X197.12Y-55.797
M16
G05
G00X201.72Y-47.297
M15
G01X201.72Y-47.697
M16
G05
G00X201.72Y-50.297
M15
G01X201.72Y-50.697
M16
G05
G00X201.72Y-54.297
M15
G01X201.72Y-54.697
M16
G05
G00X227.92Y-55.398
M15
G01X227.92Y-55.797
M16
G05
G00X232.52Y-47.297
M15
G01X232.52Y-47.697
M16
G05
G00X232.52Y-50.297
M15
G01X232.52Y-50.697
M16
G05
G00X232.52Y-54.297
M15
G01X232.52Y-54.697
M16
G05
T0
M30
