G04 #@! TF.GenerationSoftware,KiCad,Pcbnew,(6.0.7)*
G04 #@! TF.CreationDate,2022-09-25T19:35:04+02:00*
G04 #@! TF.ProjectId,xiao_split,7869616f-5f73-4706-9c69-742e6b696361,rev?*
G04 #@! TF.SameCoordinates,Original*
G04 #@! TF.FileFunction,Legend,Top*
G04 #@! TF.FilePolarity,Positive*
%FSLAX46Y46*%
G04 Gerber Fmt 4.6, Leading zero omitted, Abs format (unit mm)*
G04 Created by KiCad (PCBNEW (6.0.7)) date 2022-09-25 19:35:04*
%MOMM*%
%LPD*%
G01*
G04 APERTURE LIST*
%ADD10C,0.150000*%
%ADD11C,0.120000*%
G04 APERTURE END LIST*
D10*
X189802267Y-64602030D02*
X189903282Y-64029610D01*
X189398206Y-64197969D02*
X190105312Y-63490862D01*
X190374687Y-63760236D01*
X190408358Y-63861251D01*
X190408358Y-63928595D01*
X190374687Y-64029610D01*
X190273671Y-64130625D01*
X190172656Y-64164297D01*
X190105312Y-64164297D01*
X190004297Y-64130625D01*
X189734923Y-63861251D01*
X190745076Y-64130625D02*
X191216480Y-64602030D01*
X190206328Y-65006091D01*
X233015549Y-63885312D02*
X233116564Y-63312893D01*
X232611488Y-63481251D02*
X233318595Y-62774145D01*
X233587969Y-63043519D01*
X233621641Y-63144534D01*
X233621641Y-63211877D01*
X233587969Y-63312893D01*
X233486954Y-63413908D01*
X233385938Y-63447580D01*
X233318595Y-63447580D01*
X233217580Y-63413908D01*
X232948206Y-63144534D01*
X233688984Y-64558748D02*
X233284923Y-64154687D01*
X233486954Y-64356717D02*
X234194061Y-63649610D01*
X234025702Y-63683282D01*
X233891015Y-63683282D01*
X233790000Y-63649610D01*
X234025702Y-64895465D02*
X234160389Y-65030152D01*
X234261404Y-65063824D01*
X234328748Y-65063824D01*
X234497106Y-65030152D01*
X234665465Y-64929137D01*
X234934839Y-64659763D01*
X234968511Y-64558748D01*
X234968511Y-64491404D01*
X234934839Y-64390389D01*
X234800152Y-64255702D01*
X234699137Y-64222030D01*
X234631793Y-64222030D01*
X234530778Y-64255702D01*
X234362419Y-64424061D01*
X234328748Y-64525076D01*
X234328748Y-64592419D01*
X234362419Y-64693435D01*
X234497106Y-64828122D01*
X234598122Y-64861793D01*
X234665465Y-64861793D01*
X234766480Y-64828122D01*
X324868095Y-102354761D02*
X325010952Y-102402380D01*
X325249047Y-102402380D01*
X325344285Y-102354761D01*
X325391904Y-102307142D01*
X325439523Y-102211904D01*
X325439523Y-102116666D01*
X325391904Y-102021428D01*
X325344285Y-101973809D01*
X325249047Y-101926190D01*
X325058571Y-101878571D01*
X324963333Y-101830952D01*
X324915714Y-101783333D01*
X324868095Y-101688095D01*
X324868095Y-101592857D01*
X324915714Y-101497619D01*
X324963333Y-101450000D01*
X325058571Y-101402380D01*
X325296666Y-101402380D01*
X325439523Y-101450000D01*
X325868095Y-101735714D02*
X325868095Y-102735714D01*
X325868095Y-101783333D02*
X325963333Y-101735714D01*
X326153809Y-101735714D01*
X326249047Y-101783333D01*
X326296666Y-101830952D01*
X326344285Y-101926190D01*
X326344285Y-102211904D01*
X326296666Y-102307142D01*
X326249047Y-102354761D01*
X326153809Y-102402380D01*
X325963333Y-102402380D01*
X325868095Y-102354761D01*
X327153809Y-102354761D02*
X327058571Y-102402380D01*
X326868095Y-102402380D01*
X326772857Y-102354761D01*
X326725238Y-102259523D01*
X326725238Y-101878571D01*
X326772857Y-101783333D01*
X326868095Y-101735714D01*
X327058571Y-101735714D01*
X327153809Y-101783333D01*
X327201428Y-101878571D01*
X327201428Y-101973809D01*
X326725238Y-102069047D01*
X328058571Y-102402380D02*
X328058571Y-101878571D01*
X328010952Y-101783333D01*
X327915714Y-101735714D01*
X327725238Y-101735714D01*
X327630000Y-101783333D01*
X328058571Y-102354761D02*
X327963333Y-102402380D01*
X327725238Y-102402380D01*
X327630000Y-102354761D01*
X327582380Y-102259523D01*
X327582380Y-102164285D01*
X327630000Y-102069047D01*
X327725238Y-102021428D01*
X327963333Y-102021428D01*
X328058571Y-101973809D01*
X328534761Y-102402380D02*
X328534761Y-101402380D01*
X328630000Y-102021428D02*
X328915714Y-102402380D01*
X328915714Y-101735714D02*
X328534761Y-102116666D01*
X329725238Y-102354761D02*
X329630000Y-102402380D01*
X329439523Y-102402380D01*
X329344285Y-102354761D01*
X329296666Y-102259523D01*
X329296666Y-101878571D01*
X329344285Y-101783333D01*
X329439523Y-101735714D01*
X329630000Y-101735714D01*
X329725238Y-101783333D01*
X329772857Y-101878571D01*
X329772857Y-101973809D01*
X329296666Y-102069047D01*
X330201428Y-102402380D02*
X330201428Y-101735714D01*
X330201428Y-101926190D02*
X330249047Y-101830952D01*
X330296666Y-101783333D01*
X330391904Y-101735714D01*
X330487142Y-101735714D01*
X95278095Y-102374761D02*
X95420952Y-102422380D01*
X95659047Y-102422380D01*
X95754285Y-102374761D01*
X95801904Y-102327142D01*
X95849523Y-102231904D01*
X95849523Y-102136666D01*
X95801904Y-102041428D01*
X95754285Y-101993809D01*
X95659047Y-101946190D01*
X95468571Y-101898571D01*
X95373333Y-101850952D01*
X95325714Y-101803333D01*
X95278095Y-101708095D01*
X95278095Y-101612857D01*
X95325714Y-101517619D01*
X95373333Y-101470000D01*
X95468571Y-101422380D01*
X95706666Y-101422380D01*
X95849523Y-101470000D01*
X96278095Y-101755714D02*
X96278095Y-102755714D01*
X96278095Y-101803333D02*
X96373333Y-101755714D01*
X96563809Y-101755714D01*
X96659047Y-101803333D01*
X96706666Y-101850952D01*
X96754285Y-101946190D01*
X96754285Y-102231904D01*
X96706666Y-102327142D01*
X96659047Y-102374761D01*
X96563809Y-102422380D01*
X96373333Y-102422380D01*
X96278095Y-102374761D01*
X97563809Y-102374761D02*
X97468571Y-102422380D01*
X97278095Y-102422380D01*
X97182857Y-102374761D01*
X97135238Y-102279523D01*
X97135238Y-101898571D01*
X97182857Y-101803333D01*
X97278095Y-101755714D01*
X97468571Y-101755714D01*
X97563809Y-101803333D01*
X97611428Y-101898571D01*
X97611428Y-101993809D01*
X97135238Y-102089047D01*
X98468571Y-102422380D02*
X98468571Y-101898571D01*
X98420952Y-101803333D01*
X98325714Y-101755714D01*
X98135238Y-101755714D01*
X98040000Y-101803333D01*
X98468571Y-102374761D02*
X98373333Y-102422380D01*
X98135238Y-102422380D01*
X98040000Y-102374761D01*
X97992380Y-102279523D01*
X97992380Y-102184285D01*
X98040000Y-102089047D01*
X98135238Y-102041428D01*
X98373333Y-102041428D01*
X98468571Y-101993809D01*
X98944761Y-102422380D02*
X98944761Y-101422380D01*
X99040000Y-102041428D02*
X99325714Y-102422380D01*
X99325714Y-101755714D02*
X98944761Y-102136666D01*
X100135238Y-102374761D02*
X100040000Y-102422380D01*
X99849523Y-102422380D01*
X99754285Y-102374761D01*
X99706666Y-102279523D01*
X99706666Y-101898571D01*
X99754285Y-101803333D01*
X99849523Y-101755714D01*
X100040000Y-101755714D01*
X100135238Y-101803333D01*
X100182857Y-101898571D01*
X100182857Y-101993809D01*
X99706666Y-102089047D01*
X100611428Y-102422380D02*
X100611428Y-101755714D01*
X100611428Y-101946190D02*
X100659047Y-101850952D01*
X100706666Y-101803333D01*
X100801904Y-101755714D01*
X100897142Y-101755714D01*
G04 #@! TO.C,R8*
X183333333Y-78442380D02*
X183000000Y-77966190D01*
X182761904Y-78442380D02*
X182761904Y-77442380D01*
X183142857Y-77442380D01*
X183238095Y-77490000D01*
X183285714Y-77537619D01*
X183333333Y-77632857D01*
X183333333Y-77775714D01*
X183285714Y-77870952D01*
X183238095Y-77918571D01*
X183142857Y-77966190D01*
X182761904Y-77966190D01*
X183904761Y-77870952D02*
X183809523Y-77823333D01*
X183761904Y-77775714D01*
X183714285Y-77680476D01*
X183714285Y-77632857D01*
X183761904Y-77537619D01*
X183809523Y-77490000D01*
X183904761Y-77442380D01*
X184095238Y-77442380D01*
X184190476Y-77490000D01*
X184238095Y-77537619D01*
X184285714Y-77632857D01*
X184285714Y-77680476D01*
X184238095Y-77775714D01*
X184190476Y-77823333D01*
X184095238Y-77870952D01*
X183904761Y-77870952D01*
X183809523Y-77918571D01*
X183761904Y-77966190D01*
X183714285Y-78061428D01*
X183714285Y-78251904D01*
X183761904Y-78347142D01*
X183809523Y-78394761D01*
X183904761Y-78442380D01*
X184095238Y-78442380D01*
X184190476Y-78394761D01*
X184238095Y-78347142D01*
X184285714Y-78251904D01*
X184285714Y-78061428D01*
X184238095Y-77966190D01*
X184190476Y-77918571D01*
X184095238Y-77870952D01*
G04 #@! TO.C,R16*
X227597142Y-78022380D02*
X227263809Y-77546190D01*
X227025714Y-78022380D02*
X227025714Y-77022380D01*
X227406666Y-77022380D01*
X227501904Y-77070000D01*
X227549523Y-77117619D01*
X227597142Y-77212857D01*
X227597142Y-77355714D01*
X227549523Y-77450952D01*
X227501904Y-77498571D01*
X227406666Y-77546190D01*
X227025714Y-77546190D01*
X228549523Y-78022380D02*
X227978095Y-78022380D01*
X228263809Y-78022380D02*
X228263809Y-77022380D01*
X228168571Y-77165238D01*
X228073333Y-77260476D01*
X227978095Y-77308095D01*
X229406666Y-77022380D02*
X229216190Y-77022380D01*
X229120952Y-77070000D01*
X229073333Y-77117619D01*
X228978095Y-77260476D01*
X228930476Y-77450952D01*
X228930476Y-77831904D01*
X228978095Y-77927142D01*
X229025714Y-77974761D01*
X229120952Y-78022380D01*
X229311428Y-78022380D01*
X229406666Y-77974761D01*
X229454285Y-77927142D01*
X229501904Y-77831904D01*
X229501904Y-77593809D01*
X229454285Y-77498571D01*
X229406666Y-77450952D01*
X229311428Y-77403333D01*
X229120952Y-77403333D01*
X229025714Y-77450952D01*
X228978095Y-77498571D01*
X228930476Y-77593809D01*
G04 #@! TO.C,R2*
X193543333Y-88272380D02*
X193210000Y-87796190D01*
X192971904Y-88272380D02*
X192971904Y-87272380D01*
X193352857Y-87272380D01*
X193448095Y-87320000D01*
X193495714Y-87367619D01*
X193543333Y-87462857D01*
X193543333Y-87605714D01*
X193495714Y-87700952D01*
X193448095Y-87748571D01*
X193352857Y-87796190D01*
X192971904Y-87796190D01*
X193924285Y-87367619D02*
X193971904Y-87320000D01*
X194067142Y-87272380D01*
X194305238Y-87272380D01*
X194400476Y-87320000D01*
X194448095Y-87367619D01*
X194495714Y-87462857D01*
X194495714Y-87558095D01*
X194448095Y-87700952D01*
X193876666Y-88272380D01*
X194495714Y-88272380D01*
G04 #@! TO.C,R6*
X201403333Y-78532380D02*
X201070000Y-78056190D01*
X200831904Y-78532380D02*
X200831904Y-77532380D01*
X201212857Y-77532380D01*
X201308095Y-77580000D01*
X201355714Y-77627619D01*
X201403333Y-77722857D01*
X201403333Y-77865714D01*
X201355714Y-77960952D01*
X201308095Y-78008571D01*
X201212857Y-78056190D01*
X200831904Y-78056190D01*
X202260476Y-77532380D02*
X202070000Y-77532380D01*
X201974761Y-77580000D01*
X201927142Y-77627619D01*
X201831904Y-77770476D01*
X201784285Y-77960952D01*
X201784285Y-78341904D01*
X201831904Y-78437142D01*
X201879523Y-78484761D01*
X201974761Y-78532380D01*
X202165238Y-78532380D01*
X202260476Y-78484761D01*
X202308095Y-78437142D01*
X202355714Y-78341904D01*
X202355714Y-78103809D01*
X202308095Y-78008571D01*
X202260476Y-77960952D01*
X202165238Y-77913333D01*
X201974761Y-77913333D01*
X201879523Y-77960952D01*
X201831904Y-78008571D01*
X201784285Y-78103809D01*
G04 #@! TO.C,R15*
X247987142Y-78052380D02*
X247653809Y-77576190D01*
X247415714Y-78052380D02*
X247415714Y-77052380D01*
X247796666Y-77052380D01*
X247891904Y-77100000D01*
X247939523Y-77147619D01*
X247987142Y-77242857D01*
X247987142Y-77385714D01*
X247939523Y-77480952D01*
X247891904Y-77528571D01*
X247796666Y-77576190D01*
X247415714Y-77576190D01*
X248939523Y-78052380D02*
X248368095Y-78052380D01*
X248653809Y-78052380D02*
X248653809Y-77052380D01*
X248558571Y-77195238D01*
X248463333Y-77290476D01*
X248368095Y-77338095D01*
X249844285Y-77052380D02*
X249368095Y-77052380D01*
X249320476Y-77528571D01*
X249368095Y-77480952D01*
X249463333Y-77433333D01*
X249701428Y-77433333D01*
X249796666Y-77480952D01*
X249844285Y-77528571D01*
X249891904Y-77623809D01*
X249891904Y-77861904D01*
X249844285Y-77957142D01*
X249796666Y-78004761D01*
X249701428Y-78052380D01*
X249463333Y-78052380D01*
X249368095Y-78004761D01*
X249320476Y-77957142D01*
G04 #@! TO.C,R1*
X199333333Y-78542380D02*
X199000000Y-78066190D01*
X198761904Y-78542380D02*
X198761904Y-77542380D01*
X199142857Y-77542380D01*
X199238095Y-77590000D01*
X199285714Y-77637619D01*
X199333333Y-77732857D01*
X199333333Y-77875714D01*
X199285714Y-77970952D01*
X199238095Y-78018571D01*
X199142857Y-78066190D01*
X198761904Y-78066190D01*
X200285714Y-78542380D02*
X199714285Y-78542380D01*
X200000000Y-78542380D02*
X200000000Y-77542380D01*
X199904761Y-77685238D01*
X199809523Y-77780476D01*
X199714285Y-77828095D01*
G04 #@! TO.C,R18*
X224917142Y-78022380D02*
X224583809Y-77546190D01*
X224345714Y-78022380D02*
X224345714Y-77022380D01*
X224726666Y-77022380D01*
X224821904Y-77070000D01*
X224869523Y-77117619D01*
X224917142Y-77212857D01*
X224917142Y-77355714D01*
X224869523Y-77450952D01*
X224821904Y-77498571D01*
X224726666Y-77546190D01*
X224345714Y-77546190D01*
X225869523Y-78022380D02*
X225298095Y-78022380D01*
X225583809Y-78022380D02*
X225583809Y-77022380D01*
X225488571Y-77165238D01*
X225393333Y-77260476D01*
X225298095Y-77308095D01*
X226440952Y-77450952D02*
X226345714Y-77403333D01*
X226298095Y-77355714D01*
X226250476Y-77260476D01*
X226250476Y-77212857D01*
X226298095Y-77117619D01*
X226345714Y-77070000D01*
X226440952Y-77022380D01*
X226631428Y-77022380D01*
X226726666Y-77070000D01*
X226774285Y-77117619D01*
X226821904Y-77212857D01*
X226821904Y-77260476D01*
X226774285Y-77355714D01*
X226726666Y-77403333D01*
X226631428Y-77450952D01*
X226440952Y-77450952D01*
X226345714Y-77498571D01*
X226298095Y-77546190D01*
X226250476Y-77641428D01*
X226250476Y-77831904D01*
X226298095Y-77927142D01*
X226345714Y-77974761D01*
X226440952Y-78022380D01*
X226631428Y-78022380D01*
X226726666Y-77974761D01*
X226774285Y-77927142D01*
X226821904Y-77831904D01*
X226821904Y-77641428D01*
X226774285Y-77546190D01*
X226726666Y-77498571D01*
X226631428Y-77450952D01*
G04 #@! TO.C,R10*
X185187142Y-78442380D02*
X184853809Y-77966190D01*
X184615714Y-78442380D02*
X184615714Y-77442380D01*
X184996666Y-77442380D01*
X185091904Y-77490000D01*
X185139523Y-77537619D01*
X185187142Y-77632857D01*
X185187142Y-77775714D01*
X185139523Y-77870952D01*
X185091904Y-77918571D01*
X184996666Y-77966190D01*
X184615714Y-77966190D01*
X186139523Y-78442380D02*
X185568095Y-78442380D01*
X185853809Y-78442380D02*
X185853809Y-77442380D01*
X185758571Y-77585238D01*
X185663333Y-77680476D01*
X185568095Y-77728095D01*
X186758571Y-77442380D02*
X186853809Y-77442380D01*
X186949047Y-77490000D01*
X186996666Y-77537619D01*
X187044285Y-77632857D01*
X187091904Y-77823333D01*
X187091904Y-78061428D01*
X187044285Y-78251904D01*
X186996666Y-78347142D01*
X186949047Y-78394761D01*
X186853809Y-78442380D01*
X186758571Y-78442380D01*
X186663333Y-78394761D01*
X186615714Y-78347142D01*
X186568095Y-78251904D01*
X186520476Y-78061428D01*
X186520476Y-77823333D01*
X186568095Y-77632857D01*
X186615714Y-77537619D01*
X186663333Y-77490000D01*
X186758571Y-77442380D01*
G04 #@! TO.C,R20*
X230287142Y-78022380D02*
X229953809Y-77546190D01*
X229715714Y-78022380D02*
X229715714Y-77022380D01*
X230096666Y-77022380D01*
X230191904Y-77070000D01*
X230239523Y-77117619D01*
X230287142Y-77212857D01*
X230287142Y-77355714D01*
X230239523Y-77450952D01*
X230191904Y-77498571D01*
X230096666Y-77546190D01*
X229715714Y-77546190D01*
X230668095Y-77117619D02*
X230715714Y-77070000D01*
X230810952Y-77022380D01*
X231049047Y-77022380D01*
X231144285Y-77070000D01*
X231191904Y-77117619D01*
X231239523Y-77212857D01*
X231239523Y-77308095D01*
X231191904Y-77450952D01*
X230620476Y-78022380D01*
X231239523Y-78022380D01*
X231858571Y-77022380D02*
X231953809Y-77022380D01*
X232049047Y-77070000D01*
X232096666Y-77117619D01*
X232144285Y-77212857D01*
X232191904Y-77403333D01*
X232191904Y-77641428D01*
X232144285Y-77831904D01*
X232096666Y-77927142D01*
X232049047Y-77974761D01*
X231953809Y-78022380D01*
X231858571Y-78022380D01*
X231763333Y-77974761D01*
X231715714Y-77927142D01*
X231668095Y-77831904D01*
X231620476Y-77641428D01*
X231620476Y-77403333D01*
X231668095Y-77212857D01*
X231715714Y-77117619D01*
X231763333Y-77070000D01*
X231858571Y-77022380D01*
G04 #@! TO.C,R9*
X195372030Y-64847732D02*
X194799610Y-64746717D01*
X194967969Y-65251793D02*
X194260862Y-64544687D01*
X194530236Y-64275312D01*
X194631251Y-64241641D01*
X194698595Y-64241641D01*
X194799610Y-64275312D01*
X194900625Y-64376328D01*
X194934297Y-64477343D01*
X194934297Y-64544687D01*
X194900625Y-64645702D01*
X194631251Y-64915076D01*
X195708748Y-64511015D02*
X195843435Y-64376328D01*
X195877106Y-64275312D01*
X195877106Y-64207969D01*
X195843435Y-64039610D01*
X195742419Y-63871251D01*
X195473045Y-63601877D01*
X195372030Y-63568206D01*
X195304687Y-63568206D01*
X195203671Y-63601877D01*
X195068984Y-63736564D01*
X195035312Y-63837580D01*
X195035312Y-63904923D01*
X195068984Y-64005938D01*
X195237343Y-64174297D01*
X195338358Y-64207969D01*
X195405702Y-64207969D01*
X195506717Y-64174297D01*
X195641404Y-64039610D01*
X195675076Y-63938595D01*
X195675076Y-63871251D01*
X195641404Y-63770236D01*
G04 #@! TO.C,U1*
X189118095Y-77342380D02*
X189118095Y-78151904D01*
X189165714Y-78247142D01*
X189213333Y-78294761D01*
X189308571Y-78342380D01*
X189499047Y-78342380D01*
X189594285Y-78294761D01*
X189641904Y-78247142D01*
X189689523Y-78151904D01*
X189689523Y-77342380D01*
X190689523Y-78342380D02*
X190118095Y-78342380D01*
X190403809Y-78342380D02*
X190403809Y-77342380D01*
X190308571Y-77485238D01*
X190213333Y-77580476D01*
X190118095Y-77628095D01*
G04 #@! TO.C,R14*
X242507142Y-78022380D02*
X242173809Y-77546190D01*
X241935714Y-78022380D02*
X241935714Y-77022380D01*
X242316666Y-77022380D01*
X242411904Y-77070000D01*
X242459523Y-77117619D01*
X242507142Y-77212857D01*
X242507142Y-77355714D01*
X242459523Y-77450952D01*
X242411904Y-77498571D01*
X242316666Y-77546190D01*
X241935714Y-77546190D01*
X243459523Y-78022380D02*
X242888095Y-78022380D01*
X243173809Y-78022380D02*
X243173809Y-77022380D01*
X243078571Y-77165238D01*
X242983333Y-77260476D01*
X242888095Y-77308095D01*
X244316666Y-77355714D02*
X244316666Y-78022380D01*
X244078571Y-76974761D02*
X243840476Y-77689047D01*
X244459523Y-77689047D01*
G04 #@! TO.C,R17*
X239225312Y-64874450D02*
X238652893Y-64773435D01*
X238821251Y-65278511D02*
X238114145Y-64571404D01*
X238383519Y-64302030D01*
X238484534Y-64268358D01*
X238551877Y-64268358D01*
X238652893Y-64302030D01*
X238753908Y-64403045D01*
X238787580Y-64504061D01*
X238787580Y-64571404D01*
X238753908Y-64672419D01*
X238484534Y-64941793D01*
X239898748Y-64201015D02*
X239494687Y-64605076D01*
X239696717Y-64403045D02*
X238989610Y-63695938D01*
X239023282Y-63864297D01*
X239023282Y-63998984D01*
X238989610Y-64100000D01*
X239427343Y-63258206D02*
X239898748Y-62786801D01*
X240302809Y-63796954D01*
G04 #@! TO.C,R3*
X181183333Y-78442380D02*
X180850000Y-77966190D01*
X180611904Y-78442380D02*
X180611904Y-77442380D01*
X180992857Y-77442380D01*
X181088095Y-77490000D01*
X181135714Y-77537619D01*
X181183333Y-77632857D01*
X181183333Y-77775714D01*
X181135714Y-77870952D01*
X181088095Y-77918571D01*
X180992857Y-77966190D01*
X180611904Y-77966190D01*
X181516666Y-77442380D02*
X182135714Y-77442380D01*
X181802380Y-77823333D01*
X181945238Y-77823333D01*
X182040476Y-77870952D01*
X182088095Y-77918571D01*
X182135714Y-78013809D01*
X182135714Y-78251904D01*
X182088095Y-78347142D01*
X182040476Y-78394761D01*
X181945238Y-78442380D01*
X181659523Y-78442380D01*
X181564285Y-78394761D01*
X181516666Y-78347142D01*
G04 #@! TO.C,R11*
X237847142Y-88172380D02*
X237513809Y-87696190D01*
X237275714Y-88172380D02*
X237275714Y-87172380D01*
X237656666Y-87172380D01*
X237751904Y-87220000D01*
X237799523Y-87267619D01*
X237847142Y-87362857D01*
X237847142Y-87505714D01*
X237799523Y-87600952D01*
X237751904Y-87648571D01*
X237656666Y-87696190D01*
X237275714Y-87696190D01*
X238799523Y-88172380D02*
X238228095Y-88172380D01*
X238513809Y-88172380D02*
X238513809Y-87172380D01*
X238418571Y-87315238D01*
X238323333Y-87410476D01*
X238228095Y-87458095D01*
X239751904Y-88172380D02*
X239180476Y-88172380D01*
X239466190Y-88172380D02*
X239466190Y-87172380D01*
X239370952Y-87315238D01*
X239275714Y-87410476D01*
X239180476Y-87458095D01*
G04 #@! TO.C,R13*
X234077142Y-88242380D02*
X233743809Y-87766190D01*
X233505714Y-88242380D02*
X233505714Y-87242380D01*
X233886666Y-87242380D01*
X233981904Y-87290000D01*
X234029523Y-87337619D01*
X234077142Y-87432857D01*
X234077142Y-87575714D01*
X234029523Y-87670952D01*
X233981904Y-87718571D01*
X233886666Y-87766190D01*
X233505714Y-87766190D01*
X235029523Y-88242380D02*
X234458095Y-88242380D01*
X234743809Y-88242380D02*
X234743809Y-87242380D01*
X234648571Y-87385238D01*
X234553333Y-87480476D01*
X234458095Y-87528095D01*
X235362857Y-87242380D02*
X235981904Y-87242380D01*
X235648571Y-87623333D01*
X235791428Y-87623333D01*
X235886666Y-87670952D01*
X235934285Y-87718571D01*
X235981904Y-87813809D01*
X235981904Y-88051904D01*
X235934285Y-88147142D01*
X235886666Y-88194761D01*
X235791428Y-88242380D01*
X235505714Y-88242380D01*
X235410476Y-88194761D01*
X235362857Y-88147142D01*
G04 #@! TO.C,R4*
X203433333Y-78542380D02*
X203100000Y-78066190D01*
X202861904Y-78542380D02*
X202861904Y-77542380D01*
X203242857Y-77542380D01*
X203338095Y-77590000D01*
X203385714Y-77637619D01*
X203433333Y-77732857D01*
X203433333Y-77875714D01*
X203385714Y-77970952D01*
X203338095Y-78018571D01*
X203242857Y-78066190D01*
X202861904Y-78066190D01*
X204290476Y-77875714D02*
X204290476Y-78542380D01*
X204052380Y-77494761D02*
X203814285Y-78209047D01*
X204433333Y-78209047D01*
G04 #@! TO.C,U2*
X232898095Y-77022380D02*
X232898095Y-77831904D01*
X232945714Y-77927142D01*
X232993333Y-77974761D01*
X233088571Y-78022380D01*
X233279047Y-78022380D01*
X233374285Y-77974761D01*
X233421904Y-77927142D01*
X233469523Y-77831904D01*
X233469523Y-77022380D01*
X233898095Y-77117619D02*
X233945714Y-77070000D01*
X234040952Y-77022380D01*
X234279047Y-77022380D01*
X234374285Y-77070000D01*
X234421904Y-77117619D01*
X234469523Y-77212857D01*
X234469523Y-77308095D01*
X234421904Y-77450952D01*
X233850476Y-78022380D01*
X234469523Y-78022380D01*
G04 #@! TO.C,R5*
X191343333Y-88282380D02*
X191010000Y-87806190D01*
X190771904Y-88282380D02*
X190771904Y-87282380D01*
X191152857Y-87282380D01*
X191248095Y-87330000D01*
X191295714Y-87377619D01*
X191343333Y-87472857D01*
X191343333Y-87615714D01*
X191295714Y-87710952D01*
X191248095Y-87758571D01*
X191152857Y-87806190D01*
X190771904Y-87806190D01*
X192248095Y-87282380D02*
X191771904Y-87282380D01*
X191724285Y-87758571D01*
X191771904Y-87710952D01*
X191867142Y-87663333D01*
X192105238Y-87663333D01*
X192200476Y-87710952D01*
X192248095Y-87758571D01*
X192295714Y-87853809D01*
X192295714Y-88091904D01*
X192248095Y-88187142D01*
X192200476Y-88234761D01*
X192105238Y-88282380D01*
X191867142Y-88282380D01*
X191771904Y-88234761D01*
X191724285Y-88187142D01*
G04 #@! TO.C,R12*
X245287142Y-78042380D02*
X244953809Y-77566190D01*
X244715714Y-78042380D02*
X244715714Y-77042380D01*
X245096666Y-77042380D01*
X245191904Y-77090000D01*
X245239523Y-77137619D01*
X245287142Y-77232857D01*
X245287142Y-77375714D01*
X245239523Y-77470952D01*
X245191904Y-77518571D01*
X245096666Y-77566190D01*
X244715714Y-77566190D01*
X246239523Y-78042380D02*
X245668095Y-78042380D01*
X245953809Y-78042380D02*
X245953809Y-77042380D01*
X245858571Y-77185238D01*
X245763333Y-77280476D01*
X245668095Y-77328095D01*
X246620476Y-77137619D02*
X246668095Y-77090000D01*
X246763333Y-77042380D01*
X247001428Y-77042380D01*
X247096666Y-77090000D01*
X247144285Y-77137619D01*
X247191904Y-77232857D01*
X247191904Y-77328095D01*
X247144285Y-77470952D01*
X246572857Y-78042380D01*
X247191904Y-78042380D01*
D11*
G04 #@! TO.C,R8*
X184235000Y-80507064D02*
X184235000Y-80052936D01*
X182765000Y-80507064D02*
X182765000Y-80052936D01*
G04 #@! TO.C,J6*
X223300000Y-76340000D02*
X221180000Y-76340000D01*
X221180000Y-82400000D02*
X221180000Y-76340000D01*
X222240000Y-84460000D02*
X221180000Y-84460000D01*
X223300000Y-82400000D02*
X223300000Y-76340000D01*
X221180000Y-84460000D02*
X221180000Y-83400000D01*
X223300000Y-82400000D02*
X221180000Y-82400000D01*
G04 #@! TO.C,D49*
X233870172Y-113607130D02*
X232837797Y-112574754D01*
X233870172Y-113607130D02*
X234527782Y-112949521D01*
X236104630Y-111372672D02*
X234577279Y-109845322D01*
X236104630Y-111372672D02*
X235447021Y-112030282D01*
D10*
G04 #@! TO.C,J1*
X196370000Y-44297500D02*
X196370000Y-56397500D01*
X202220000Y-44297500D02*
X202220000Y-42297500D01*
X202220000Y-42297500D02*
X196620000Y-42297500D01*
X202470000Y-56397500D02*
X196370000Y-56397500D01*
X202470000Y-44297500D02*
X202470000Y-56397500D01*
X202470000Y-44297500D02*
X196370000Y-44297500D01*
X196620000Y-44297500D02*
X196620000Y-42297500D01*
G04 #@! TO.C,J4*
X233270000Y-44297500D02*
X233270000Y-56397500D01*
X227170000Y-44297500D02*
X227170000Y-56397500D01*
X233020000Y-44297500D02*
X233020000Y-42297500D01*
X233020000Y-42297500D02*
X227420000Y-42297500D01*
X233270000Y-56397500D02*
X227170000Y-56397500D01*
X227420000Y-44297500D02*
X227420000Y-42297500D01*
X233270000Y-44297500D02*
X227170000Y-44297500D01*
D11*
G04 #@! TO.C,R16*
X227165000Y-80517064D02*
X227165000Y-80062936D01*
X228635000Y-80517064D02*
X228635000Y-80062936D01*
G04 #@! TO.C,R2*
X194797064Y-86815000D02*
X194342936Y-86815000D01*
X194797064Y-85345000D02*
X194342936Y-85345000D01*
G04 #@! TO.C,R7*
X190510835Y-65819718D02*
X190189718Y-66140835D01*
X191550282Y-66859165D02*
X191229165Y-67180282D01*
G04 #@! TO.C,D60*
X224879828Y-120477870D02*
X225912203Y-121510246D01*
X222645370Y-122712328D02*
X224172721Y-124239678D01*
X224879828Y-120477870D02*
X224222218Y-121135479D01*
X222645370Y-122712328D02*
X223302979Y-122054718D01*
G04 #@! TO.C,D5*
X117480000Y-99970000D02*
X117480000Y-102130000D01*
X117480000Y-99970000D02*
X118410000Y-99970000D01*
X120640000Y-99970000D02*
X120640000Y-101430000D01*
X120640000Y-99970000D02*
X119710000Y-99970000D01*
G04 #@! TO.C,R6*
X200835000Y-80667064D02*
X200835000Y-80212936D01*
X202305000Y-80667064D02*
X202305000Y-80212936D01*
G04 #@! TO.C,R15*
X244875000Y-80062936D02*
X244875000Y-80517064D01*
X246345000Y-80062936D02*
X246345000Y-80517064D01*
G04 #@! TO.C,R1*
X198755000Y-80667064D02*
X198755000Y-80212936D01*
X200225000Y-80667064D02*
X200225000Y-80212936D01*
G04 #@! TO.C,D29*
X197839828Y-115994630D02*
X199367178Y-114467279D01*
X195605370Y-113760172D02*
X196637746Y-112727797D01*
X195605370Y-113760172D02*
X196262979Y-114417782D01*
X197839828Y-115994630D02*
X197182218Y-115337021D01*
G04 #@! TO.C,SW1*
X128010735Y-105909771D02*
X130410735Y-105909771D01*
X130110735Y-119509771D02*
X129810735Y-119809771D01*
X129810735Y-119209771D02*
X130110735Y-119509771D01*
X128010735Y-118109771D02*
X139810735Y-118109771D01*
X137410735Y-105909771D02*
X139810735Y-105909771D01*
X128010735Y-110009771D02*
X128010735Y-105909771D01*
X132610735Y-105909771D02*
X135210735Y-105909771D01*
X129810735Y-119809771D02*
X129810735Y-119209771D01*
X139810735Y-105909771D02*
X139810735Y-110009771D01*
X139810735Y-114009771D02*
X139810735Y-118109771D01*
X128010735Y-114009771D02*
X128010735Y-118109771D01*
G04 #@! TO.C,R18*
X225165000Y-80517064D02*
X225165000Y-80062936D01*
X226635000Y-80517064D02*
X226635000Y-80062936D01*
G04 #@! TO.C,J5*
X217200000Y-52250000D02*
X219860000Y-52250000D01*
X218530000Y-49650000D02*
X219860000Y-49650000D01*
X217200000Y-65010000D02*
X219860000Y-65010000D01*
X219860000Y-52250000D02*
X219860000Y-65010000D01*
X219860000Y-49650000D02*
X219860000Y-50980000D01*
X217200000Y-52250000D02*
X217200000Y-65010000D01*
G04 #@! TO.C,D6*
X170400000Y-75350000D02*
X168940000Y-75350000D01*
X170400000Y-75350000D02*
X170400000Y-76280000D01*
X170400000Y-78510000D02*
X168240000Y-78510000D01*
X170400000Y-78510000D02*
X170400000Y-77580000D01*
G04 #@! TO.C,D37*
X233574630Y-113920172D02*
X232047279Y-112392822D01*
X231340172Y-116154630D02*
X230307797Y-115122254D01*
X233574630Y-113920172D02*
X232917021Y-114577782D01*
X231340172Y-116154630D02*
X231997782Y-115497021D01*
G04 #@! TO.C,D17*
X121220000Y-99920000D02*
X122150000Y-99920000D01*
X124380000Y-99920000D02*
X123450000Y-99920000D01*
X124380000Y-99920000D02*
X124380000Y-101380000D01*
X121220000Y-99920000D02*
X121220000Y-102080000D01*
G04 #@! TO.C,D8*
X204510172Y-120495370D02*
X202982822Y-122022721D01*
X206744630Y-122729828D02*
X206087021Y-122072218D01*
X204510172Y-120495370D02*
X205167782Y-121152979D01*
X206744630Y-122729828D02*
X205712254Y-123762203D01*
G04 #@! TO.C,D50*
X227419828Y-117937870D02*
X226762218Y-118595479D01*
X227419828Y-117937870D02*
X228452203Y-118970246D01*
X225185370Y-120172328D02*
X226712721Y-121699678D01*
X225185370Y-120172328D02*
X225842979Y-119514718D01*
G04 #@! TO.C,D47*
X307610000Y-99942500D02*
X307610000Y-102102500D01*
X307610000Y-99942500D02*
X308540000Y-99942500D01*
X310770000Y-99942500D02*
X309840000Y-99942500D01*
X310770000Y-99942500D02*
X310770000Y-101402500D01*
G04 #@! TO.C,J2*
X212240000Y-49650000D02*
X212240000Y-50980000D01*
X212240000Y-52250000D02*
X212240000Y-65010000D01*
X209580000Y-52250000D02*
X209580000Y-65010000D01*
X210910000Y-49650000D02*
X212240000Y-49650000D01*
X209580000Y-65010000D02*
X212240000Y-65010000D01*
X209580000Y-52250000D02*
X212240000Y-52250000D01*
G04 #@! TO.C,R10*
X186245000Y-80052936D02*
X186245000Y-80507064D01*
X184775000Y-80052936D02*
X184775000Y-80507064D01*
G04 #@! TO.C,D18*
X170400000Y-74900000D02*
X170400000Y-73970000D01*
X170400000Y-74900000D02*
X168940000Y-74900000D01*
X170400000Y-71740000D02*
X168240000Y-71740000D01*
X170400000Y-71740000D02*
X170400000Y-72670000D01*
G04 #@! TO.C,R20*
X229165000Y-80062936D02*
X229165000Y-80517064D01*
X230635000Y-80062936D02*
X230635000Y-80517064D01*
G04 #@! TO.C,D19*
X192855370Y-111060172D02*
X193887746Y-110027797D01*
X195089828Y-113294630D02*
X194432218Y-112637021D01*
X192855370Y-111060172D02*
X193512979Y-111717782D01*
X195089828Y-113294630D02*
X196617178Y-111767279D01*
G04 #@! TO.C,R9*
X195310282Y-66140835D02*
X194989165Y-65819718D01*
X194270835Y-67180282D02*
X193949718Y-66859165D01*
G04 #@! TO.C,D48*
X258040000Y-74872500D02*
X258040000Y-73942500D01*
X258040000Y-74872500D02*
X260200000Y-74872500D01*
X258040000Y-71712500D02*
X259500000Y-71712500D01*
X258040000Y-71712500D02*
X258040000Y-72642500D01*
G04 #@! TO.C,U1*
X192690000Y-84085000D02*
X190490000Y-84085000D01*
X192690000Y-78615000D02*
X189090000Y-78615000D01*
X192690000Y-84085000D02*
X194890000Y-84085000D01*
X192690000Y-78615000D02*
X194890000Y-78615000D01*
G04 #@! TO.C,LS1*
X106200000Y-102980000D02*
X94980000Y-102980000D01*
X106200000Y-93760000D02*
X106200000Y-102980000D01*
X94980000Y-93760000D02*
X106200000Y-93760000D01*
X94980000Y-102980000D02*
X94980000Y-93760000D01*
G04 #@! TO.C,R14*
X242845000Y-80517064D02*
X242845000Y-80062936D01*
X244315000Y-80517064D02*
X244315000Y-80062936D01*
G04 #@! TO.C,J3*
X208190000Y-82400000D02*
X208190000Y-76340000D01*
X207130000Y-84460000D02*
X206070000Y-84460000D01*
X208190000Y-76340000D02*
X206070000Y-76340000D01*
X206070000Y-84460000D02*
X206070000Y-83400000D01*
X206070000Y-82400000D02*
X206070000Y-76340000D01*
X208190000Y-82400000D02*
X206070000Y-82400000D01*
G04 #@! TO.C,D58*
X258040000Y-75322500D02*
X259500000Y-75322500D01*
X258040000Y-75322500D02*
X258040000Y-76252500D01*
X258040000Y-78482500D02*
X258040000Y-77552500D01*
X258040000Y-78482500D02*
X260200000Y-78482500D01*
G04 #@! TO.C,R17*
X238130835Y-67180282D02*
X237809718Y-66859165D01*
X239170282Y-66140835D02*
X238849165Y-65819718D01*
G04 #@! TO.C,R3*
X182095000Y-80507064D02*
X182095000Y-80052936D01*
X180625000Y-80507064D02*
X180625000Y-80052936D01*
G04 #@! TO.C,D20*
X201890172Y-117875370D02*
X202547782Y-118532979D01*
X204124630Y-120109828D02*
X203092254Y-121142203D01*
X204124630Y-120109828D02*
X203467021Y-119452218D01*
X201890172Y-117875370D02*
X200362822Y-119402721D01*
G04 #@! TO.C,D30*
X201474630Y-117479828D02*
X200817021Y-116822218D01*
X201474630Y-117479828D02*
X200442254Y-118512203D01*
X199240172Y-115245370D02*
X199897782Y-115902979D01*
X199240172Y-115245370D02*
X197712822Y-116772721D01*
G04 #@! TO.C,R11*
X239127064Y-85355000D02*
X238672936Y-85355000D01*
X239127064Y-86825000D02*
X238672936Y-86825000D01*
G04 #@! TO.C,D7*
X192529828Y-110744630D02*
X191872218Y-110087021D01*
X192529828Y-110744630D02*
X194057178Y-109217279D01*
X190295370Y-108510172D02*
X190952979Y-109167782D01*
X190295370Y-108510172D02*
X191327746Y-107477797D01*
G04 #@! TO.C,R13*
X234125436Y-85355000D02*
X234579564Y-85355000D01*
X234125436Y-86825000D02*
X234579564Y-86825000D01*
G04 #@! TO.C,LS2*
X324560000Y-102980000D02*
X324560000Y-93760000D01*
X335780000Y-93760000D02*
X335780000Y-102980000D01*
X335780000Y-102980000D02*
X324560000Y-102980000D01*
X324560000Y-93760000D02*
X335780000Y-93760000D01*
G04 #@! TO.C,D59*
X236430172Y-111067130D02*
X237087782Y-110409521D01*
X236430172Y-111067130D02*
X235397797Y-110034754D01*
X238664630Y-108832672D02*
X238007021Y-109490282D01*
X238664630Y-108832672D02*
X237137279Y-107305322D01*
G04 #@! TO.C,R4*
X202865000Y-80667064D02*
X202865000Y-80212936D01*
X204335000Y-80667064D02*
X204335000Y-80212936D01*
G04 #@! TO.C,SW2*
X291412500Y-119202500D02*
X291712500Y-119502500D01*
X289612500Y-118102500D02*
X301412500Y-118102500D01*
X301412500Y-114002500D02*
X301412500Y-118102500D01*
X291412500Y-119802500D02*
X291412500Y-119202500D01*
X301412500Y-105902500D02*
X301412500Y-110002500D01*
X289612500Y-114002500D02*
X289612500Y-118102500D01*
X299012500Y-105902500D02*
X301412500Y-105902500D01*
X289612500Y-110002500D02*
X289612500Y-105902500D01*
X289612500Y-105902500D02*
X292012500Y-105902500D01*
X291712500Y-119502500D02*
X291412500Y-119802500D01*
X294212500Y-105902500D02*
X296812500Y-105902500D01*
G04 #@! TO.C,D35*
X307050000Y-99970000D02*
X306120000Y-99970000D01*
X307050000Y-99970000D02*
X307050000Y-101430000D01*
X303890000Y-99970000D02*
X304820000Y-99970000D01*
X303890000Y-99970000D02*
X303890000Y-102130000D01*
G04 #@! TO.C,U2*
X236710000Y-84095000D02*
X234510000Y-84095000D01*
X236710000Y-84095000D02*
X238910000Y-84095000D01*
X236710000Y-78625000D02*
X238910000Y-78625000D01*
X236710000Y-78625000D02*
X233110000Y-78625000D01*
G04 #@! TO.C,R19*
X234340835Y-65819718D02*
X234019718Y-66140835D01*
X235380282Y-66859165D02*
X235059165Y-67180282D01*
G04 #@! TO.C,D38*
X229929828Y-115397870D02*
X229272218Y-116055479D01*
X227695370Y-117632328D02*
X229222721Y-119159678D01*
X227695370Y-117632328D02*
X228352979Y-116974718D01*
X229929828Y-115397870D02*
X230962203Y-116430246D01*
G04 #@! TO.C,R5*
X190857064Y-86815000D02*
X190402936Y-86815000D01*
X190857064Y-85345000D02*
X190402936Y-85345000D01*
G04 #@! TO.C,D36*
X258040000Y-68070000D02*
X259500000Y-68070000D01*
X258040000Y-68070000D02*
X258040000Y-69000000D01*
X258040000Y-71230000D02*
X260200000Y-71230000D01*
X258040000Y-71230000D02*
X258040000Y-70300000D01*
G04 #@! TO.C,D28*
X170400000Y-71250000D02*
X170400000Y-70320000D01*
X170400000Y-68090000D02*
X168240000Y-68090000D01*
X170400000Y-71250000D02*
X168940000Y-71250000D01*
X170400000Y-68090000D02*
X170400000Y-69020000D01*
G04 #@! TO.C,R12*
X246945000Y-80507064D02*
X246945000Y-80052936D01*
X248415000Y-80507064D02*
X248415000Y-80052936D01*
G04 #@! TD*
M02*
